{"glyphs":{"0":{"ha":1038,"x_min":32,"x_max":951,"o":"m 150 146 q 62 310 92 217 q 32 507 32 403 q 65 720 32 624 q 160 886 99 817 q 305 994 221 956 q 492 1032 389 1032 q 676 992 592 1032 q 821 883 760 953 q 917 717 882 813 q 951 507 951 621 q 920 310 951 403 q 831 146 889 217 q 679 23 767 65 q 492 -19 592 -19 q 300 24 388 -19 q 150 146 213 67 m 310 507 q 321 415 310 461 q 354 331 332 368 q 410 269 376 293 q 492 246 444 246 q 557 263 525 246 q 615 313 589 279 q 656 394 640 346 q 672 507 672 443 q 658 619 672 564 q 618 707 644 674 q 492 768 565 768 q 427 753 460 768 q 369 706 394 738 q 326 624 343 674 q 310 507 310 575 z "},"1":{"ha":617,"x_min":-18,"x_max":518,"o":"m 518 985 l 518 33 q 508 10 518 19 q 485 0 499 0 l 276 0 q 253 10 263 0 q 243 33 243 19 l 243 515 q 236 533 243 529 q 219 526 229 536 q 199 508 208 517 q 182 490 190 499 q 159 481 172 481 q 136 492 146 481 l -8 644 q -18 668 -18 654 q -7 692 -18 682 l 314 996 q 340 1012 324 1006 q 371 1018 357 1018 l 485 1018 q 508 1008 499 1018 q 518 985 518 999 z "},"2":{"ha":892,"x_min":36,"x_max":793,"o":"m 793 222 l 793 33 q 783 10 793 19 q 760 0 774 0 l 92 0 q 68 10 78 0 q 58 33 58 19 l 58 215 q 65 245 58 229 q 83 271 72 261 q 211 377 158 333 q 300 451 264 421 q 360 501 336 482 q 403 536 385 521 q 458 588 438 565 q 490 628 479 610 q 503 663 500 647 q 506 696 506 679 q 476 758 506 742 q 413 775 446 775 q 374 762 392 775 q 344 730 357 749 q 321 690 331 711 q 306 651 311 668 q 290 632 301 639 q 264 628 278 625 l 63 679 q 42 695 49 683 q 40 719 36 707 q 88 820 57 765 q 164 922 118 875 q 272 1001 210 969 q 413 1032 333 1032 q 576 1002 507 1032 q 692 924 646 972 q 760 816 738 876 q 782 696 782 756 q 767 587 782 636 q 725 494 753 538 q 658 410 697 450 q 569 331 618 371 q 549 313 556 318 q 537 303 542 307 q 525 293 532 299 q 504 276 518 288 q 495 262 493 268 q 511 256 497 256 l 760 256 q 783 246 774 256 q 793 222 793 236 z "},"3":{"ha":833,"x_min":17,"x_max":758,"o":"m 693 110 q 624 47 663 71 q 546 8 586 22 q 465 -11 506 -6 q 389 -17 424 -17 q 243 13 306 -17 q 137 88 181 43 q 65 186 93 133 q 21 283 38 239 q 23 308 17 297 q 43 322 29 319 l 221 363 q 245 358 235 365 q 260 338 256 350 q 272 305 264 322 q 296 273 281 288 q 334 248 311 258 q 389 238 357 238 q 460 262 436 238 q 483 311 483 286 q 462 379 483 356 q 410 413 440 403 q 344 424 379 424 q 285 421 310 424 q 262 428 271 419 q 253 450 253 436 l 253 567 q 262 590 253 581 q 286 599 271 599 q 359 601 315 597 q 442 625 403 606 q 478 658 463 636 q 490 710 493 681 q 389 783 483 783 q 335 774 357 783 q 297 750 313 764 q 273 719 282 736 q 260 689 264 703 q 221 663 250 658 l 44 701 q 24 716 31 704 q 22 740 18 728 q 67 838 39 786 q 139 935 94 890 q 244 1009 183 979 q 389 1039 306 1039 q 561 1010 490 1039 q 676 935 632 981 q 739 833 719 889 q 758 722 758 776 q 747 643 758 676 q 719 586 736 610 q 681 548 701 563 q 639 525 660 533 q 639 501 613 514 q 681 474 660 492 q 719 432 701 457 q 747 374 736 407 q 758 300 758 342 q 756 263 758 285 q 747 217 754 242 q 727 164 740 192 q 693 110 714 136 z "},"4":{"ha":933,"x_min":42,"x_max":868,"o":"m 868 425 l 868 236 q 859 213 868 222 q 835 203 850 203 l 789 203 q 765 193 775 203 q 756 169 756 183 l 756 33 q 747 10 756 19 q 722 0 738 0 l 514 0 q 490 10 500 0 q 481 33 481 19 l 481 169 q 472 193 481 183 q 447 203 463 203 l 75 203 q 51 213 61 203 q 42 236 42 222 l 42 388 q 48 418 42 401 q 64 446 54 435 l 531 993 q 555 1011 539 1004 q 585 1018 571 1018 l 722 1018 q 747 1008 738 1018 q 756 985 756 999 l 756 492 q 765 468 756 478 q 789 458 775 458 l 835 458 q 859 449 850 458 q 868 425 868 439 m 458 592 l 386 490 q 382 467 376 476 q 403 458 388 458 l 443 458 q 469 470 458 458 q 481 497 481 482 l 481 585 q 474 603 481 600 q 458 592 468 606 z "},"5":{"ha":856,"x_min":11,"x_max":785,"o":"m 665 76 q 544 7 613 32 q 403 -18 476 -18 q 281 -2 336 -18 q 178 40 225 14 q 94 98 132 65 q 22 164 56 131 q 12 188 13 174 q 21 213 11 201 l 135 333 q 156 342 144 343 q 179 332 168 342 q 210 304 192 319 q 256 275 229 289 q 314 252 282 261 q 385 243 346 243 q 488 278 451 243 q 524 365 524 313 q 517 407 524 386 q 495 446 510 428 q 456 477 481 464 q 396 493 431 490 q 311 483 343 497 q 254 447 279 468 q 227 435 243 438 q 199 438 211 432 l 74 486 q 52 503 60 490 q 47 531 44 517 l 132 986 q 146 1009 135 1000 q 171 1018 157 1018 l 694 1018 q 718 1008 708 1018 q 728 985 728 999 l 728 794 q 718 771 728 781 q 694 761 708 761 l 397 761 q 373 753 383 761 q 360 733 363 744 q 365 715 357 722 q 386 711 372 708 q 404 713 396 713 q 419 713 413 713 q 689 615 593 713 q 785 342 785 518 q 754 197 785 265 q 665 76 724 128 z "},"6":{"ha":901,"x_min":29,"x_max":817,"o":"m 535 718 q 740 598 665 696 q 817 354 815 500 q 808 264 817 304 q 785 192 800 224 q 753 135 771 160 q 718 94 735 111 q 642 36 682 58 q 561 2 601 14 q 484 -14 521 -10 q 421 -18 447 -18 q 306 -2 361 -18 q 205 42 251 14 q 122 111 158 71 q 65 201 86 151 q 40 288 50 239 q 29 378 29 336 q 40 473 29 426 q 72 568 51 519 q 113 640 82 592 q 184 747 143 688 q 270 870 225 806 q 357 992 315 935 q 380 1010 364 1003 q 410 1018 396 1018 l 683 1018 q 701 1010 697 1018 q 697 992 704 1003 l 521 750 q 517 730 513 739 q 535 718 521 721 m 546 353 q 536 397 546 376 q 510 434 526 418 q 473 459 494 450 q 426 468 451 468 q 380 459 401 468 q 342 434 358 450 q 317 397 326 418 q 308 353 308 376 q 317 308 308 329 q 342 272 326 288 q 380 248 358 257 q 426 239 401 239 q 473 248 451 239 q 510 272 494 257 q 536 308 526 288 q 546 353 546 329 z "},"7":{"ha":835,"x_min":26,"x_max":781,"o":"m 781 985 l 781 815 q 776 783 781 801 q 764 753 771 765 l 358 29 q 338 9 351 18 q 310 0 324 0 l 60 0 q 40 9 44 0 q 43 29 36 18 l 447 732 q 449 753 454 744 q 431 761 444 761 l 60 761 q 35 771 44 761 q 26 794 26 781 l 26 985 q 35 1008 26 999 q 60 1018 44 1018 l 747 1018 q 771 1008 761 1018 q 781 985 781 999 z "},"8":{"ha":863,"x_min":21,"x_max":796,"o":"m 711 518 q 772 430 749 481 q 796 324 796 379 q 765 172 796 236 q 682 66 735 108 q 559 3 629 24 q 408 -18 489 -18 q 258 3 329 -18 q 135 66 188 24 q 51 172 82 108 q 21 324 21 236 q 45 433 21 382 q 108 521 69 483 q 120 544 119 531 q 114 568 121 557 q 73 641 90 600 q 56 722 56 682 q 83 845 56 789 q 159 943 111 901 q 271 1008 207 985 q 408 1031 335 1031 q 545 1008 481 1031 q 658 943 610 985 q 733 845 706 901 q 761 722 761 789 q 747 638 761 678 q 708 565 732 597 q 711 518 690 542 m 519 324 q 510 360 519 343 q 486 390 501 378 q 451 410 471 403 q 408 418 431 418 q 331 391 364 418 q 299 324 299 364 q 331 251 299 274 q 408 229 364 229 q 486 251 453 229 q 519 324 519 274 m 408 636 q 463 656 440 636 q 485 704 485 675 q 463 763 485 743 q 408 782 440 782 q 354 762 376 782 q 332 704 332 742 q 354 656 332 675 q 408 636 376 636 z "},"9":{"ha":913,"x_min":46,"x_max":833,"o":"m 328 301 q 210 349 263 314 q 122 433 158 383 q 66 542 86 482 q 46 664 46 601 q 77 826 46 763 q 144 924 108 889 q 220 982 179 960 q 301 1016 261 1004 q 378 1032 342 1028 q 440 1036 414 1036 q 601 1005 529 1036 q 725 919 674 974 q 805 793 776 865 q 833 640 833 721 q 802 477 833 556 q 723 324 771 399 q 617 176 675 249 q 506 28 560 103 q 482 8 497 17 q 453 0 467 0 l 179 0 q 161 8 165 0 q 165 28 157 17 l 342 269 q 346 290 350 281 q 328 301 342 299 m 318 665 q 327 620 318 642 q 352 583 336 599 q 390 559 368 568 q 436 550 411 550 q 483 559 461 550 q 520 583 504 568 q 546 620 536 599 q 556 665 556 642 q 520 754 556 726 q 436 782 485 782 q 353 753 388 782 q 318 665 318 725 z "},"\u0000":{"ha":0,"x_min":0,"x_max":0,"o":""},"\r":{"ha":475,"x_min":0,"x_max":0,"o":""}," ":{"ha":475,"x_min":0,"x_max":0,"o":""},"E":{"ha":949,"x_min":74,"x_max":847,"o":"m 349 728 l 349 669 q 358 646 349 656 q 382 636 368 636 l 758 636 q 782 626 772 636 q 792 603 792 617 l 792 411 q 782 388 792 397 q 758 378 772 378 l 382 378 q 358 368 368 378 q 349 344 349 358 l 349 292 q 358 268 349 278 q 382 258 368 258 l 814 258 q 838 249 828 258 q 847 225 847 239 l 847 33 q 838 10 847 19 q 814 0 828 0 l 107 0 q 83 10 93 0 q 74 33 74 19 l 74 983 q 83 1007 74 997 q 107 1017 93 1017 l 814 1017 q 838 1007 828 1017 q 847 983 847 997 l 847 794 q 838 771 847 781 q 814 761 828 761 l 382 761 q 358 751 368 761 q 349 728 349 742 z "},"F":{"ha":906,"x_min":74,"x_max":847,"o":"m 350 726 l 350 668 q 360 644 350 654 q 383 635 369 635 l 758 635 q 782 625 772 635 q 792 601 792 615 l 792 407 q 782 383 792 393 q 758 374 772 374 l 383 374 q 360 364 369 374 q 350 340 350 354 l 350 33 q 340 10 350 19 q 317 0 331 0 l 107 0 q 83 10 93 0 q 74 33 74 19 l 74 983 q 83 1007 74 997 q 107 1017 93 1017 l 814 1017 q 838 1007 828 1017 q 847 983 847 997 l 847 793 q 838 769 847 779 q 814 760 828 760 l 383 760 q 360 750 369 760 q 350 726 350 740 z "},"G":{"ha":1169,"x_min":28,"x_max":1089,"o":"m 564 -18 q 356 24 453 -18 q 185 136 258 65 q 70 303 113 207 q 28 507 28 399 q 70 711 28 615 q 185 878 113 807 q 356 992 258 950 q 564 1033 453 1033 q 830 971 717 1033 q 1014 799 943 908 q 1017 773 1021 788 q 1003 751 1014 758 l 836 644 q 811 640 825 638 q 788 653 797 642 q 691 738 744 706 q 564 769 638 769 q 465 748 511 769 q 383 690 418 726 q 328 606 349 654 q 308 507 308 558 q 328 407 308 454 q 383 324 349 360 q 465 267 418 289 q 564 246 511 246 q 668 265 617 246 q 750 329 719 285 q 751 349 757 340 q 732 358 746 358 l 572 358 q 549 368 558 358 q 539 392 539 378 l 539 557 q 549 581 539 571 q 572 590 558 590 l 1050 590 q 1074 581 1064 590 q 1086 557 1085 572 q 1089 499 1089 533 q 1085 429 1089 465 q 1031 251 1075 333 q 916 110 986 169 q 756 16 846 50 q 564 -18 665 -18 z "},"H":{"ha":1111,"x_min":79,"x_max":981,"o":"m 981 983 l 981 33 q 971 10 981 19 q 947 0 961 0 l 739 0 q 715 10 724 0 q 706 33 706 19 l 706 331 q 696 354 706 344 q 672 364 686 364 l 386 364 q 362 354 371 364 q 353 331 353 344 l 353 33 q 343 10 353 19 q 319 0 333 0 l 113 0 q 88 10 97 0 q 79 33 79 19 l 79 983 q 88 1007 79 997 q 113 1017 97 1017 l 319 1017 q 343 1007 333 1017 q 353 983 353 997 l 353 654 q 362 631 353 640 q 386 621 371 621 l 672 621 q 696 631 686 621 q 706 654 706 640 l 706 983 q 715 1007 706 997 q 739 1017 724 1017 l 947 1017 q 971 1007 961 1017 q 981 983 981 997 z "},"I":{"ha":472,"x_min":86,"x_max":363,"o":"m 329 0 l 119 0 q 95 10 104 0 q 86 33 86 19 l 86 982 q 95 1006 86 996 q 119 1015 104 1015 l 329 1015 q 353 1006 343 1015 q 363 982 363 996 l 363 33 q 353 10 363 19 q 329 0 343 0 z "},"J":{"ha":846,"x_min":-12,"x_max":733,"o":"m 733 982 l 733 390 q 705 224 733 299 q 626 94 676 149 q 503 11 575 40 q 344 -18 432 -18 q 138 44 228 -18 q -6 215 47 106 q -7 241 -12 228 q 11 261 -1 254 l 168 342 q 194 344 181 349 q 214 328 207 339 q 268 268 235 294 q 344 242 301 242 q 404 258 382 242 q 438 297 426 274 q 454 345 450 319 q 458 390 458 371 l 458 982 q 468 1006 458 996 q 492 1015 478 1015 l 700 1015 q 724 1006 715 1015 q 733 982 733 996 z "},"K":{"ha":1021,"x_min":79,"x_max":1010,"o":"m 646 25 l 376 326 q 360 335 367 338 q 354 318 354 332 l 354 33 q 344 10 354 19 q 321 0 335 0 l 113 0 q 88 10 97 0 q 79 33 79 19 l 79 983 q 88 1007 79 997 q 113 1017 97 1017 l 321 1017 q 344 1007 335 1017 q 354 983 354 997 l 354 664 q 360 648 354 650 q 374 657 365 646 l 624 989 q 647 1008 632 1000 q 678 1015 663 1015 l 943 1015 q 963 1002 958 1015 q 958 978 967 989 l 593 521 q 585 495 585 510 q 596 471 586 481 q 696 364 643 419 q 801 252 749 308 q 903 141 853 196 q 1000 39 954 86 q 1007 14 1010 28 q 989 0 1004 0 l 701 0 q 670 7 686 0 q 646 25 654 14 z "},"L":{"ha":854,"x_min":74,"x_max":833,"o":"m 833 222 l 833 33 q 824 10 833 19 q 800 0 814 0 l 107 0 q 83 10 92 0 q 74 33 74 19 l 74 983 q 83 1007 74 997 q 107 1017 92 1017 l 315 1017 q 339 1007 329 1017 q 349 983 349 997 l 349 289 q 358 265 349 275 q 382 256 367 256 l 800 256 q 824 246 814 256 q 833 222 833 236 z "},"M":{"ha":1354,"x_min":79,"x_max":1210,"o":"m 1210 982 l 1210 33 q 1200 10 1210 19 q 1176 0 1190 0 l 967 0 q 943 10 953 0 q 933 33 933 19 l 933 481 q 921 496 933 494 q 900 486 908 497 l 667 110 q 644 99 660 99 q 621 110 629 99 l 388 486 q 368 496 381 497 q 356 481 356 494 l 356 33 q 346 10 356 19 q 322 0 336 0 l 113 0 q 89 10 99 0 q 79 33 79 19 l 79 982 q 89 1006 79 996 q 113 1015 99 1015 l 307 1015 q 336 1007 321 1015 q 358 988 351 999 l 625 596 q 644 585 633 585 q 663 596 656 585 l 929 988 q 953 1007 938 999 q 982 1015 968 1015 l 1176 1015 q 1200 1006 1190 1015 q 1210 982 1210 996 z "},"N":{"ha":1164,"x_min":76,"x_max":1031,"o":"m 1031 983 l 1031 33 q 1021 10 1031 19 q 997 0 1011 0 l 792 0 q 763 8 778 0 q 739 28 747 17 l 376 538 q 359 547 368 549 q 350 531 350 544 l 350 33 q 340 10 350 19 q 317 0 331 0 l 110 0 q 86 10 96 0 q 76 33 76 19 l 76 983 q 86 1007 76 997 q 110 1017 96 1017 l 318 1017 q 347 1009 332 1017 q 371 990 363 1001 l 732 481 q 749 471 740 469 q 758 486 758 472 l 758 983 q 768 1007 758 997 q 792 1017 778 1017 l 997 1017 q 1021 1007 1011 1017 q 1031 983 1031 997 z "},"O":{"ha":1150,"x_min":31,"x_max":1082,"o":"m 31 508 q 72 713 31 617 q 185 880 114 808 q 351 993 256 951 q 556 1035 447 1035 q 760 993 664 1035 q 927 880 856 951 q 1040 713 999 808 q 1082 508 1082 617 q 1040 304 1082 400 q 927 137 999 208 q 760 24 856 65 q 556 -18 664 -18 q 351 24 447 -18 q 185 137 256 65 q 72 304 114 208 q 31 508 31 400 m 306 508 q 325 408 306 456 q 378 325 344 361 q 458 267 413 289 q 556 246 504 246 q 653 267 607 246 q 733 325 699 289 q 788 408 768 361 q 807 508 807 456 q 788 608 807 560 q 733 691 768 656 q 653 748 699 726 q 556 769 607 769 q 458 748 504 769 q 378 691 413 726 q 325 608 344 656 q 306 508 306 560 z "},"P":{"ha":942,"x_min":74,"x_max":908,"o":"m 504 274 l 383 274 q 360 264 369 274 q 350 240 350 254 l 350 33 q 340 10 350 19 q 317 0 331 0 l 107 0 q 83 10 93 0 q 74 33 74 19 l 74 983 q 83 1007 74 997 q 107 1017 93 1017 l 532 1017 q 678 988 610 1017 q 798 907 747 958 q 878 788 849 856 q 908 642 908 719 q 883 497 908 564 q 808 380 858 429 q 681 302 757 331 q 504 274 606 274 m 514 761 l 383 761 q 360 751 369 761 q 350 728 350 742 l 350 564 q 360 540 350 550 q 383 531 369 531 l 532 531 q 609 565 585 531 q 633 642 633 599 q 626 685 633 664 q 603 724 618 707 q 565 751 588 740 q 514 761 543 761 z "},"Q":{"ha":1149,"x_min":33,"x_max":1092,"o":"m 1092 228 l 1092 32 q 1082 8 1092 18 q 1058 -1 1072 -1 l 579 -1 q 336 40 439 -1 q 166 151 233 81 q 66 315 99 221 q 33 515 33 408 q 74 717 33 622 q 184 881 114 811 q 348 992 254 951 q 549 1033 442 1033 q 750 992 656 1033 q 915 881 844 951 q 1025 717 985 811 q 1065 515 1065 622 q 1042 388 1065 449 q 982 286 1018 328 q 993 261 964 261 l 1058 261 q 1082 251 1072 261 q 1092 228 1092 242 m 549 269 q 642 290 599 269 q 719 343 686 310 q 772 421 753 376 q 790 515 790 465 q 772 610 790 565 q 719 690 753 656 q 642 743 686 724 q 549 763 599 763 q 455 743 499 763 q 378 690 411 724 q 326 610 344 656 q 307 515 307 565 q 326 421 307 465 q 378 343 344 376 q 455 290 411 310 q 549 269 499 269 z "},"R":{"ha":1000,"x_min":76,"x_max":976,"o":"m 317 0 l 110 0 q 86 10 96 0 q 76 33 76 19 l 76 983 q 86 1007 76 997 q 110 1017 96 1017 l 542 1017 q 690 990 622 1017 q 806 914 758 963 q 881 799 854 865 q 908 651 908 732 q 898 563 908 607 q 868 481 888 519 q 822 410 849 442 q 763 358 796 379 q 748 338 751 350 q 753 315 744 326 q 864 172 806 246 q 968 38 922 99 q 972 13 976 26 q 954 0 968 0 l 696 0 q 666 8 682 0 q 642 26 650 15 q 553 144 597 85 q 467 265 510 204 q 443 284 458 276 q 414 292 428 292 l 383 292 q 360 282 369 292 q 350 258 350 272 l 350 33 q 340 10 350 19 q 317 0 331 0 m 383 547 l 531 547 q 565 553 547 547 q 599 573 583 560 q 624 606 614 586 q 633 651 633 625 q 628 684 633 665 q 612 720 624 703 q 580 749 600 738 q 531 761 560 761 l 383 761 q 360 751 369 761 q 350 728 350 742 l 350 581 q 360 557 350 567 q 383 547 369 547 z "},"S":{"ha":944,"x_min":28,"x_max":876,"o":"m 190 349 q 339 272 265 300 q 476 244 413 244 q 569 262 538 244 q 601 314 601 279 q 588 342 601 332 q 551 360 574 353 q 497 371 528 367 q 435 382 467 375 q 363 395 404 388 q 279 417 322 403 q 194 454 236 432 q 118 511 151 476 q 65 594 85 546 q 44 707 44 642 q 82 865 44 803 q 177 965 119 928 q 306 1016 235 1001 q 443 1031 376 1031 q 652 997 560 1031 q 829 897 744 963 q 842 874 840 888 q 835 849 843 860 l 726 694 q 704 681 718 683 q 679 686 690 678 q 547 749 608 731 q 435 768 486 768 q 399 767 419 768 q 361 762 379 767 q 331 746 343 757 q 319 715 319 735 q 349 681 319 696 q 415 654 378 665 q 488 637 453 643 q 532 629 522 631 q 642 601 582 619 q 753 545 701 582 q 841 449 806 508 q 876 301 876 390 q 847 158 876 218 q 766 58 818 97 q 641 1 714 19 q 479 -18 568 -18 q 344 -6 407 -18 q 228 26 282 6 q 127 76 174 47 q 42 136 81 104 q 29 159 31 144 q 36 185 28 174 l 143 339 q 165 353 151 350 q 190 349 179 356 z "},"T":{"ha":864,"x_min":32,"x_max":832,"o":"m 799 761 l 604 761 q 581 751 590 761 q 571 728 571 742 l 571 33 q 562 10 571 19 q 538 0 553 0 l 329 0 q 306 10 315 0 q 296 33 296 19 l 296 728 q 287 751 296 742 q 263 761 278 761 l 65 761 q 42 771 51 761 q 32 794 32 781 l 32 983 q 42 1007 32 997 q 65 1017 51 1017 l 799 1017 q 823 1007 814 1017 q 832 983 832 997 l 832 794 q 823 771 832 781 q 799 761 814 761 z "},"V":{"ha":1153,"x_min":-12,"x_max":1122,"o":"m 414 31 l -6 976 q -6 1004 -12 992 q 18 1017 0 1017 l 244 1017 q 272 1008 258 1017 q 292 986 285 999 l 536 428 q 554 415 543 415 q 572 428 565 415 l 815 986 q 835 1008 822 999 q 863 1017 849 1017 l 1093 1017 q 1115 1005 1108 1017 q 1117 982 1122 993 l 693 31 q 673 9 686 18 q 646 0 660 0 l 461 0 q 434 9 447 0 q 414 31 421 18 z "},"W":{"ha":1586,"x_min":-6,"x_max":1546,"o":"m 1 976 q 1 1005 -6 993 q 22 1017 7 1017 l 249 1017 q 275 1008 263 1017 q 292 986 288 999 l 450 524 q 465 510 454 510 q 479 524 475 510 l 632 985 q 649 1008 636 999 q 676 1017 661 1017 l 861 1017 q 889 1008 876 1017 q 906 985 901 999 l 1058 521 q 1073 507 1063 507 q 1089 521 1083 507 l 1249 986 q 1267 1008 1254 999 q 1294 1017 1279 1017 l 1519 1017 q 1540 1005 1535 1017 q 1542 981 1546 993 l 1206 32 q 1188 9 1200 18 q 1160 0 1175 0 l 981 0 q 953 9 965 0 q 936 32 940 18 l 783 494 q 769 508 779 508 q 754 494 758 508 l 601 32 q 585 9 597 18 q 557 0 572 0 l 378 0 q 350 10 363 0 q 335 32 338 21 l 1 976 z "},"X":{"ha":1047,"x_min":-29,"x_max":1039,"o":"m 328 529 l -21 976 q -25 1001 -29 988 q -7 1015 -21 1015 l 260 1015 q 289 1007 274 1015 q 313 988 304 999 l 486 733 q 506 722 494 722 q 525 733 517 722 q 613 862 569 796 q 699 989 657 928 q 722 1008 707 1000 q 751 1015 738 1015 l 1017 1015 q 1036 1001 1033 1015 q 1031 976 1039 988 l 685 529 q 676 503 676 518 q 685 476 676 488 l 1024 40 q 1027 15 1032 29 q 1008 0 1022 0 l 744 0 q 715 8 731 0 q 692 28 700 17 l 525 271 q 506 282 517 282 q 486 271 494 282 l 319 28 q 296 8 311 17 q 267 0 281 0 l 3 0 q -15 15 -11 0 q -11 40 -19 29 l 328 476 q 336 503 336 488 q 328 529 336 518 z "},"Y":{"ha":985,"x_min":-36,"x_max":983,"o":"m 972 976 l 625 414 q 613 383 618 401 q 607 351 607 365 l 607 33 q 597 10 607 19 q 574 0 588 0 l 364 0 q 340 10 350 0 q 331 33 331 19 l 331 350 q 326 383 331 364 q 314 413 321 401 q 144 693 231 556 q -29 976 57 831 q -32 1002 -36 989 q -14 1015 -28 1015 l 233 1015 q 262 1007 247 1015 q 283 986 276 999 l 454 689 q 471 678 461 678 q 488 689 481 678 l 657 986 q 678 1007 664 999 q 707 1015 693 1015 l 957 1015 q 977 1006 971 1015 q 972 976 983 996 z "},"Z":{"ha":985,"x_min":54,"x_max":907,"o":"m 874 0 l 88 0 q 64 10 74 0 q 54 33 54 19 l 54 189 q 61 219 54 203 q 76 247 68 236 l 501 724 q 507 747 510 735 q 489 760 504 760 l 88 760 q 64 769 74 760 q 54 793 54 779 l 54 983 q 64 1007 54 997 q 88 1017 74 1017 l 874 1017 q 898 1007 889 1017 q 907 983 907 997 l 907 826 q 901 796 907 813 q 886 768 894 779 l 461 290 q 456 267 453 279 q 472 256 458 256 l 874 256 q 898 246 889 256 q 907 222 907 236 l 907 33 q 898 10 907 19 q 874 0 889 0 z "},"A":{"ha":1090,"x_min":-33,"x_max":1074,"o":"m 375 985 q 394 1006 381 997 q 422 1015 407 1015 l 617 1015 q 644 1006 631 1015 q 663 985 657 997 l 1068 40 q 1066 14 1074 28 q 1036 0 1058 0 l 799 0 q 770 9 783 0 q 750 31 757 18 l 713 114 q 692 135 706 126 q 665 144 679 144 l 372 144 q 344 135 357 144 q 325 114 331 126 l 286 31 q 267 9 281 18 q 240 0 254 0 l 1 0 q -13 3 -6 0 q -26 11 -21 6 q -32 25 -31 17 q -28 44 -33 33 l 375 985 m 457 381 l 581 381 q 601 390 594 381 q 600 411 607 399 q 567 492 586 446 q 531 579 547 539 q 518 592 525 592 q 506 579 511 592 l 436 411 q 436 390 431 399 q 457 381 442 381 z "},"D":{"ha":1092,"x_min":78,"x_max":1000,"o":"m 78 33 l 78 983 q 88 1007 78 997 q 111 1017 97 1017 l 490 1017 q 847 889 708 1017 q 961 724 922 819 q 1000 508 1000 628 q 961 292 1000 389 q 847 126 922 196 q 688 32 778 64 q 490 0 599 0 l 111 0 q 88 10 97 0 q 78 33 78 19 m 386 256 l 490 256 q 571 265 529 256 q 646 302 613 275 q 701 378 679 329 q 722 507 722 428 q 701 635 722 586 q 645 712 679 685 q 570 749 611 739 q 490 758 529 758 l 386 758 q 363 749 372 758 q 353 725 353 739 l 353 289 q 363 265 353 275 q 386 256 372 256 z "},".":{"ha":322,"x_min":15,"x_max":300,"o":"m 300 133 q 289 78 300 104 q 258 32 278 51 q 213 1 239 13 q 157 -10 186 -10 q 102 1 128 -10 q 57 32 76 13 q 26 78 38 51 q 15 133 15 104 q 26 188 15 163 q 57 232 38 213 q 102 263 76 251 q 157 274 128 274 q 213 263 186 274 q 258 232 239 251 q 289 188 278 213 q 300 133 300 163 z "},",":{"ha":331,"x_min":17,"x_max":307,"o":"m 100 -147 q 74 -146 88 -153 q 56 -126 61 -139 l 25 -54 q 24 -29 18 -42 q 42 -11 29 -17 q 51 -7 47 -8 q 60 -4 56 -6 q 63 26 85 7 q 18 125 22 61 q 26 181 17 154 q 55 228 36 208 q 99 260 74 249 q 154 274 125 272 q 248 244 208 276 q 300 160 288 213 q 306 133 304 147 q 307 103 307 118 q 293 27 307 65 q 253 -44 279 -11 q 189 -105 228 -78 q 100 -147 150 -132 z "},"?":{"ha":803,"x_min":-22,"x_max":744,"o":"m 475 382 q 463 358 472 368 q 439 349 454 349 l 228 349 q 204 358 214 349 q 194 382 194 368 q 210 468 196 431 q 248 535 224 506 q 308 589 272 565 q 393 633 344 613 q 454 669 438 653 q 471 718 471 686 q 470 731 471 721 q 461 753 469 742 q 433 773 453 764 q 374 782 413 782 q 301 772 329 782 q 253 744 272 761 q 224 706 235 728 q 206 664 214 685 q 188 645 200 651 q 161 643 175 639 l 4 694 q -15 712 -8 700 q -18 738 -22 724 q 11 826 -8 775 q 74 926 31 878 q 189 1007 117 974 q 376 1040 261 1040 q 480 1031 435 1040 q 560 1005 525 1021 q 621 969 596 989 q 663 932 646 950 q 723 842 701 889 q 744 739 744 796 q 726 621 744 665 q 681 549 708 576 q 621 506 654 522 q 558 475 588 490 q 505 439 528 460 q 475 382 482 418 m 196 33 l 196 225 q 206 249 196 239 q 229 258 215 258 l 438 258 q 462 249 453 258 q 471 225 471 239 l 471 33 q 462 10 471 19 q 438 0 453 0 l 229 0 q 206 10 215 0 q 196 33 196 19 z "},"!":{"ha":407,"x_min":40,"x_max":338,"o":"m 267 350 l 113 350 q 88 360 97 350 q 76 383 78 369 l 42 982 q 49 1006 40 997 q 74 1015 58 1015 l 306 1015 q 328 1006 319 1015 q 336 982 338 997 l 301 383 q 290 360 300 369 q 267 350 281 350 m 294 0 l 86 0 q 62 10 71 0 q 53 33 53 19 l 53 225 q 62 249 53 240 q 86 258 71 258 l 294 258 q 318 249 308 258 q 328 225 328 240 l 328 33 q 318 10 328 19 q 294 0 308 0 z "},"(":{"ha":549,"x_min":21,"x_max":522,"o":"m 507 60 q 520 38 518 51 q 514 13 522 24 l 397 -143 q 375 -156 389 -154 q 350 -150 361 -158 q 211 -26 272 -92 q 108 117 150 39 q 43 292 65 196 q 21 508 21 388 q 42 717 21 624 q 103 890 63 811 q 206 1038 144 969 q 350 1168 268 1106 q 375 1174 361 1176 q 397 1161 389 1172 l 514 1008 q 520 983 522 997 q 507 961 518 969 q 351 765 406 879 q 296 508 296 651 q 347 249 296 357 q 507 60 399 142 z "},")":{"ha":549,"x_min":31,"x_max":533,"o":"m 203 1168 q 347 1038 285 1106 q 450 890 408 969 q 513 717 492 811 q 533 508 533 624 q 511 292 533 388 q 447 117 489 196 q 342 -26 404 39 q 203 -150 281 -92 q 178 -156 192 -158 q 156 -143 164 -154 l 39 13 q 33 38 31 24 q 46 60 35 51 q 206 249 154 142 q 258 508 258 357 q 203 765 258 651 q 46 961 147 879 q 33 983 35 969 q 39 1008 31 997 l 156 1161 q 178 1174 164 1172 q 203 1168 192 1176 z "},"[":{"ha":542,"x_min":82,"x_max":522,"o":"m 489 -197 l 115 -197 q 92 -187 101 -197 q 82 -164 82 -178 l 82 1193 q 92 1217 82 1208 q 115 1226 101 1226 l 489 1226 q 513 1217 503 1226 q 522 1193 522 1208 l 522 1003 q 513 979 522 989 q 489 969 503 969 l 390 969 q 367 960 376 969 q 357 936 357 951 l 357 92 q 367 68 357 78 q 390 58 376 58 l 489 58 q 513 49 503 58 q 522 25 522 40 l 522 -164 q 513 -187 522 -178 q 489 -197 503 -197 z "},"]":{"ha":510,"x_min":19,"x_max":458,"o":"m 19 -164 l 19 25 q 29 49 19 40 q 53 58 39 58 l 150 58 q 174 68 164 58 q 183 92 183 78 l 183 936 q 174 960 183 951 q 150 969 164 969 l 53 969 q 29 979 39 969 q 19 1003 19 989 l 19 1193 q 29 1217 19 1208 q 53 1226 39 1226 l 425 1226 q 449 1217 439 1226 q 458 1193 458 1208 l 458 -164 q 449 -187 458 -178 q 425 -197 439 -197 l 53 -197 q 29 -187 39 -197 q 19 -164 19 -178 z "},"+":{"ha":788,"x_min":25,"x_max":749,"o":"m 715 392 l 551 392 q 528 383 538 392 q 518 358 518 374 l 518 192 q 509 168 518 178 q 485 158 500 158 l 289 158 q 265 168 275 158 q 256 192 256 178 l 256 358 q 247 383 256 374 q 222 392 238 392 l 60 392 q 35 401 44 392 q 25 425 25 411 l 25 613 q 35 637 25 628 q 60 646 44 646 l 222 646 q 247 656 238 646 q 256 679 256 665 l 256 847 q 265 872 256 863 q 289 881 275 881 l 485 881 q 509 872 500 881 q 518 847 518 863 l 518 679 q 528 656 518 665 q 551 646 538 646 l 715 646 q 740 637 731 646 q 749 613 749 628 l 749 425 q 740 401 749 411 q 715 392 731 392 z "},"-":{"ha":568,"x_min":29,"x_max":539,"o":"m 506 394 l 63 394 q 39 404 49 394 q 29 428 29 414 l 29 615 q 39 640 29 631 q 63 649 49 649 l 506 649 q 529 640 519 649 q 539 615 539 631 l 539 428 q 529 404 539 414 q 506 394 519 394 z "},"÷":{"ha":850,"x_min":32,"x_max":776,"o":"m 743 388 l 65 388 q 42 397 51 388 q 32 421 32 407 l 32 610 q 42 634 32 625 q 65 643 51 643 l 743 643 q 767 634 758 643 q 776 610 776 625 l 776 421 q 767 397 776 407 q 743 388 758 388 m 404 682 q 350 693 375 682 q 306 723 325 704 q 277 767 288 742 q 267 821 267 793 q 306 919 267 879 q 404 958 346 958 q 502 919 463 958 q 542 821 542 879 q 531 767 542 793 q 502 723 521 742 q 458 693 483 704 q 404 682 433 682 m 404 75 q 306 115 346 75 q 267 213 267 154 q 306 309 267 269 q 404 349 346 349 q 502 309 463 349 q 542 213 542 269 q 502 115 542 154 q 404 75 463 75 z "},"=":{"ha":781,"x_min":33,"x_max":703,"o":"m 669 543 l 67 543 q 43 553 53 543 q 33 576 33 563 l 33 750 q 43 774 33 765 q 67 783 53 783 l 669 783 q 693 774 683 783 q 703 750 703 765 l 703 576 q 693 553 703 563 q 669 543 683 543 m 669 226 l 67 226 q 43 236 53 226 q 33 260 33 246 l 33 433 q 43 458 33 449 q 67 467 53 467 l 669 467 q 693 458 683 467 q 703 433 703 449 l 703 260 q 693 236 703 246 q 669 226 683 226 z "},"*":{"ha":604,"x_min":-4,"x_max":572,"o":"m 268 554 l 232 489 q 213 473 225 476 q 188 476 200 469 l 58 561 q 45 581 47 569 q 53 604 43 593 l 113 669 q 119 690 122 681 q 103 701 117 699 l 22 719 q 2 734 8 722 q 0 758 -4 746 l 47 899 q 63 917 51 911 q 89 917 75 922 l 157 885 q 178 885 169 879 q 185 904 186 890 l 179 981 q 187 1005 178 996 q 211 1014 196 1014 l 361 1014 q 384 1005 375 1014 q 392 981 393 996 l 385 897 q 392 878 383 883 q 413 879 400 872 l 482 915 q 506 917 494 922 q 522 899 518 911 l 568 758 q 566 734 572 746 q 546 719 560 722 l 468 700 q 451 688 454 697 q 458 668 449 679 l 517 604 q 525 581 526 593 q 511 561 524 569 l 382 476 q 358 473 371 469 q 338 488 344 476 l 300 554 q 284 567 293 567 q 268 554 275 567 z "},"©":{"ha":1079,"x_min":7,"x_max":1050,"o":"m 7 507 q 48 710 7 615 q 160 876 89 806 q 326 988 231 947 q 529 1029 421 1029 q 732 988 638 1029 q 897 876 826 947 q 1009 710 968 806 q 1050 507 1050 615 q 1009 304 1050 399 q 897 139 968 210 q 732 27 826 68 q 529 -14 638 -14 q 326 27 421 -14 q 160 139 231 68 q 48 304 89 210 q 7 507 7 399 m 131 507 q 162 353 131 425 q 247 226 193 281 q 374 141 301 172 q 529 110 447 110 q 683 141 611 110 q 810 226 756 172 q 895 353 864 281 q 926 507 926 425 q 895 662 926 589 q 810 789 864 735 q 683 874 756 843 q 529 906 611 906 q 374 874 447 906 q 247 789 301 843 q 162 662 193 735 q 131 507 131 589 m 767 401 q 728 333 754 363 q 668 283 701 303 q 597 252 635 263 q 524 242 558 242 q 420 263 469 242 q 334 319 371 283 q 276 403 297 354 q 254 506 254 451 q 276 608 254 560 q 334 693 297 657 q 420 750 371 729 q 524 771 469 771 q 599 759 560 771 q 672 725 638 747 q 732 673 706 703 q 771 607 758 643 q 770 594 774 600 q 760 585 767 588 l 642 539 q 628 538 635 536 q 618 547 621 540 q 574 593 599 578 q 524 608 549 608 q 448 578 479 608 q 417 506 417 549 q 448 433 417 463 q 524 403 479 403 q 572 418 547 403 q 614 458 597 433 q 639 467 624 474 l 756 424 q 767 401 772 417 z "},"@":{"ha":1176,"x_min":47,"x_max":1106,"o":"m 992 239 q 932 212 964 219 q 867 207 900 204 q 804 221 835 210 q 751 251 774 232 q 726 262 740 261 q 701 256 713 263 q 635 219 672 233 q 553 204 597 204 q 350 284 424 204 q 276 501 276 364 q 297 622 276 568 q 353 715 317 676 q 441 776 390 754 q 554 797 492 797 q 629 788 600 797 q 660 783 660 778 q 669 790 660 788 q 693 792 679 792 l 801 792 q 826 783 817 792 q 835 758 835 774 l 835 439 q 836 415 835 428 q 842 390 838 401 q 865 372 846 376 q 893 376 883 367 q 922 442 913 394 q 932 560 932 489 q 844 789 932 715 q 731 847 799 826 q 571 868 663 868 q 415 837 481 868 q 306 756 349 806 q 242 642 263 706 q 222 513 222 578 q 235 385 222 451 q 283 264 247 319 q 381 173 318 208 q 546 138 444 138 q 682 153 629 138 q 761 183 735 168 q 787 189 772 190 q 810 178 801 188 l 872 107 q 881 83 882 96 q 869 60 881 69 q 822 31 850 44 q 756 6 794 17 q 666 -12 718 -6 q 546 -18 614 -18 q 337 18 429 -18 q 180 123 244 54 q 81 290 115 192 q 47 513 47 388 q 82 710 47 617 q 182 874 117 803 q 353 994 254 953 q 571 1035 451 1035 q 790 1006 693 1035 q 957 917 888 976 q 1106 560 1106 792 q 992 239 1106 324 m 660 538 q 656 572 660 554 q 642 604 653 589 q 610 629 631 619 q 554 639 589 639 q 506 625 525 639 q 477 590 488 611 q 463 546 467 569 q 458 501 458 522 q 467 435 458 461 q 490 394 476 410 q 521 373 504 379 q 553 367 538 367 q 592 372 574 367 q 626 389 611 376 q 650 422 640 401 q 660 475 660 443 l 660 538 z "},"&":{"ha":951,"x_min":11,"x_max":893,"o":"m 706 -6 l 631 71 q 606 82 619 82 q 582 72 593 82 q 516 26 549 43 q 453 0 483 10 q 395 -12 422 -10 q 346 -15 368 -15 q 122 56 208 -15 q 22 244 36 126 q 44 397 11 332 q 144 518 78 463 q 151 524 147 521 q 168 536 157 528 q 181 558 179 544 q 175 583 182 571 q 131 788 118 681 q 163 887 138 842 q 227 964 189 932 q 314 1014 265 996 q 415 1032 363 1032 q 567 992 496 1032 q 671 878 638 953 q 694 778 693 828 q 681 682 696 728 q 638 596 667 636 q 569 525 608 556 q 557 505 558 517 q 565 482 556 493 l 588 461 q 609 452 597 450 q 628 465 621 454 q 653 510 642 489 q 672 546 665 531 q 692 563 679 558 q 718 563 704 568 l 869 496 q 887 478 882 490 q 885 453 892 465 q 847 387 871 428 q 790 299 822 346 q 783 272 782 288 q 793 247 783 257 q 840 198 817 222 q 883 150 863 174 q 892 126 893 139 q 881 104 892 113 l 754 -7 q 729 -16 743 -17 q 706 -6 715 -15 m 299 369 q 267 335 281 358 q 261 272 254 313 q 286 224 267 240 q 331 203 306 207 q 383 208 356 200 q 431 231 410 215 q 441 253 442 239 q 431 279 440 268 l 350 363 q 325 376 340 374 q 299 369 310 378 m 419 688 q 455 728 444 704 q 464 773 465 751 q 449 809 463 794 q 414 824 436 824 q 381 810 397 824 q 361 768 365 797 q 363 735 358 753 q 374 700 367 717 q 394 683 379 688 q 419 688 408 679 z "},"/":{"ha":788,"x_min":-42,"x_max":819,"o":"m -36 -142 l 540 1115 q 560 1136 547 1128 q 588 1144 574 1144 l 793 1144 q 813 1136 807 1144 q 813 1115 819 1128 l 236 -142 q 217 -163 231 -154 q 189 -172 203 -172 l -17 -172 q -36 -163 -31 -172 q -36 -142 -42 -154 z "},"§":{"ha":736,"x_min":33,"x_max":667,"o":"m 625 344 q 656 283 644 317 q 667 221 667 249 q 640 112 667 157 q 571 38 614 67 q 474 -5 528 8 q 364 -18 419 -18 q 269 -6 315 -18 q 181 23 222 6 q 106 60 140 40 q 50 96 72 81 q 36 117 39 103 q 42 142 33 131 l 113 243 q 135 257 121 254 q 160 253 149 260 q 251 205 203 226 q 361 179 299 183 q 391 181 375 178 q 421 189 407 183 q 444 202 435 194 q 454 221 454 210 q 449 235 454 229 q 429 245 443 240 q 391 256 415 250 q 328 269 367 261 q 243 290 293 276 q 147 329 193 303 q 69 399 101 356 q 38 508 38 442 q 54 581 38 549 q 94 638 71 614 q 93 681 115 661 q 51 740 65 707 q 38 807 38 772 q 55 893 38 857 q 99 954 72 929 q 159 994 126 979 q 224 1018 192 1010 q 284 1029 257 1026 q 326 1032 311 1032 q 468 1008 397 1032 q 618 935 539 985 q 632 914 629 928 q 626 889 635 900 l 550 783 q 528 770 542 772 q 503 776 514 768 q 408 826 451 813 q 325 840 365 840 q 267 831 285 840 q 250 808 250 822 q 263 790 250 797 q 294 775 275 782 q 338 763 314 768 q 385 754 361 758 q 466 733 418 746 q 558 693 514 719 q 634 623 603 667 q 665 513 665 579 q 653 451 665 482 q 626 397 642 421 q 618 371 618 386 q 625 344 618 356 m 278 475 q 356 453 314 460 q 417 447 397 447 q 458 458 439 447 q 475 499 476 469 q 458 528 474 514 q 416 554 442 543 q 360 572 390 565 q 299 579 329 579 q 253 574 271 578 q 226 554 236 571 q 231 510 215 529 q 278 475 246 490 z "},"¢":{"ha":860,"x_min":19,"x_max":840,"o":"m 625 432 l 811 357 q 830 339 824 351 q 831 314 836 326 q 785 228 811 264 q 729 168 758 192 q 669 131 700 144 q 610 110 639 117 q 586 94 596 106 q 576 69 576 83 l 576 18 q 567 -6 576 4 q 543 -15 558 -15 l 335 -15 q 311 -6 321 -15 q 301 18 301 4 l 301 72 q 292 99 301 86 q 271 118 283 113 q 170 183 217 143 q 90 273 124 222 q 38 383 57 324 q 19 506 19 442 q 38 631 19 571 q 90 740 57 690 q 170 830 124 790 q 271 894 217 869 q 292 914 283 901 q 301 940 301 926 l 301 1000 q 311 1024 301 1014 q 335 1033 321 1033 l 543 1033 q 567 1024 558 1033 q 576 1000 576 1014 l 576 943 q 586 917 576 929 q 608 897 596 904 q 675 863 642 883 q 739 817 708 843 q 794 760 769 792 q 833 693 818 729 q 833 667 840 681 q 814 649 826 654 l 628 574 q 601 574 614 568 q 582 592 589 579 q 528 651 563 628 q 444 675 494 675 q 333 629 379 675 q 288 506 288 583 q 300 438 288 468 q 334 385 313 407 q 384 350 356 363 q 444 338 413 338 q 523 356 488 338 q 581 414 558 375 q 599 432 588 426 q 625 432 611 438 z "},"{":{"ha":572,"x_min":25,"x_max":557,"o":"m 557 18 l 556 -183 q 546 -207 556 -197 q 522 -215 536 -217 q 444 -208 488 -214 q 356 -185 401 -201 q 266 -143 311 -169 q 183 -75 221 -117 q 135 9 151 -36 q 111 102 118 54 q 103 198 104 150 q 101 290 101 246 q 98 348 103 328 q 58 379 93 368 q 35 394 44 383 q 25 419 25 406 l 25 613 q 35 638 25 628 q 58 654 44 649 q 97 696 90 665 q 101 778 103 726 q 103 845 101 806 q 111 929 104 885 q 135 1018 118 974 q 183 1101 151 1063 q 267 1174 224 1147 q 353 1216 310 1201 q 440 1236 397 1231 q 524 1242 483 1242 q 547 1233 538 1242 q 557 1208 557 1224 l 557 1007 q 547 984 557 993 q 524 974 538 975 q 441 960 472 972 q 394 919 410 947 q 374 843 378 890 q 372 725 369 796 q 369 677 372 704 q 359 623 365 650 q 342 571 353 596 q 317 531 331 546 q 315 492 299 510 q 340 452 329 475 q 356 403 350 429 q 365 350 363 376 q 368 301 368 324 q 374 190 368 236 q 396 115 379 144 q 443 69 413 85 q 524 53 474 54 q 547 42 538 51 q 557 18 557 33 z "},"}":{"ha":575,"x_min":15,"x_max":547,"o":"m 257 531 q 231 571 242 546 q 214 623 221 596 q 203 677 207 650 q 200 725 200 704 q 198 843 201 796 q 178 919 194 890 q 131 960 163 947 q 49 974 100 972 q 25 984 35 975 q 15 1007 15 993 l 15 1208 q 25 1233 15 1224 q 49 1242 35 1242 q 133 1236 90 1242 q 220 1216 176 1231 q 306 1174 264 1201 q 389 1101 349 1147 q 437 1018 419 1063 q 461 929 454 974 q 469 845 468 885 q 471 778 471 806 q 476 696 471 726 q 515 654 482 665 q 538 638 528 649 q 547 613 547 628 l 547 419 q 538 394 547 406 q 515 379 529 383 q 476 348 481 368 q 471 290 471 328 q 469 198 471 246 q 461 102 468 150 q 437 9 454 54 q 389 -75 419 -36 q 307 -143 351 -117 q 217 -185 263 -169 q 128 -208 171 -201 q 50 -215 85 -214 q 26 -207 36 -217 q 17 -183 17 -197 l 17 18 q 25 42 15 33 q 49 53 35 51 q 129 69 99 54 q 176 115 160 85 q 199 190 193 144 q 204 301 204 236 q 207 350 204 324 q 216 403 210 376 q 232 452 222 429 q 257 492 242 475 q 257 531 275 511 z "},"€":{"ha":953,"x_min":25,"x_max":936,"o":"m 929 224 q 891 155 917 196 q 822 76 865 114 q 714 10 778 38 q 561 -18 650 -18 q 432 0 499 -18 q 308 56 365 18 q 206 151 250 93 q 143 292 161 210 q 128 315 140 306 q 103 324 117 324 l 58 324 q 35 333 44 324 q 25 357 25 343 l 25 456 q 35 479 25 469 q 58 489 44 489 l 82 489 q 106 493 96 489 q 115 514 115 497 q 106 533 115 529 q 82 538 96 538 l 58 538 q 35 547 44 538 q 25 571 25 557 l 25 669 q 35 693 25 683 q 58 703 44 703 l 117 703 q 142 713 131 703 q 158 736 154 722 q 210 853 175 799 q 297 947 246 907 q 415 1009 349 986 q 561 1032 482 1032 q 705 1007 643 1032 q 810 948 767 982 q 880 876 853 914 q 919 814 907 839 q 922 788 926 801 q 906 768 918 775 l 753 683 q 727 681 740 676 q 707 696 714 685 q 685 725 699 710 q 653 753 671 740 q 612 776 635 767 q 561 785 589 785 q 499 772 529 785 q 450 733 468 760 q 449 713 442 722 q 469 703 456 703 l 608 703 q 632 693 622 703 q 642 669 642 683 l 642 571 q 632 547 642 557 q 608 538 622 538 l 413 538 q 389 535 399 538 q 379 514 379 532 q 389 492 379 494 q 413 489 399 489 l 608 489 q 632 479 622 489 q 642 456 642 469 l 642 357 q 632 333 642 343 q 608 324 622 324 l 446 324 q 425 314 432 324 q 426 293 418 304 q 481 247 444 265 q 561 229 517 229 q 615 238 592 229 q 655 261 638 247 q 684 291 672 275 q 703 321 696 307 q 722 339 710 333 q 746 339 733 344 l 911 268 q 930 249 924 261 q 929 224 936 236 z "},"$":{"ha":944,"x_min":28,"x_max":876,"o":"m 331 1131 l 536 1131 q 560 1121 550 1131 q 569 1097 569 1111 l 569 1060 q 579 1034 569 1046 q 603 1019 589 1022 q 829 903 722 989 q 842 881 840 894 q 835 856 843 867 l 726 701 q 704 688 718 690 q 679 693 690 685 q 547 756 608 738 q 435 775 486 775 q 399 774 419 775 q 361 769 379 774 q 331 753 343 764 q 319 722 319 742 q 349 688 319 703 q 415 661 378 672 q 488 644 453 650 q 532 636 522 638 q 642 608 582 626 q 753 552 701 589 q 841 456 806 515 q 876 308 876 397 q 802 97 876 172 q 603 0 728 22 q 579 -14 589 -3 q 569 -39 569 -25 l 569 -79 q 560 -103 569 -93 q 536 -112 550 -112 l 331 -112 q 307 -103 317 -112 q 297 -79 297 -93 l 297 -22 q 288 4 297 -8 q 265 21 279 17 q 143 72 199 40 q 42 142 88 104 q 29 166 31 151 q 36 192 28 181 l 143 346 q 165 360 151 357 q 190 356 179 363 q 339 279 265 307 q 476 251 413 251 q 569 269 538 251 q 601 321 601 286 q 588 349 601 339 q 551 367 574 360 q 497 378 528 374 q 435 389 467 382 q 363 402 404 394 q 279 424 322 410 q 194 461 236 439 q 118 518 151 483 q 65 601 85 553 q 44 714 44 649 q 62 827 44 778 q 110 913 79 876 q 180 974 140 950 q 265 1013 219 997 q 288 1028 279 1017 q 297 1054 297 1040 l 297 1097 q 307 1121 297 1111 q 331 1131 317 1131 z "},"#":{"ha":1189,"x_min":-12,"x_max":1142,"o":"m 894 229 l 794 229 q 767 220 779 229 q 749 199 754 211 q 714 115 732 158 q 681 32 696 71 q 663 9 676 18 q 636 0 650 0 l 451 0 q 431 9 436 0 q 429 32 425 18 l 494 199 q 494 220 500 211 q 474 229 488 229 l 431 229 q 403 220 415 229 q 385 199 390 211 l 319 32 q 302 9 315 18 q 275 0 289 0 l 92 0 q 71 9 76 0 q 69 32 65 18 l 133 199 q 133 220 139 211 q 113 229 126 229 l 15 229 q -6 238 0 229 q -7 261 -12 247 l 61 446 q 79 467 67 458 q 107 476 92 476 l 207 476 q 233 485 221 476 q 251 508 246 494 l 260 532 q 259 553 265 544 q 239 563 253 563 l 142 563 q 121 572 126 563 q 121 593 115 581 l 190 765 q 208 787 196 778 q 236 796 221 796 l 333 796 q 360 805 347 796 q 378 828 374 814 q 410 909 393 867 q 442 988 426 951 q 460 1009 447 1000 q 488 1018 472 1018 l 672 1018 q 692 1009 686 1018 q 693 988 699 1000 l 631 828 q 632 805 626 814 q 653 796 638 796 l 693 796 q 720 805 707 796 q 739 826 733 814 q 771 908 754 867 q 803 988 788 950 q 821 1009 808 1000 q 849 1018 833 1018 l 1035 1018 q 1055 1009 1049 1018 q 1056 988 1061 1000 l 992 828 q 992 805 986 814 q 1013 796 997 796 l 1115 796 q 1135 787 1129 796 q 1136 765 1142 778 l 1068 594 q 1049 572 1063 581 q 1022 563 1036 563 l 918 563 q 890 553 903 563 q 874 532 878 544 l 865 508 q 866 485 860 494 q 888 476 872 476 l 988 476 q 1008 467 1001 476 q 1008 446 1014 458 l 939 261 q 922 238 935 247 q 894 229 908 229 m 607 572 l 557 572 q 524 561 540 572 q 501 535 508 550 l 490 506 q 492 478 485 489 q 518 467 500 467 l 569 467 q 602 478 586 467 q 624 506 618 489 l 635 535 q 632 561 640 550 q 607 572 624 572 z "},"£":{"ha":854,"x_min":40,"x_max":831,"o":"m 407 358 q 402 315 406 335 q 394 279 399 296 q 396 256 390 265 q 417 247 401 247 l 756 247 q 779 238 769 247 q 789 214 789 229 l 789 33 q 779 10 789 19 q 756 0 769 0 l 74 0 q 49 10 58 0 q 40 33 40 19 l 40 194 q 49 223 40 210 q 69 243 58 236 q 122 292 101 263 q 146 358 143 321 q 137 383 147 374 q 113 392 126 392 l 76 392 q 52 401 61 392 q 43 425 43 411 l 43 576 q 52 601 43 592 q 76 610 61 610 l 79 610 q 102 618 93 610 q 110 638 111 626 l 107 664 q 120 815 100 747 q 186 931 140 883 q 302 1006 232 979 q 465 1032 372 1032 q 605 1007 544 1032 q 710 942 665 982 q 783 850 754 901 q 828 744 813 799 q 824 718 831 731 q 804 701 817 706 l 628 647 q 602 651 614 644 q 586 669 590 657 q 537 750 568 718 q 465 782 506 782 q 408 771 429 782 q 378 741 388 760 q 369 697 369 722 q 374 643 369 671 q 388 619 376 629 q 414 610 399 610 l 619 610 q 643 601 633 610 q 653 576 653 592 l 653 425 q 643 401 653 411 q 619 392 633 392 l 442 392 q 417 383 426 392 q 407 358 408 374 z "},"'":{"ha":319,"x_min":14,"x_max":288,"o":"m 228 656 l 75 656 q 51 665 61 656 q 39 689 40 675 l 15 996 q 23 1019 14 1010 q 46 1029 32 1029 l 256 1029 q 278 1019 269 1029 q 286 996 288 1010 l 264 689 q 252 665 263 675 q 228 656 242 656 z "},"<":{"ha":768,"x_min":35,"x_max":693,"o":"m 693 892 l 693 668 q 684 641 693 654 q 663 622 675 628 l 422 518 q 408 504 408 511 q 422 492 408 497 l 661 389 q 684 369 675 382 q 693 342 693 356 l 693 117 q 684 97 693 103 q 663 97 675 92 l 64 379 q 43 399 51 386 q 35 426 35 413 l 35 583 q 43 611 35 597 q 64 631 51 625 l 663 911 q 684 912 675 918 q 693 892 693 906 z "},">":{"ha":768,"x_min":35,"x_max":693,"o":"m 693 583 l 693 426 q 684 399 693 413 q 663 379 675 386 l 65 97 q 44 97 53 92 q 35 117 35 103 l 35 342 q 44 369 35 356 q 65 389 53 382 l 304 492 q 317 504 317 497 q 304 518 317 511 l 65 622 q 44 641 53 628 q 35 668 35 654 l 35 892 q 44 912 35 906 q 65 911 53 918 l 663 631 q 684 611 675 625 q 693 583 693 597 z "},":":{"ha":331,"x_min":19,"x_max":304,"o":"m 161 344 q 106 356 132 344 q 60 386 79 367 q 31 431 42 406 q 19 486 19 457 q 31 542 19 515 q 60 588 42 568 q 106 618 79 607 q 161 629 132 629 q 217 618 190 629 q 263 588 243 607 q 293 542 282 568 q 304 486 304 515 q 293 431 304 457 q 263 386 282 406 q 217 356 243 367 q 161 344 190 344 m 161 -10 q 106 1 132 -10 q 60 32 79 13 q 31 78 42 51 q 19 133 19 104 q 31 188 19 163 q 60 232 42 213 q 106 263 79 251 q 161 274 132 274 q 217 263 190 274 q 263 232 243 251 q 293 188 282 213 q 304 133 304 163 q 293 78 304 104 q 263 32 282 51 q 217 1 243 13 q 161 -10 190 -10 z "},";":{"ha":343,"x_min":21,"x_max":315,"o":"m 108 -175 q 80 -176 94 -181 q 57 -160 65 -171 l 32 -124 q 26 -99 24 -112 q 38 -75 28 -85 q 65 -47 53 -61 q 88 -19 78 -33 q 91 3 96 -8 q 75 22 86 14 q 39 65 51 38 q 24 125 26 93 q 61 226 21 185 q 160 269 101 267 q 224 258 194 271 q 273 222 253 244 q 304 168 293 199 q 315 103 315 138 q 264 -60 315 11 q 108 -175 213 -132 m 165 344 q 110 356 136 344 q 65 386 83 367 q 35 431 46 406 q 24 486 24 457 q 35 542 24 515 q 65 588 46 568 q 110 618 83 607 q 165 629 136 629 q 221 618 194 629 q 267 588 247 607 q 297 542 286 568 q 308 486 308 515 q 297 431 308 457 q 267 386 286 406 q 221 356 247 367 q 165 344 194 344 z "},"”":{"ha":674,"x_min":28,"x_max":649,"o":"m 114 613 q 86 612 101 607 q 64 628 71 617 l 39 664 q 32 689 31 675 q 44 713 33 703 q 72 740 60 726 q 94 768 85 754 q 98 790 103 779 q 82 810 93 801 q 44 853 57 825 q 31 913 32 881 q 68 1013 28 972 q 167 1057 108 1054 q 231 1045 201 1058 q 280 1009 260 1032 q 311 956 300 986 q 322 890 322 925 q 270 727 322 799 q 114 613 218 656 m 440 613 q 413 612 428 607 q 390 628 397 617 l 364 664 q 358 689 357 675 q 371 713 360 703 q 399 740 386 726 q 421 768 411 754 q 424 790 429 779 q 408 810 419 801 q 371 853 383 825 q 357 913 358 881 q 394 1013 354 972 q 493 1057 435 1054 q 557 1045 528 1058 q 606 1009 586 1032 q 638 956 626 986 q 649 890 649 925 q 597 727 649 799 q 440 613 544 656 z "},"“":{"ha":674,"x_min":19,"x_max":640,"o":"m 228 1050 q 256 1051 240 1056 q 278 1035 271 1046 l 304 999 q 310 974 311 988 q 297 950 308 960 q 270 921 282 935 q 247 894 258 907 q 244 872 239 883 q 260 853 249 860 q 297 809 285 838 q 311 749 310 781 q 274 648 314 689 q 175 604 233 607 q 110 616 139 603 q 62 652 82 629 q 31 706 42 675 q 19 771 19 736 q 72 935 19 863 q 228 1050 124 1007 m 554 1050 q 582 1051 567 1056 q 604 1035 597 1046 l 631 999 q 636 974 638 988 q 624 950 635 960 q 597 921 608 935 q 574 894 585 907 q 570 872 565 883 q 586 853 575 860 q 624 809 611 838 q 638 749 636 781 q 600 648 640 689 q 501 604 560 607 q 437 616 465 603 q 388 652 408 629 q 357 706 368 675 q 346 771 346 736 q 398 935 346 863 q 554 1050 450 1007 z "},"‘":{"ha":342,"x_min":21,"x_max":315,"o":"m 228 1050 q 256 1051 242 1056 q 279 1035 271 1046 l 304 999 q 311 974 313 988 q 299 950 310 960 q 271 921 283 935 q 249 894 258 907 q 245 872 240 883 q 261 853 250 860 q 297 809 285 838 q 313 749 310 781 q 275 648 315 689 q 176 604 235 607 q 112 616 140 603 q 63 652 83 629 q 32 706 43 675 q 21 771 21 736 q 72 935 21 863 q 228 1050 124 1007 z "},"’":{"ha":342,"x_min":28,"x_max":322,"o":"m 115 613 q 88 612 103 607 q 64 628 72 617 l 39 664 q 33 689 32 675 q 46 713 35 703 q 73 740 61 726 q 96 768 85 754 q 99 790 104 779 q 82 810 93 801 q 46 853 58 825 q 31 913 33 881 q 68 1013 28 972 q 167 1057 108 1054 q 231 1045 201 1058 q 280 1009 260 1032 q 311 956 300 986 q 322 890 322 925 q 271 727 322 799 q 115 613 219 656 z "},"–":{"ha":686,"x_min":17,"x_max":636,"o":"m 603 394 l 50 394 q 26 404 36 394 q 17 428 17 414 l 17 615 q 26 639 17 629 q 50 649 36 649 l 603 649 q 626 639 617 649 q 636 615 636 629 l 636 428 q 626 404 636 414 q 603 394 617 394 z "},"—":{"ha":1022,"x_min":24,"x_max":943,"o":"m 910 394 l 57 394 q 33 404 42 394 q 24 428 24 414 l 24 615 q 33 639 24 629 q 57 649 42 649 l 910 649 q 933 639 924 649 q 943 615 943 629 l 943 428 q 933 404 943 414 q 910 394 924 394 z "},"_":{"ha":878,"x_min":38,"x_max":832,"o":"m 799 -154 l 71 -154 q 47 -144 57 -154 q 38 -121 38 -135 l 38 67 q 47 90 38 81 q 71 100 57 100 l 799 100 q 823 90 814 100 q 832 67 832 81 l 832 -121 q 823 -144 832 -135 q 799 -154 814 -154 z "},"~":{"ha":797,"x_min":7,"x_max":744,"o":"m 214 446 q 192 429 204 435 q 165 428 179 424 l 33 472 q 13 490 19 478 q 13 515 7 503 q 44 579 25 546 q 92 640 64 613 q 157 684 121 667 q 239 701 193 701 q 322 685 290 701 q 386 651 353 669 q 468 638 431 628 q 526 675 506 649 q 547 692 535 686 q 574 694 560 699 l 717 649 q 738 633 731 644 q 740 607 744 621 q 708 541 729 575 q 658 478 688 507 q 590 431 629 450 q 506 413 551 413 q 456 415 476 413 q 418 422 435 418 q 388 433 401 426 q 357 450 374 440 q 272 474 310 478 q 214 446 235 469 z "},"˜":{"ha":657,"x_min":13,"x_max":636,"o":"m 163 969 l 40 1003 q 19 1018 26 1006 q 17 1043 13 1031 q 42 1111 26 1076 q 79 1175 57 1146 q 132 1223 101 1204 q 204 1243 163 1242 q 287 1224 253 1244 q 348 1187 321 1204 q 398 1167 375 1169 q 447 1201 421 1165 q 469 1217 456 1213 q 496 1218 483 1222 l 610 1176 q 630 1158 624 1171 q 632 1132 636 1146 q 601 1063 619 1096 q 557 1006 582 1031 q 500 966 532 981 q 429 954 468 951 q 361 977 390 957 q 307 1013 332 997 q 260 1028 282 1029 q 213 990 238 1028 q 190 973 204 979 q 163 969 176 967 z "},"\\":{"ha":685,"x_min":-49,"x_max":700,"o":"m -22 1144 l 185 1144 q 212 1135 199 1144 q 231 1114 225 1126 l 696 -140 q 694 -162 700 -153 q 674 -172 688 -172 l 465 -172 q 438 -162 451 -172 q 421 -140 425 -153 l -43 1114 q -42 1135 -49 1126 q -22 1144 -36 1144 z "},"®":{"ha":1079,"x_min":8,"x_max":1051,"o":"m 8 507 q 49 710 8 615 q 161 876 90 806 q 326 988 232 947 q 529 1029 421 1029 q 733 988 638 1029 q 899 876 828 947 q 1010 710 969 806 q 1051 507 1051 615 q 1010 304 1051 399 q 899 139 969 210 q 733 27 828 68 q 529 -14 638 -14 q 326 27 421 -14 q 161 139 232 68 q 49 304 90 210 q 8 507 8 399 m 132 507 q 163 353 132 425 q 249 226 194 281 q 375 141 303 172 q 529 110 447 110 q 683 141 611 110 q 810 226 756 172 q 895 353 864 281 q 926 507 926 425 q 895 662 926 589 q 810 789 864 735 q 683 874 756 843 q 529 906 611 906 q 375 874 447 906 q 249 789 303 843 q 163 662 194 735 q 132 507 132 589 m 332 294 l 332 750 q 337 762 332 757 q 349 767 342 767 l 564 767 q 697 715 646 767 q 747 581 747 664 q 690 443 747 497 q 684 432 685 439 q 688 419 683 425 l 781 292 q 783 282 785 286 q 774 278 781 278 l 614 278 q 599 282 607 278 q 589 292 592 286 q 555 337 574 314 q 519 382 536 360 q 499 394 510 394 q 488 378 488 394 l 488 294 q 483 283 488 288 q 471 278 478 278 l 349 278 q 337 283 342 278 q 332 294 332 288 m 504 549 l 564 549 q 582 555 568 549 q 596 581 596 561 q 585 606 596 599 q 564 613 574 613 l 504 613 q 492 608 497 613 q 488 596 488 603 l 488 565 q 492 553 488 558 q 504 549 497 549 z "},"°":{"ha":467,"x_min":13,"x_max":429,"o":"m 222 757 q 141 774 179 757 q 74 819 103 790 q 29 885 46 847 q 13 967 13 924 q 29 1048 13 1010 q 74 1115 46 1086 q 141 1160 103 1143 q 222 1176 179 1176 q 303 1160 265 1176 q 369 1115 340 1143 q 413 1048 397 1086 q 429 967 429 1010 q 413 885 429 924 q 369 819 397 847 q 303 774 340 790 q 222 757 265 757 m 147 967 q 169 913 147 935 q 224 890 192 890 q 278 913 256 890 q 300 967 300 935 q 278 1021 300 999 q 224 1043 256 1043 q 169 1021 192 1043 q 147 967 147 999 z "},"•":{"ha":503,"x_min":47,"x_max":431,"o":"m 47 557 q 63 631 47 596 q 103 692 78 667 q 164 733 129 718 q 239 749 199 749 q 313 733 278 749 q 374 692 349 718 q 415 631 400 667 q 431 557 431 596 q 415 482 431 517 q 374 422 400 447 q 313 381 349 396 q 239 365 278 365 q 164 381 199 365 q 103 422 129 396 q 63 482 78 447 q 47 557 47 517 z "},"†":{"ha":671,"x_min":-6,"x_max":644,"o":"m 611 496 l 474 496 q 449 486 458 496 q 440 463 440 476 l 440 -42 q 431 -65 440 -56 q 407 -75 421 -75 l 232 -75 q 208 -65 217 -75 q 199 -42 199 -56 l 199 463 q 189 486 199 476 q 165 496 179 496 l 28 496 q 3 506 13 496 q -6 529 -6 515 l -6 704 q 3 728 -6 718 q 28 738 13 738 l 165 738 q 189 747 179 738 q 199 771 199 757 l 199 943 q 208 967 199 957 q 232 976 217 976 l 407 976 q 431 967 421 976 q 440 943 440 957 l 440 771 q 449 747 440 757 q 474 738 458 738 l 611 738 q 635 728 625 738 q 644 704 644 718 l 644 529 q 635 506 644 515 q 611 496 625 496 z "},"™":{"ha":1201,"x_min":39,"x_max":1129,"o":"m 72 1018 l 494 1018 q 518 1008 508 1018 q 528 985 528 999 l 528 842 q 518 818 528 828 q 494 808 508 808 l 424 808 q 400 799 410 808 q 390 775 390 789 l 390 489 q 381 465 390 475 q 357 456 372 456 l 210 456 q 186 465 196 456 q 176 489 176 475 l 176 775 q 167 799 176 789 q 143 808 158 808 l 72 808 q 49 818 58 808 q 39 842 39 828 l 39 985 q 49 1008 39 999 q 72 1018 58 1018 m 1129 985 l 1129 489 q 1119 465 1129 475 q 1096 456 1110 456 l 960 456 q 936 465 946 456 q 926 489 926 475 l 926 557 q 907 564 926 588 l 868 507 q 849 496 860 496 q 831 507 838 496 l 792 564 q 778 574 783 575 q 772 558 772 572 l 772 489 q 763 465 772 475 q 739 456 753 456 l 601 456 q 578 465 588 456 q 568 489 568 475 l 568 985 q 578 1008 568 999 q 601 1018 588 1018 l 678 1018 q 706 1010 692 1018 q 728 989 721 1001 l 833 800 q 850 789 840 789 q 867 800 860 789 l 971 989 q 992 1010 978 1001 q 1019 1018 1006 1018 l 1096 1018 q 1119 1008 1110 1018 q 1129 985 1129 999 z "},"\"":{"ha":661,"x_min":18,"x_max":613,"o":"m 232 656 l 79 656 q 55 665 65 656 q 43 689 44 675 l 19 996 q 27 1019 18 1010 q 50 1029 36 1029 l 260 1029 q 283 1019 274 1029 q 290 996 292 1010 l 268 689 q 256 665 267 675 q 232 656 246 656 m 551 656 l 399 656 q 374 665 385 656 q 363 689 364 675 l 342 996 q 349 1019 340 1010 q 372 1029 358 1029 l 581 1029 q 603 1019 594 1029 q 611 996 613 1010 l 588 689 q 576 665 586 675 q 551 656 565 656 z "},"|":{"ha":397,"x_min":75,"x_max":301,"o":"m 268 -133 l 108 -133 q 85 -124 94 -133 q 75 -100 75 -114 l 75 1114 q 85 1138 75 1128 q 108 1147 94 1147 l 268 1147 q 292 1138 283 1147 q 301 1114 301 1128 l 301 -100 q 292 -124 301 -114 q 268 -133 283 -133 z "},"Æ":{"ha":1475,"x_min":-57,"x_max":1332,"o":"m 833 726 l 833 671 q 843 647 833 657 q 867 638 853 638 l 1243 638 q 1267 628 1258 638 q 1276 604 1276 618 l 1276 411 q 1267 388 1276 397 q 1243 378 1258 378 l 867 378 q 843 368 853 378 q 833 344 833 358 l 833 293 q 843 269 833 279 q 867 260 853 260 l 1299 260 q 1323 250 1314 260 q 1332 226 1332 240 l 1332 33 q 1323 10 1332 19 q 1299 0 1314 0 l 590 0 q 567 10 576 0 q 557 33 557 19 l 557 121 q 548 144 557 135 q 524 154 539 154 l 378 154 q 349 146 364 154 q 326 126 333 138 q 294 77 311 103 q 263 28 278 51 q 240 8 254 17 q 210 0 225 0 l -35 0 q -53 12 -49 0 q -50 35 -57 24 l 579 990 q 601 1010 586 1001 q 631 1018 617 1018 l 1299 1018 q 1323 1008 1314 1018 q 1332 985 1332 999 l 1332 793 q 1323 769 1332 779 q 1299 760 1314 760 l 867 760 q 843 750 853 760 q 833 726 833 740 m 481 422 q 476 399 474 408 q 507 389 479 389 l 528 389 q 561 418 561 389 l 561 511 q 553 523 561 521 q 539 515 546 525 l 481 422 z "},"%":{"ha":1393,"x_min":24,"x_max":1367,"o":"m 24 717 q 45 840 24 783 q 105 937 67 896 q 195 1001 143 978 q 308 1024 247 1024 q 422 1001 369 1024 q 511 937 474 978 q 570 840 549 896 q 592 717 592 783 q 570 595 592 651 q 510 498 549 539 q 420 434 472 457 q 308 411 368 411 q 195 434 247 411 q 105 498 143 457 q 45 594 67 539 q 24 717 24 650 m 272 717 q 273 697 272 713 q 278 667 274 682 q 289 639 282 651 q 308 626 296 626 q 325 635 318 626 q 336 658 332 644 q 342 687 340 671 q 344 717 344 703 q 342 744 344 729 q 336 774 340 760 q 325 797 332 788 q 308 806 318 806 q 289 794 296 806 q 278 767 282 782 q 273 738 274 753 q 272 717 272 722 m 294 29 l 868 990 q 890 1010 875 1001 q 918 1018 904 1018 l 1082 1018 q 1101 1010 1096 1018 q 1099 990 1106 1001 l 526 29 q 505 8 519 17 q 476 0 490 0 l 311 0 q 292 8 297 0 q 294 29 288 17 m 799 288 q 820 410 799 354 q 880 506 842 465 q 970 570 918 547 q 1083 593 1022 593 q 1197 570 1144 593 q 1286 506 1249 547 q 1345 410 1324 465 q 1367 288 1367 354 q 1345 166 1367 222 q 1285 69 1324 110 q 1195 4 1247 28 q 1083 -19 1143 -19 q 970 3 1022 -19 q 880 67 918 26 q 820 165 842 108 q 799 288 799 221 m 1047 288 q 1048 268 1047 283 q 1053 238 1049 253 q 1064 210 1057 222 q 1083 197 1071 197 q 1100 206 1093 197 q 1111 228 1107 215 q 1117 258 1115 242 q 1119 288 1119 274 q 1117 316 1119 300 q 1111 345 1115 332 q 1100 368 1107 358 q 1083 378 1093 378 q 1064 366 1071 378 q 1053 339 1057 354 q 1048 308 1049 324 q 1047 288 1047 293 z "},"`":{"ha":456,"x_min":-15,"x_max":465,"o":"m 444 965 l 268 965 q 237 972 254 965 q 208 986 219 978 l 8 1135 q 13 1168 -15 1154 l 213 1254 q 240 1256 225 1260 q 264 1240 256 1251 l 457 992 q 462 973 465 981 q 444 965 458 965 z "},"‰":{"ha":2022,"x_min":25,"x_max":1975,"o":"m 25 717 q 47 840 25 783 q 106 937 68 896 q 197 1001 144 978 q 310 1024 249 1024 q 423 1001 371 1024 q 513 937 475 978 q 572 840 550 896 q 593 717 593 783 q 572 595 593 651 q 512 498 550 539 q 422 434 474 457 q 310 411 369 411 q 197 434 249 411 q 106 498 144 457 q 47 594 68 539 q 25 717 25 650 m 274 717 q 274 697 274 713 q 279 667 275 682 q 290 639 283 651 q 310 626 297 626 q 326 635 319 626 q 338 658 333 644 q 344 687 342 671 q 346 717 346 703 q 344 744 346 729 q 338 774 342 760 q 326 797 333 788 q 310 806 319 806 q 290 794 297 806 q 279 767 283 782 q 274 738 275 753 q 274 717 274 722 m 296 29 l 868 990 q 890 1010 875 1001 q 919 1018 904 1018 l 1083 1018 q 1101 1010 1097 1018 q 1099 990 1106 1001 l 528 29 q 506 8 521 17 q 478 0 492 0 l 313 0 q 293 8 297 0 q 296 29 289 17 m 800 288 q 822 410 800 354 q 881 506 843 465 q 972 570 919 547 q 1085 593 1024 593 q 1198 570 1146 593 q 1288 506 1250 547 q 1347 410 1325 465 q 1368 288 1368 354 q 1347 166 1368 222 q 1287 69 1325 110 q 1197 4 1249 28 q 1085 -19 1144 -19 q 972 3 1024 -19 q 881 67 919 26 q 822 165 843 108 q 800 288 800 221 m 1049 288 q 1049 268 1049 283 q 1054 238 1050 253 q 1065 210 1058 222 q 1085 197 1072 197 q 1101 206 1094 197 q 1113 228 1108 215 q 1119 258 1117 242 q 1121 288 1121 274 q 1119 316 1121 300 q 1113 345 1117 332 q 1101 368 1108 358 q 1085 378 1094 378 q 1065 366 1072 378 q 1054 339 1058 354 q 1049 308 1050 324 q 1049 288 1049 293 m 1407 288 q 1428 410 1407 354 q 1488 506 1450 465 q 1578 570 1526 547 q 1692 593 1631 593 q 1805 570 1753 593 q 1894 506 1857 547 q 1953 410 1932 465 q 1975 288 1975 354 q 1953 166 1975 222 q 1894 69 1932 110 q 1803 4 1856 28 q 1692 -19 1751 -19 q 1578 3 1631 -19 q 1488 67 1526 26 q 1428 165 1450 108 q 1407 288 1407 221 m 1656 288 q 1656 268 1656 283 q 1661 238 1657 253 q 1672 210 1665 222 q 1692 197 1679 197 q 1708 206 1701 197 q 1719 228 1715 215 q 1726 258 1724 242 q 1728 288 1728 274 q 1726 316 1728 300 q 1719 345 1724 332 q 1708 368 1715 358 q 1692 378 1701 378 q 1672 366 1679 378 q 1661 339 1665 354 q 1656 308 1657 324 q 1656 288 1656 293 z "},"¥":{"ha":850,"x_min":-43,"x_max":849,"o":"m 646 589 l 715 589 q 739 579 729 589 q 749 556 749 569 l 749 436 q 739 413 749 422 q 715 403 729 403 l 574 403 q 550 394 560 403 q 540 372 540 385 q 550 349 540 358 q 574 340 560 340 l 715 340 q 739 331 729 340 q 749 307 749 322 l 749 192 q 739 167 749 176 q 715 158 729 158 l 574 158 q 550 149 560 158 q 540 125 540 139 l 540 33 q 531 10 540 19 q 507 0 521 0 l 300 0 q 276 10 285 0 q 267 33 267 19 l 267 125 q 257 149 267 139 q 233 158 247 158 l 103 158 q 79 167 89 158 q 69 192 69 176 l 69 307 q 79 331 69 322 q 103 340 89 340 l 233 340 q 257 349 247 340 q 267 372 267 358 q 257 394 267 385 q 233 403 247 403 l 103 403 q 79 413 89 403 q 69 436 69 422 l 69 556 q 79 579 69 569 q 103 589 89 589 l 161 589 q 180 597 175 589 q 178 617 185 606 l -36 983 q -37 1006 -43 996 q -18 1015 -32 1015 l 233 1015 q 261 1006 247 1015 q 282 986 275 997 l 388 793 q 403 782 394 782 q 419 793 413 782 l 524 986 q 545 1006 531 997 q 574 1015 560 1015 l 824 1015 q 844 1006 839 1015 q 842 983 849 996 l 629 617 q 627 597 622 606 q 646 589 632 589 z "},"‡":{"ha":694,"x_min":19,"x_max":669,"o":"m 53 392 l 190 392 q 215 401 206 392 q 224 425 224 411 l 224 476 q 215 501 224 492 q 190 510 206 510 l 53 510 q 29 519 39 510 q 19 543 19 529 l 19 704 q 29 728 19 719 q 53 738 39 738 l 190 738 q 215 747 206 738 q 224 771 224 757 l 224 943 q 233 967 224 958 q 257 976 243 976 l 432 976 q 456 967 447 976 q 465 943 465 958 l 465 771 q 475 747 465 757 q 499 738 485 738 l 636 738 q 660 728 651 738 q 669 704 669 719 l 669 543 q 660 519 669 529 q 636 510 651 510 l 499 510 q 475 501 485 510 q 465 476 465 492 l 465 425 q 475 401 465 411 q 499 392 485 392 l 636 392 q 660 383 651 392 q 669 358 669 374 l 669 197 q 660 174 669 183 q 636 164 651 164 l 499 164 q 475 155 485 164 q 465 131 465 146 l 465 -42 q 456 -65 465 -56 q 432 -75 447 -75 l 257 -75 q 233 -65 243 -75 q 224 -42 224 -56 l 224 131 q 215 155 224 146 q 190 164 206 164 l 53 164 q 29 174 39 164 q 19 197 19 183 l 19 358 q 29 383 19 374 q 53 392 39 392 z "},"‚":{"ha":340,"x_min":17,"x_max":307,"o":"m 100 -147 q 74 -146 88 -153 q 56 -126 61 -139 l 25 -54 q 24 -29 18 -42 q 42 -11 29 -17 q 51 -7 47 -8 q 60 -4 56 -6 q 63 26 85 7 q 18 125 22 61 q 26 181 17 154 q 55 228 36 208 q 99 260 74 249 q 154 274 125 272 q 248 244 208 276 q 300 160 288 213 q 306 133 304 147 q 307 103 307 118 q 293 27 307 65 q 253 -44 279 -11 q 189 -105 228 -78 q 100 -147 150 -132 z "},"≠":{"ha":781,"x_min":25,"x_max":703,"o":"m 515 507 l 511 499 q 510 477 504 486 q 531 468 517 468 l 671 468 q 694 458 685 468 q 703 435 703 449 l 703 254 q 694 231 703 240 q 671 221 685 221 l 404 221 q 376 213 390 221 q 356 192 363 204 l 324 124 q 303 103 317 111 q 275 94 289 94 l 50 94 q 31 103 36 94 q 32 124 25 111 l 67 192 q 71 213 74 204 q 57 221 68 221 q 40 231 47 221 q 33 254 33 240 l 33 435 q 43 458 33 449 q 67 468 53 468 l 174 468 q 201 477 188 468 q 222 499 215 486 l 226 507 q 227 528 233 519 q 207 538 221 538 l 67 538 q 43 547 53 538 q 33 571 33 557 l 33 751 q 43 775 33 765 q 67 785 53 785 l 322 785 q 350 793 336 785 q 369 814 364 801 q 388 849 379 832 q 404 882 396 867 q 425 903 411 894 q 453 911 439 911 l 675 911 q 694 903 689 911 q 693 882 700 894 l 661 814 q 659 793 654 801 q 675 785 664 785 q 694 775 686 785 q 703 751 703 765 l 703 571 q 694 547 703 557 q 671 538 685 538 l 564 538 q 535 528 549 538 q 515 507 522 519 z "},"ª":{"ha":506,"x_min":19,"x_max":478,"o":"m 463 574 q 453 550 463 560 q 429 540 443 540 l 322 540 q 305 543 308 540 q 301 550 301 546 q 293 554 301 558 q 271 546 285 550 q 228 536 253 540 q 178 532 204 532 q 126 539 151 532 q 82 561 101 546 q 40 618 53 583 q 28 690 28 653 q 44 763 26 733 q 88 808 61 792 q 147 833 115 825 q 208 840 179 840 q 239 841 226 842 q 261 839 251 840 q 283 843 275 838 q 282 860 290 849 q 215 882 264 882 q 146 874 175 882 q 99 860 117 867 q 74 856 86 853 q 57 872 63 860 l 26 942 q 24 969 19 954 q 39 992 28 985 q 74 1011 54 1001 q 115 1026 93 1021 q 242 1043 186 1043 q 350 1024 297 1043 q 415 981 392 1008 q 448 923 438 954 q 460 859 458 892 q 463 797 463 826 l 463 574 m 444 503 l 61 503 q 38 493 47 503 q 28 469 28 483 l 28 351 q 38 328 28 338 q 61 318 47 318 l 444 318 q 468 328 458 318 q 478 351 478 338 l 478 469 q 468 493 478 483 q 444 503 458 503 m 275 733 l 244 733 q 215 727 232 733 q 197 708 197 721 q 204 696 197 700 q 221 689 211 692 q 254 688 235 686 q 286 694 274 689 q 288 696 288 696 q 294 717 300 703 q 275 733 288 732 z "},"º":{"ha":549,"x_min":26,"x_max":521,"o":"m 26 785 q 46 881 26 836 q 99 960 65 926 q 176 1013 132 993 q 272 1032 221 1032 q 369 1013 324 1032 q 448 960 414 993 q 501 881 482 926 q 521 785 521 836 q 501 688 521 733 q 448 610 482 643 q 369 557 414 576 q 272 538 324 538 q 176 557 221 538 q 99 610 132 576 q 46 688 65 643 q 26 785 26 733 m 465 318 l 82 318 q 58 328 68 318 q 49 351 49 338 l 49 469 q 58 493 49 483 q 82 503 68 503 l 465 503 q 489 493 479 503 q 499 469 499 483 l 499 351 q 489 328 499 338 q 465 318 479 318 m 210 785 q 228 737 210 757 q 272 717 247 717 q 317 737 300 717 q 335 785 335 757 q 317 833 335 813 q 272 854 300 854 q 228 833 247 854 q 210 785 210 813 z "},"¡":{"ha":407,"x_min":43,"x_max":340,"o":"m 308 0 l 76 0 q 52 10 61 0 q 44 33 43 19 l 79 632 q 90 656 81 646 q 115 665 100 665 l 269 665 q 293 656 283 665 q 304 632 303 646 l 339 33 q 331 10 340 19 q 308 0 322 0 m 297 757 l 89 757 q 65 767 74 757 q 56 790 56 776 l 56 982 q 65 1006 56 996 q 89 1015 74 1015 l 297 1015 q 321 1006 311 1015 q 331 982 331 996 l 331 790 q 321 767 331 776 q 297 757 311 757 z "},"¿":{"ha":811,"x_min":19,"x_max":786,"o":"m 289 636 q 301 660 292 650 q 325 669 311 669 l 536 669 q 561 660 551 669 q 569 636 571 650 q 517 483 567 539 q 371 385 468 428 q 310 349 326 365 q 293 300 293 332 q 294 287 293 297 q 303 265 294 276 q 331 245 311 254 q 390 236 351 236 q 464 247 435 236 q 512 274 493 257 q 541 313 531 292 q 560 354 551 333 q 577 373 564 367 q 603 375 590 379 l 761 324 q 780 307 774 319 q 783 281 786 294 q 754 192 774 243 q 692 92 735 140 q 576 11 649 44 q 388 -22 504 -22 q 284 -12 329 -22 q 203 13 239 -3 q 143 48 168 29 q 101 86 118 67 q 41 176 63 129 q 19 279 19 222 q 38 397 19 351 q 83 469 56 442 q 143 512 110 496 q 206 543 176 528 q 259 578 236 558 q 289 636 282 599 m 568 985 l 568 793 q 559 769 568 779 q 535 760 550 760 l 326 760 q 303 769 313 760 q 293 793 293 779 l 293 985 q 303 1008 293 999 q 326 1018 313 1018 l 535 1018 q 559 1008 550 1018 q 568 985 568 999 z "},"…":{"ha":1010,"x_min":36,"x_max":972,"o":"m 321 133 q 310 78 321 104 q 279 32 299 51 q 233 1 260 13 q 178 -10 207 -10 q 123 1 149 -10 q 78 32 97 13 q 47 78 58 51 q 36 133 36 104 q 47 188 36 163 q 78 232 58 213 q 123 263 97 251 q 178 274 149 274 q 233 263 207 274 q 279 232 260 251 q 310 188 299 213 q 321 133 321 163 m 647 133 q 636 78 647 104 q 606 32 625 51 q 560 1 586 13 q 504 -10 533 -10 q 449 1 475 -10 q 404 32 424 13 q 374 78 385 51 q 363 133 363 104 q 374 188 363 163 q 404 232 385 213 q 449 263 424 251 q 504 274 475 274 q 560 263 533 274 q 606 232 586 251 q 636 188 625 213 q 647 133 647 163 m 972 133 q 961 78 972 104 q 931 32 950 51 q 885 1 911 13 q 829 -10 858 -10 q 775 1 800 -10 q 731 32 750 13 q 700 78 711 51 q 689 133 689 104 q 700 188 689 163 q 731 232 711 213 q 775 263 750 251 q 829 274 800 274 q 885 263 858 274 q 931 232 911 251 q 961 188 950 213 q 972 133 972 163 z "},"⁄":{"ha":735,"x_min":-60,"x_max":757,"o":"m -53 29 l 519 990 q 541 1010 526 1001 q 571 1018 556 1018 l 735 1018 q 753 1010 749 1018 q 750 990 757 1001 l 179 29 q 158 8 172 17 q 129 0 143 0 l -36 0 q -56 8 -51 0 q -53 29 -60 17 z "},"Œ":{"ha":1611,"x_min":42,"x_max":1458,"o":"m 960 726 l 960 665 q 969 642 960 651 q 993 632 978 632 l 1369 632 q 1393 622 1383 632 q 1403 599 1403 613 l 1403 407 q 1393 383 1403 393 q 1369 374 1383 374 l 993 374 q 969 364 978 374 q 960 340 960 354 l 960 292 q 969 268 960 278 q 993 258 978 258 l 1425 258 q 1449 249 1439 258 q 1458 225 1458 239 l 1458 33 q 1449 10 1458 19 q 1425 0 1439 0 l 732 0 q 698 -2 717 0 q 665 -7 679 -4 q 567 -18 614 -18 q 363 24 458 -18 q 195 137 267 65 q 83 304 124 208 q 42 508 42 400 q 83 713 42 617 q 195 880 124 808 q 363 993 267 951 q 567 1035 458 1035 q 617 1032 592 1035 q 665 1025 642 1029 q 698 1019 679 1022 q 732 1017 717 1017 l 1425 1017 q 1449 1007 1439 1017 q 1458 983 1458 997 l 1458 793 q 1449 769 1458 779 q 1425 760 1439 760 l 993 760 q 969 750 978 760 q 960 726 960 740 m 685 313 l 685 704 q 677 734 685 718 q 657 757 669 750 q 618 772 640 767 q 567 778 596 778 q 469 760 514 778 q 390 709 424 743 q 336 624 356 675 q 317 508 317 574 q 336 396 317 446 q 390 311 356 346 q 469 258 424 276 q 567 239 514 239 q 619 245 597 239 q 657 260 642 251 q 677 283 669 267 q 685 313 685 299 z "},"^":{"ha":840,"x_min":17,"x_max":797,"o":"m 501 497 l 419 682 q 406 694 414 694 q 393 682 399 694 l 311 497 q 292 476 306 485 q 265 467 279 467 l 43 467 q 22 476 28 467 q 24 497 17 485 l 269 996 q 290 1017 276 1008 q 318 1025 303 1025 l 497 1025 q 524 1017 511 1025 q 544 996 538 1008 l 790 497 q 792 476 797 485 q 772 467 786 467 l 549 467 q 520 476 533 467 q 501 497 507 485 z "},"„":{"ha":692,"x_min":28,"x_max":649,"o":"m 114 -160 q 86 -160 101 -165 q 64 -144 71 -156 l 39 -108 q 32 -83 31 -97 q 44 -60 33 -69 q 72 -32 60 -46 q 94 -4 85 -18 q 98 18 103 7 q 82 38 93 29 q 44 81 57 53 q 31 140 32 108 q 68 241 28 200 q 167 285 108 282 q 231 273 201 286 q 280 237 260 260 q 311 183 300 214 q 322 118 322 153 q 270 -45 322 26 q 114 -160 218 -117 m 440 -160 q 413 -160 428 -165 q 390 -144 397 -156 l 364 -108 q 358 -83 357 -97 q 371 -60 360 -69 q 399 -32 386 -46 q 421 -4 411 -18 q 424 18 429 7 q 408 38 419 29 q 371 81 383 53 q 357 140 358 108 q 394 241 354 200 q 493 285 435 282 q 557 273 528 286 q 606 237 586 260 q 638 183 626 214 q 649 118 649 153 q 597 -45 649 26 q 440 -160 544 -117 z "},"·":{"ha":322,"x_min":15,"x_max":300,"o":"m 300 571 q 289 515 300 542 q 258 469 278 489 q 213 439 239 450 q 157 428 186 428 q 102 439 128 428 q 57 469 76 450 q 26 515 38 489 q 15 571 15 542 q 26 626 15 600 q 57 671 38 651 q 102 701 76 690 q 157 713 128 713 q 213 701 186 713 q 258 671 239 690 q 289 626 278 651 q 300 571 300 600 z "},"±":{"ha":763,"x_min":47,"x_max":671,"o":"m 671 714 l 671 528 q 661 504 671 514 q 638 494 651 494 l 532 494 q 508 485 518 494 q 499 461 499 476 l 499 338 q 489 314 499 324 q 465 304 479 304 l 254 304 q 231 314 240 304 q 221 338 221 324 l 221 461 q 211 485 221 476 q 188 494 201 494 l 81 494 q 57 504 67 494 q 47 528 47 514 l 47 714 q 57 738 47 729 q 81 747 67 747 l 188 747 q 211 757 201 747 q 221 781 221 767 l 221 906 q 231 930 221 921 q 254 939 240 939 l 465 939 q 489 930 479 939 q 499 906 499 921 l 499 781 q 508 757 499 767 q 532 747 518 747 l 638 747 q 661 738 651 747 q 671 714 671 729 m 47 33 l 47 221 q 57 245 47 236 q 81 254 67 254 l 638 254 q 661 245 651 254 q 671 221 671 236 l 671 33 q 661 10 671 19 q 638 0 651 0 l 81 0 q 57 10 67 0 q 47 33 47 19 z "},"≤":{"ha":722,"x_min":29,"x_max":651,"o":"m 29 33 l 29 221 q 39 244 29 235 q 63 254 49 254 l 618 254 q 642 244 633 254 q 651 221 651 235 l 651 33 q 642 10 651 19 q 618 0 633 0 l 63 0 q 39 10 49 0 q 29 33 29 19 m 61 782 l 619 1046 q 640 1047 632 1053 q 649 1026 649 1040 l 649 789 q 640 763 649 775 q 617 746 631 750 l 406 685 q 393 675 393 681 q 407 667 393 669 l 617 610 q 640 593 631 606 q 649 567 649 581 l 649 326 q 618 307 649 296 l 61 556 q 40 576 49 563 q 31 603 31 589 l 31 735 q 40 763 31 749 q 61 782 49 776 z "},"≥":{"ha":722,"x_min":29,"x_max":651,"o":"m 618 0 l 63 0 q 39 10 49 0 q 29 33 29 19 l 29 221 q 39 244 29 235 q 63 254 49 254 l 618 254 q 642 244 633 254 q 651 221 651 235 l 651 33 q 642 10 651 19 q 618 0 633 0 m 650 735 l 650 603 q 642 576 650 589 q 621 556 633 563 l 63 307 q 41 307 50 301 q 32 326 32 313 l 32 567 q 42 593 32 581 q 65 610 51 606 l 275 667 q 289 675 289 669 q 275 685 289 681 l 65 746 q 42 763 51 750 q 32 789 32 775 l 32 1026 q 41 1047 32 1040 q 63 1046 50 1053 l 621 782 q 642 763 633 776 q 650 735 650 749 z "},"»":{"ha":954,"x_min":39,"x_max":910,"o":"m 46 199 l 239 485 q 247 512 247 496 q 239 539 247 528 l 50 825 q 47 844 43 836 q 65 853 51 853 l 297 853 q 326 844 311 853 q 349 825 342 836 l 532 540 q 539 512 539 529 q 532 483 539 494 l 350 200 q 328 180 343 189 q 299 171 313 171 l 61 171 q 43 179 47 171 q 46 199 39 188 m 419 199 l 613 483 q 621 510 621 494 q 614 539 621 526 l 424 825 q 421 844 417 836 q 439 853 425 853 l 669 853 q 699 844 683 853 q 721 825 714 836 l 903 539 q 910 510 910 528 q 903 482 910 493 l 722 200 q 700 180 715 189 q 671 171 685 171 l 435 171 q 417 179 421 171 q 419 199 413 188 z "},"«":{"ha":954,"x_min":43,"x_max":914,"o":"m 231 200 l 50 482 q 43 510 43 493 q 50 539 43 528 l 232 825 q 254 844 239 836 q 283 853 269 853 l 514 853 q 532 844 528 853 q 529 825 536 836 l 339 539 q 332 510 332 526 q 340 483 332 494 l 533 199 q 536 179 540 188 q 518 171 532 171 l 282 171 q 253 180 268 171 q 231 200 238 189 m 603 200 l 421 483 q 414 512 414 494 q 421 540 414 529 l 604 825 q 626 844 611 836 q 656 853 642 853 l 888 853 q 906 844 901 853 q 903 825 910 836 l 713 539 q 706 512 706 528 q 714 485 706 496 l 907 199 q 910 179 914 188 q 892 171 906 171 l 654 171 q 625 180 640 171 q 603 200 610 189 z "},"‹":{"ha":564,"x_min":29,"x_max":526,"o":"m 504 171 l 268 171 q 240 179 254 171 q 217 199 225 188 l 36 482 q 29 510 29 493 q 36 539 29 526 l 218 825 q 240 844 225 836 q 268 853 254 853 l 501 853 q 521 844 517 853 q 517 825 525 836 q 473 758 497 794 q 424 685 449 722 q 374 610 399 647 q 328 539 350 572 q 319 511 319 528 q 328 483 319 494 l 519 199 q 523 179 526 188 q 504 171 519 171 z "},"›":{"ha":563,"x_min":33,"x_max":531,"o":"m 40 199 l 233 483 q 240 511 240 494 q 233 539 240 528 q 186 610 211 572 q 136 685 161 647 q 87 758 111 722 q 43 825 63 794 q 40 844 36 836 q 58 853 44 853 l 292 853 q 321 844 306 853 q 343 825 336 836 l 524 539 q 531 510 531 526 q 524 482 531 493 l 343 199 q 321 179 336 188 q 292 171 306 171 l 56 171 q 38 179 42 171 q 40 199 33 188 z "},"¶":{"ha":756,"x_min":19,"x_max":704,"o":"m 218 406 q 140 432 176 411 q 77 488 104 453 q 35 569 50 522 q 19 676 19 617 q 32 795 19 735 q 84 906 44 856 q 199 987 124 956 q 400 1018 274 1018 l 671 1018 q 694 1009 685 1018 q 704 985 704 1000 l 704 33 q 694 10 704 19 q 671 0 685 0 l 546 0 q 522 10 532 0 q 513 33 513 19 l 513 824 q 503 848 513 839 q 479 857 493 857 l 472 857 q 449 848 458 857 q 439 824 439 839 l 439 33 q 429 10 439 19 q 406 0 419 0 l 285 0 q 261 10 271 0 q 251 33 251 19 l 251 369 q 242 394 251 385 q 218 406 232 403 z "},"¦":{"ha":397,"x_min":75,"x_max":301,"o":"m 108 1147 l 268 1147 q 292 1138 282 1147 q 301 1114 301 1129 l 301 594 q 292 571 301 581 q 268 561 282 561 l 108 561 q 84 571 93 561 q 75 594 75 581 l 75 1114 q 84 1138 75 1129 q 108 1147 93 1147 m 75 -100 l 75 418 q 84 442 75 433 q 108 451 93 451 l 268 451 q 292 442 282 451 q 301 418 301 433 l 301 -100 q 292 -124 301 -114 q 268 -133 282 -133 l 108 -133 q 84 -124 93 -133 q 75 -100 75 -114 z "},"ß":{"ha":1813,"x_min":26,"x_max":1768,"o":"m 189 349 q 338 272 264 300 q 475 244 411 244 q 568 262 536 244 q 600 314 600 279 q 586 342 600 332 q 549 360 572 353 q 496 371 526 367 q 433 382 465 375 q 362 395 403 388 q 278 417 321 403 q 192 454 235 432 q 117 511 150 476 q 63 594 83 546 q 43 707 43 642 q 81 865 43 803 q 176 965 118 928 q 304 1016 233 1001 q 442 1031 375 1031 q 651 997 558 1031 q 828 897 743 963 q 840 874 839 888 q 833 849 842 860 l 725 694 q 703 681 717 683 q 678 686 689 678 q 546 749 607 731 q 433 768 485 768 q 398 767 418 768 q 360 762 378 767 q 330 746 342 757 q 318 715 318 735 q 347 681 318 696 q 414 654 376 665 q 486 637 451 643 q 531 629 521 631 q 640 601 581 619 q 752 545 700 582 q 840 449 804 508 q 875 301 875 390 q 846 158 875 218 q 765 58 817 97 q 640 1 713 19 q 478 -18 567 -18 q 343 -6 406 -18 q 226 26 281 6 q 126 76 172 47 q 40 136 79 104 q 28 159 29 144 q 35 185 26 174 l 142 339 q 164 353 150 350 q 189 349 178 356 m 1082 349 q 1231 272 1157 300 q 1368 244 1304 244 q 1461 262 1429 244 q 1493 314 1493 279 q 1479 342 1493 332 q 1442 360 1465 353 q 1389 371 1419 367 q 1326 382 1358 375 q 1255 395 1296 388 q 1171 417 1214 403 q 1085 454 1128 432 q 1010 511 1043 476 q 956 594 976 546 q 936 707 936 642 q 974 865 936 803 q 1069 965 1011 928 q 1197 1016 1126 1001 q 1335 1031 1268 1031 q 1544 997 1451 1031 q 1721 897 1636 963 q 1733 874 1732 888 q 1726 849 1735 860 l 1618 694 q 1596 681 1610 683 q 1571 686 1582 678 q 1439 749 1500 731 q 1326 768 1378 768 q 1291 767 1311 768 q 1253 762 1271 767 q 1223 746 1235 757 q 1211 715 1211 735 q 1240 681 1211 696 q 1307 654 1269 665 q 1379 637 1344 643 q 1424 629 1414 631 q 1533 601 1474 619 q 1645 545 1593 582 q 1733 449 1697 508 q 1768 301 1768 390 q 1739 158 1768 218 q 1658 58 1710 97 q 1533 1 1606 19 q 1371 -18 1460 -18 q 1236 -6 1299 -18 q 1119 26 1174 6 q 1019 76 1065 47 q 933 136 972 104 q 921 159 922 144 q 928 185 919 174 l 1035 339 q 1057 353 1043 350 q 1082 349 1071 356 z "},"¬":{"ha":818,"x_min":31,"x_max":736,"o":"m 703 264 l 494 264 q 471 274 481 264 q 461 297 461 283 l 461 446 q 452 469 461 460 q 428 478 443 478 l 64 478 q 40 488 50 478 q 31 511 31 497 l 31 699 q 40 722 31 713 q 64 732 50 732 l 703 732 q 726 722 717 732 q 736 699 736 713 l 736 297 q 726 274 736 283 q 703 264 717 264 z "},"¼":{"ha":1214,"x_min":-17,"x_max":1201,"o":"m 333 985 l 333 381 q 324 357 333 367 q 299 347 314 347 l 186 347 q 162 357 171 347 q 153 381 153 367 l 153 678 q 146 695 153 692 q 128 688 139 699 q 123 682 125 685 q 118 676 121 679 q 95 667 108 667 q 72 678 82 667 l -7 764 q -17 788 -17 774 q -6 811 -17 801 l 190 996 q 217 1012 201 1006 q 249 1018 233 1018 l 299 1018 q 324 1008 314 1018 q 333 985 333 999 m 169 29 l 742 989 q 763 1010 749 1001 q 793 1018 778 1018 l 942 1018 q 961 1010 957 1018 q 958 989 965 1001 l 388 29 q 366 8 381 17 q 336 0 351 0 l 186 0 q 167 8 171 0 q 169 29 163 17 m 1201 276 l 1201 174 q 1192 150 1201 160 q 1168 140 1183 140 l 1160 140 q 1135 131 1144 140 q 1125 107 1125 121 l 1125 33 q 1116 10 1125 19 q 1092 0 1107 0 l 976 0 q 951 10 961 0 q 942 33 942 19 l 942 107 q 933 131 942 121 q 908 140 924 140 l 671 140 q 647 150 656 140 q 638 174 638 160 l 638 258 q 643 290 638 272 q 658 318 649 307 l 958 679 q 983 697 968 690 q 1014 704 999 704 l 1092 704 q 1116 694 1107 704 q 1125 671 1125 685 l 1125 343 q 1135 319 1125 329 q 1160 310 1144 310 l 1168 310 q 1192 300 1183 310 q 1201 276 1201 290 m 922 381 l 879 329 q 885 314 872 318 q 911 310 899 310 q 933 315 924 310 q 942 333 942 319 l 942 375 q 922 381 942 406 z "},"½":{"ha":1249,"x_min":-24,"x_max":1206,"o":"m 326 985 l 326 381 q 317 357 326 367 q 293 347 307 347 l 179 347 q 155 357 164 347 q 146 381 146 367 l 146 678 q 139 695 146 692 q 122 688 132 699 q 117 683 119 685 q 111 678 114 681 q 88 667 101 667 q 65 678 75 667 l -14 764 q -23 788 -24 774 q -12 811 -22 801 l 183 996 q 210 1012 194 1006 q 242 1018 226 1018 l 293 1018 q 317 1008 307 1018 q 326 985 326 999 m 163 29 l 735 990 q 756 1010 742 1001 q 786 1018 771 1018 l 936 1018 q 954 1010 950 1018 q 951 990 958 1001 l 381 29 q 359 8 374 17 q 331 0 344 0 l 179 0 q 160 8 164 0 q 163 29 156 17 m 1206 140 l 1206 35 q 1196 11 1206 21 q 1172 1 1186 1 l 746 1 q 722 11 731 1 q 713 35 713 21 l 713 133 q 719 163 713 147 q 738 188 726 179 q 817 254 785 226 q 873 301 850 282 q 911 335 896 321 q 940 361 926 349 q 978 396 964 381 q 1001 424 993 411 q 1011 447 1008 436 q 1014 468 1014 457 q 1008 494 1014 483 q 992 510 1001 504 q 971 519 982 517 q 950 521 960 521 q 906 497 922 521 q 881 449 889 472 q 865 429 876 436 q 839 425 853 422 l 725 456 q 705 471 711 458 q 703 496 699 483 q 736 562 715 526 q 788 626 757 597 q 858 675 818 656 q 950 694 899 694 q 1060 674 1014 694 q 1138 622 1107 654 q 1183 549 1168 589 q 1197 468 1197 508 q 1160 334 1197 393 q 1056 224 1122 275 q 1036 207 1040 211 q 1024 196 1032 203 q 1015 180 1013 186 q 1032 174 1017 174 l 1172 174 q 1196 164 1186 174 q 1206 140 1206 154 z "},"¾":{"ha":1331,"x_min":-3,"x_max":1257,"o":"m 444 413 q 400 369 425 386 q 348 343 375 353 q 294 330 321 333 q 244 326 268 326 q 151 344 190 326 q 82 391 111 363 q 33 453 53 419 q 3 517 14 486 q 4 542 -3 531 q 24 556 11 553 l 119 576 q 144 572 133 579 q 161 551 156 564 q 188 514 169 532 q 244 496 207 496 q 291 512 275 496 q 307 546 307 528 q 294 589 307 574 q 264 611 282 604 q 224 619 246 618 q 186 618 203 619 q 163 626 172 617 q 153 649 153 635 l 153 704 q 163 727 153 718 q 186 736 172 736 q 231 739 206 736 q 278 753 256 742 q 303 775 293 760 q 310 808 313 790 q 244 858 306 858 q 189 842 208 858 q 161 806 169 825 q 144 785 156 793 q 119 781 133 778 l 26 800 q 6 815 13 803 q 3 839 -1 826 q 33 903 14 869 q 82 964 53 936 q 151 1010 111 992 q 244 1029 192 1029 q 358 1010 311 1029 q 433 960 404 990 q 476 893 463 931 q 489 819 489 856 q 467 735 489 764 q 421 693 446 706 q 421 667 400 679 q 467 619 444 651 q 489 536 489 588 q 481 482 489 517 q 444 413 472 447 m 263 29 l 836 989 q 858 1010 843 1001 q 886 1018 872 1018 l 1036 1018 q 1055 1010 1050 1018 q 1053 989 1060 1001 l 481 29 q 459 8 474 17 q 431 0 444 0 l 279 0 q 260 8 265 0 q 263 29 256 17 m 1257 276 l 1257 174 q 1248 150 1257 160 q 1224 140 1239 140 l 1215 140 q 1190 131 1200 140 q 1181 107 1181 121 l 1181 33 q 1172 10 1181 19 q 1147 0 1163 0 l 1032 0 q 1007 10 1017 0 q 997 33 997 19 l 997 107 q 988 131 997 121 q 964 140 979 140 l 726 140 q 702 150 711 140 q 693 174 693 160 l 693 258 q 699 290 693 272 q 714 318 704 307 l 1014 679 q 1039 697 1024 690 q 1069 704 1054 704 l 1147 704 q 1172 694 1163 704 q 1181 671 1181 685 l 1181 343 q 1190 319 1181 329 q 1215 310 1200 310 l 1224 310 q 1248 300 1239 310 q 1257 276 1257 290 m 978 381 l 935 329 q 941 314 928 318 q 967 310 954 310 q 988 315 979 310 q 997 333 997 319 l 997 375 q 978 381 997 406 z "},"¹":{"ha":397,"x_min":0,"x_max":350,"o":"m 350 1054 l 350 450 q 340 426 350 436 q 317 417 331 417 l 203 417 q 179 426 189 417 q 169 450 169 436 l 169 747 q 163 765 169 761 q 146 757 156 768 q 141 751 143 754 q 136 746 139 749 q 113 736 126 736 q 90 747 100 736 l 10 833 q 1 857 0 843 q 13 881 1 871 l 208 1065 q 235 1081 218 1075 q 265 1088 251 1088 l 317 1088 q 340 1078 331 1088 q 350 1054 350 1068 z "},"²":{"ha":553,"x_min":14,"x_max":522,"o":"m 522 549 l 522 443 q 513 419 522 429 q 488 410 503 410 l 63 410 q 38 419 47 410 q 29 443 29 429 l 29 542 q 36 572 29 556 q 54 596 43 588 q 134 663 101 635 q 190 710 167 690 q 228 743 213 729 q 257 769 243 757 q 295 804 281 789 q 317 832 310 819 q 328 855 325 844 q 331 876 331 865 q 324 902 331 892 q 308 919 318 913 q 288 927 299 925 q 267 929 276 929 q 222 905 239 929 q 197 857 206 881 q 181 838 192 844 q 156 833 169 831 l 42 864 q 21 879 28 867 q 19 904 14 892 q 53 970 32 935 q 104 1035 74 1006 q 175 1083 135 1064 q 267 1103 215 1103 q 377 1083 331 1103 q 454 1030 424 1063 q 499 957 485 997 q 514 876 514 917 q 476 742 514 801 q 372 632 439 683 q 352 615 356 619 q 340 604 349 611 q 331 588 329 594 q 349 582 333 582 l 488 582 q 513 572 503 582 q 522 549 522 563 z "},"³":{"ha":533,"x_min":10,"x_max":501,"o":"m 457 482 q 413 439 438 456 q 360 413 388 422 q 307 399 333 403 q 257 396 281 396 q 163 414 203 396 q 94 460 124 432 q 46 522 65 489 q 15 586 26 556 q 17 611 10 600 q 36 625 24 622 l 133 646 q 157 641 146 649 q 174 621 168 633 q 201 583 182 601 q 257 565 219 565 q 303 581 288 565 q 319 615 319 597 q 307 658 319 643 q 276 681 294 674 q 238 688 258 688 q 199 688 217 689 q 175 695 185 686 q 165 718 165 704 l 165 774 q 175 797 165 788 q 199 806 185 806 q 243 808 218 806 q 290 822 268 811 q 315 844 306 829 q 322 878 325 860 q 257 928 318 928 q 201 911 221 928 q 174 875 182 894 q 157 855 168 863 q 132 850 146 847 l 39 869 q 18 884 25 872 q 15 908 11 896 q 46 972 26 939 q 94 1033 65 1006 q 164 1080 124 1061 q 257 1099 204 1099 q 370 1079 324 1099 q 446 1030 417 1060 q 488 963 475 1000 q 501 889 501 925 q 480 804 501 833 q 433 763 458 775 q 433 736 413 749 q 479 689 457 721 q 501 606 501 657 q 493 551 501 586 q 457 482 485 517 z "},"×":{"ha":700,"x_min":-11,"x_max":671,"o":"m 660 668 l 543 551 q 533 528 533 542 q 543 504 533 515 l 658 388 q 669 363 669 376 q 658 340 669 350 l 515 199 q 491 189 504 189 q 467 200 478 189 l 353 314 q 330 325 343 325 q 306 314 317 325 l 190 199 q 167 189 181 189 q 144 200 154 189 l 3 343 q -7 367 -7 354 q 3 390 -7 381 l 115 503 q 126 527 126 514 q 115 550 126 540 l 0 665 q -11 688 -11 675 q 0 711 -11 701 l 144 854 q 169 864 156 864 q 192 854 182 864 l 306 742 q 330 732 317 732 q 353 742 343 732 l 468 856 q 492 865 479 865 q 517 856 506 865 l 660 714 q 671 691 671 704 q 660 668 671 678 z "},"­":{"ha":1157,"x_min":0,"x_max":0,"o":""},"´":{"ha":457,"x_min":-7,"x_max":474,"o":"m 246 1254 l 446 1168 q 450 1135 474 1154 l 251 986 q 223 972 240 978 q 192 965 206 965 l 15 965 q -3 973 1 965 q 3 992 -7 981 l 194 1240 q 218 1256 203 1251 q 246 1254 233 1260 z "},"˘":{"ha":594,"x_min":10,"x_max":588,"o":"m 586 1219 q 506 1029 578 1097 q 299 961 433 961 q 93 1032 165 961 q 11 1219 21 1103 q 19 1243 10 1233 q 43 1253 29 1253 l 188 1253 q 212 1243 201 1253 q 226 1221 222 1233 q 252 1181 233 1196 q 299 1165 271 1165 q 347 1181 328 1165 q 372 1221 365 1197 q 386 1243 376 1233 q 410 1253 396 1253 l 554 1253 q 578 1243 568 1253 q 586 1219 588 1233 z "},"¨":{"ha":603,"x_min":10,"x_max":592,"o":"m 10 1111 q 20 1164 10 1139 q 49 1207 31 1189 q 93 1235 68 1225 q 147 1246 118 1246 q 243 1207 206 1246 q 281 1111 281 1168 q 243 1015 281 1053 q 147 976 206 976 q 93 987 118 976 q 49 1015 68 997 q 20 1058 31 1033 q 10 1111 10 1082 m 321 1111 q 331 1164 321 1139 q 360 1207 342 1189 q 403 1235 378 1225 q 457 1246 428 1246 q 553 1207 514 1246 q 592 1111 592 1168 q 553 1015 592 1053 q 457 976 514 976 q 360 1015 399 976 q 321 1111 321 1053 z "},"ˆ":{"ha":599,"x_min":-35,"x_max":601,"o":"m 218 1254 l 346 1254 q 376 1247 360 1254 q 400 1228 392 1239 l 593 989 q 598 970 601 978 q 581 963 594 963 l 382 963 q 352 970 368 963 q 328 989 336 978 l 303 1018 q 282 1028 294 1029 q 261 1017 269 1028 l 239 988 q 215 969 231 976 q 186 961 200 961 l -14 961 q -31 969 -28 961 q -26 988 -35 976 l 164 1228 q 188 1247 172 1239 q 218 1254 204 1254 z "},"ˇ":{"ha":600,"x_min":-37,"x_max":599,"o":"m 346 961 l 218 961 q 188 969 204 961 q 164 988 172 976 l -29 1229 q -34 1247 -37 1240 q -17 1254 -31 1254 l 182 1254 q 212 1247 196 1254 q 238 1229 228 1240 l 261 1201 q 282 1190 269 1190 q 303 1201 294 1190 l 324 1229 q 348 1247 332 1240 q 378 1254 364 1254 l 578 1254 q 595 1247 592 1254 q 590 1229 599 1240 l 400 988 q 376 969 392 976 q 346 961 360 961 z "},"¯":{"ha":549,"x_min":4,"x_max":515,"o":"m 482 1004 l 38 1004 q 14 1014 24 1004 q 4 1038 4 1024 l 4 1186 q 14 1210 4 1200 q 38 1219 24 1219 l 482 1219 q 506 1210 496 1219 q 515 1186 515 1200 l 515 1038 q 506 1014 515 1024 q 482 1004 496 1004 z "},"˚":{"ha":386,"x_min":8,"x_max":378,"o":"m 193 878 q 121 892 154 878 q 63 932 88 907 q 23 991 38 957 q 8 1063 8 1025 q 23 1134 8 1100 q 63 1193 38 1168 q 121 1233 88 1218 q 193 1247 154 1247 q 265 1233 231 1247 q 324 1193 299 1218 q 363 1134 349 1168 q 378 1063 378 1100 q 363 991 378 1025 q 324 932 349 957 q 265 892 299 907 q 193 878 231 878 m 133 1061 q 151 1019 133 1036 q 193 1001 168 1001 q 235 1019 218 1001 q 253 1061 253 1036 q 235 1103 253 1086 q 193 1121 218 1121 q 151 1103 168 1121 q 133 1061 133 1086 z "},"˝":{"ha":804,"x_min":-44,"x_max":821,"o":"m 208 1254 l 408 1168 q 423 1152 422 1161 q 413 1135 424 1143 l 213 986 q 184 972 201 978 q 153 965 167 965 l -22 965 q -41 973 -37 965 q -36 992 -44 981 l 157 1240 q 180 1256 165 1251 q 208 1254 194 1260 m 604 1254 l 806 1168 q 820 1152 819 1161 q 810 1135 821 1143 l 610 986 q 581 972 599 978 q 550 965 564 965 l 375 965 q 356 973 360 965 q 361 992 353 981 l 553 1240 q 576 1256 561 1251 q 604 1254 590 1260 z "},"˙":{"ha":293,"x_min":14,"x_max":283,"o":"m 14 1111 q 47 1207 14 1168 q 138 1246 79 1246 q 193 1235 167 1246 q 240 1207 219 1225 q 272 1164 260 1189 q 283 1111 283 1139 q 246 1015 283 1053 q 150 976 208 976 q 53 1015 92 976 q 14 1111 14 1053 z "},"˛":{"ha":386,"x_min":-3,"x_max":390,"o":"m 4 -62 q 28 7 7 -29 q 85 64 50 43 q 177 100 133 92 q 250 110 221 108 q 277 101 265 111 q 292 78 289 92 l 301 38 q 297 15 304 24 q 275 3 290 6 q 234 -9 247 0 q 218 -21 221 -18 q 208 -40 208 -32 q 214 -56 208 -49 q 226 -67 219 -62 q 239 -72 233 -71 q 276 -78 258 -79 q 307 -75 293 -78 q 333 -76 321 -71 q 349 -93 344 -81 l 385 -196 q 385 -224 390 -210 q 367 -243 381 -237 q 304 -260 343 -253 q 215 -264 265 -268 q 157 -256 194 -262 q 83 -230 119 -250 q 22 -170 47 -210 q 4 -62 -3 -131 z "},"¸":{"ha":343,"x_min":-10,"x_max":346,"o":"m -3 -201 l 22 -147 q 40 -130 28 -135 q 67 -128 53 -125 q 98 -135 81 -132 q 138 -139 115 -139 q 147 -139 139 -139 q 163 -135 154 -139 q 178 -125 171 -132 q 185 -103 185 -118 q 167 -78 185 -85 q 139 -72 150 -72 q 111 -76 124 -74 q 89 -82 99 -79 q 60 -83 75 -86 q 35 -69 44 -81 l 35 -68 q 22 -42 25 -58 q 24 -12 19 -26 l 63 82 q 81 103 68 94 q 108 113 93 113 l 185 113 q 204 104 199 113 q 203 83 210 96 l 203 82 q 201 60 196 69 q 221 47 207 50 q 271 30 243 43 q 319 -14 299 17 q 339 -65 332 -33 q 343 -125 346 -96 q 316 -208 340 -174 q 251 -261 292 -242 q 189 -279 219 -276 q 147 -282 158 -282 q 67 -270 101 -281 q 11 -249 32 -260 q -6 -228 -1 -242 q -3 -201 -10 -214 z "},"æ":{"ha":1475,"x_min":-62,"x_max":1332,"o":"m 833 726 l 833 671 q 843 647 833 657 q 867 638 853 638 l 1243 638 q 1267 628 1258 638 q 1276 604 1276 618 l 1276 411 q 1267 388 1276 397 q 1243 378 1258 378 l 867 378 q 843 368 853 378 q 833 344 833 358 l 833 293 q 843 269 833 279 q 867 260 853 260 l 1299 260 q 1323 250 1314 260 q 1332 226 1332 240 l 1332 33 q 1323 10 1332 19 q 1299 0 1314 0 l 590 0 q 567 10 576 0 q 557 33 557 19 l 557 121 q 548 144 557 135 q 524 154 539 154 l 378 154 q 349 146 364 154 q 326 126 333 138 q 294 77 311 103 q 263 28 278 51 q 240 8 254 17 q 210 0 225 0 l -40 0 q -58 8 -54 0 q -54 28 -62 17 l 579 990 q 601 1010 586 1001 q 631 1018 617 1018 l 1299 1018 q 1323 1008 1314 1018 q 1332 985 1332 999 l 1332 793 q 1323 769 1332 779 q 1299 760 1314 760 l 867 760 q 843 750 853 760 q 833 726 833 740 m 544 515 l 481 422 q 481 399 474 408 q 517 389 489 389 l 524 389 q 550 396 539 389 q 561 418 561 403 l 561 511 q 556 528 561 526 q 544 515 551 529 z "},"œ":{"ha":1611,"x_min":42,"x_max":1458,"o":"m 960 726 l 960 665 q 969 642 960 651 q 993 632 978 632 l 1369 632 q 1393 622 1383 632 q 1403 599 1403 613 l 1403 407 q 1393 383 1403 393 q 1369 374 1383 374 l 993 374 q 969 364 978 374 q 960 340 960 354 l 960 292 q 969 268 960 278 q 993 258 978 258 l 1425 258 q 1449 249 1439 258 q 1458 225 1458 239 l 1458 33 q 1449 10 1458 19 q 1425 0 1439 0 l 732 0 q 698 -2 717 0 q 665 -7 679 -4 q 567 -18 614 -18 q 363 24 458 -18 q 195 137 267 65 q 83 304 124 208 q 42 508 42 400 q 83 713 42 617 q 195 880 124 808 q 363 993 267 951 q 567 1035 458 1035 q 617 1032 592 1035 q 665 1025 642 1029 q 698 1019 679 1022 q 732 1017 717 1017 l 1425 1017 q 1449 1007 1439 1017 q 1458 983 1458 997 l 1458 793 q 1449 769 1458 779 q 1425 760 1439 760 l 993 760 q 969 750 978 760 q 960 726 960 740 m 685 313 l 685 704 q 677 734 685 718 q 657 757 669 750 q 618 772 640 767 q 567 778 596 778 q 469 760 514 778 q 390 709 424 743 q 336 624 356 675 q 317 508 317 574 q 336 396 317 446 q 390 311 356 346 q 469 258 424 276 q 567 239 514 239 q 619 245 597 239 q 657 260 642 251 q 677 283 669 267 q 685 313 685 299 z "},"Ø":{"ha":1175,"x_min":33,"x_max":1085,"o":"m 196 -26 l 75 78 q 63 99 64 86 q 72 124 63 113 l 113 172 q 123 199 122 183 q 115 225 124 214 q 55 358 76 288 q 33 508 33 429 q 75 713 33 617 q 188 880 117 808 q 354 993 258 951 q 558 1035 450 1035 q 785 983 678 1035 q 812 980 797 978 q 836 993 826 982 l 874 1036 q 897 1048 883 1047 q 921 1039 910 1049 l 1040 933 q 1052 910 1051 924 q 1043 886 1053 897 l 1006 843 q 995 817 996 832 q 1001 790 994 803 q 1063 657 1042 728 q 1085 508 1085 586 q 1043 304 1085 400 q 930 137 1001 208 q 763 24 858 65 q 558 -18 667 -18 q 442 -5 499 -18 q 335 32 386 8 q 308 35 322 38 q 283 21 293 32 l 243 -24 q 220 -35 233 -35 q 196 -26 207 -36 m 315 446 q 328 430 318 432 q 349 439 339 428 l 610 733 q 617 754 619 744 q 600 767 614 764 q 579 769 589 769 q 558 769 569 769 q 461 748 507 769 q 381 691 415 726 q 328 608 347 656 q 308 508 308 560 q 315 446 308 481 m 803 568 q 790 584 800 582 q 771 575 781 586 l 511 282 q 504 262 501 271 q 521 250 507 253 q 558 246 539 246 q 656 267 610 246 q 736 325 701 289 q 790 408 771 361 q 810 508 810 456 q 803 568 810 536 z "},"a":{"ha":1090,"x_min":-33,"x_max":1074,"o":"m 375 985 q 394 1006 381 997 q 422 1015 407 1015 l 617 1015 q 644 1006 631 1015 q 663 985 657 997 l 1068 40 q 1066 14 1074 28 q 1036 0 1058 0 l 799 0 q 770 9 783 0 q 750 31 757 18 l 713 114 q 692 135 706 126 q 665 144 679 144 l 372 144 q 344 135 357 144 q 325 114 331 126 l 286 31 q 267 9 281 18 q 240 0 254 0 l 1 0 q -13 3 -6 0 q -26 11 -21 6 q -32 25 -31 17 q -28 44 -33 33 l 375 985 m 457 381 l 581 381 q 601 390 594 381 q 600 411 607 399 q 567 492 586 446 q 531 579 547 539 q 518 592 525 592 q 506 579 511 592 l 436 411 q 436 390 431 399 q 457 381 442 381 z "},"b":{"ha":974,"x_min":75,"x_max":899,"o":"m 771 524 q 815 493 793 511 q 856 449 838 475 q 887 388 875 422 q 899 308 899 353 q 870 159 899 218 q 793 65 842 100 q 681 15 744 29 q 549 0 618 0 l 108 0 q 85 10 94 0 q 75 33 75 19 l 75 983 q 85 1007 75 997 q 108 1017 94 1017 l 528 1017 q 656 1002 594 1017 q 763 954 717 988 q 838 867 810 921 q 867 736 867 814 q 835 628 867 674 q 768 556 804 582 q 771 524 743 538 m 383 631 l 513 631 q 557 652 540 631 q 574 700 574 674 q 553 743 574 725 q 515 761 533 761 l 383 761 q 360 751 369 761 q 350 728 350 742 l 350 664 q 360 640 350 650 q 383 631 369 631 m 529 401 l 383 401 q 360 392 369 401 q 350 368 350 382 l 350 289 q 360 265 350 275 q 383 256 369 256 l 539 256 q 586 276 564 256 q 608 325 608 297 q 587 376 608 350 q 529 401 565 401 z "},"c":{"ha":1086,"x_min":28,"x_max":1064,"o":"m 1057 271 q 968 152 1017 206 q 859 61 919 99 q 725 3 799 24 q 563 -18 651 -18 q 354 24 451 -18 q 184 136 257 65 q 69 303 111 207 q 28 507 28 399 q 69 711 28 615 q 184 878 111 807 q 354 990 257 949 q 563 1032 451 1032 q 728 1011 654 1032 q 861 953 801 990 q 969 862 921 915 q 1057 744 1017 808 q 1060 721 1064 733 q 1043 703 1056 708 l 846 625 q 818 625 832 619 q 797 642 804 631 q 700 740 757 706 q 563 774 643 774 q 463 751 510 774 q 382 692 417 729 q 328 607 347 656 q 308 507 308 558 q 328 406 308 454 q 382 322 347 358 q 463 264 417 286 q 563 242 510 242 q 701 278 639 242 q 799 374 763 315 q 819 390 806 385 q 846 390 832 396 l 1043 313 q 1060 295 1056 307 q 1057 271 1064 283 z "},"d":{"ha":1092,"x_min":78,"x_max":1000,"o":"m 78 33 l 78 983 q 88 1007 78 997 q 111 1017 97 1017 l 490 1017 q 847 889 708 1017 q 961 724 922 819 q 1000 508 1000 628 q 961 292 1000 389 q 847 126 922 196 q 688 32 778 64 q 490 0 599 0 l 111 0 q 88 10 97 0 q 78 33 78 19 m 386 256 l 490 256 q 571 265 529 256 q 646 302 613 275 q 701 378 679 329 q 722 507 722 428 q 701 635 722 586 q 645 712 679 685 q 570 749 611 739 q 490 758 529 758 l 386 758 q 363 749 372 758 q 353 725 353 739 l 353 289 q 363 265 353 275 q 386 256 372 256 z "},"e":{"ha":949,"x_min":74,"x_max":847,"o":"m 349 728 l 349 669 q 358 646 349 656 q 382 636 368 636 l 758 636 q 782 626 772 636 q 792 603 792 617 l 792 411 q 782 388 792 397 q 758 378 772 378 l 382 378 q 358 368 368 378 q 349 344 349 358 l 349 292 q 358 268 349 278 q 382 258 368 258 l 814 258 q 838 249 828 258 q 847 225 847 239 l 847 33 q 838 10 847 19 q 814 0 828 0 l 107 0 q 83 10 93 0 q 74 33 74 19 l 74 983 q 83 1007 74 997 q 107 1017 93 1017 l 814 1017 q 838 1007 828 1017 q 847 983 847 997 l 847 794 q 838 771 847 781 q 814 761 828 761 l 382 761 q 358 751 368 761 q 349 728 349 742 z "},"f":{"ha":906,"x_min":74,"x_max":847,"o":"m 350 726 l 350 668 q 360 644 350 654 q 383 635 369 635 l 758 635 q 782 625 772 635 q 792 601 792 615 l 792 407 q 782 383 792 393 q 758 374 772 374 l 383 374 q 360 364 369 374 q 350 340 350 354 l 350 33 q 340 10 350 19 q 317 0 331 0 l 107 0 q 83 10 93 0 q 74 33 74 19 l 74 983 q 83 1007 74 997 q 107 1017 93 1017 l 814 1017 q 838 1007 828 1017 q 847 983 847 997 l 847 793 q 838 769 847 779 q 814 760 828 760 l 383 760 q 360 750 369 760 q 350 726 350 740 z "},"g":{"ha":1169,"x_min":28,"x_max":1089,"o":"m 564 -18 q 356 24 453 -18 q 185 136 258 65 q 70 303 113 207 q 28 507 28 399 q 70 711 28 615 q 185 878 113 807 q 356 992 258 950 q 564 1033 453 1033 q 830 971 717 1033 q 1014 799 943 908 q 1017 773 1021 788 q 1003 751 1014 758 l 836 644 q 811 640 825 638 q 788 653 797 642 q 691 738 744 706 q 564 769 638 769 q 465 748 511 769 q 383 690 418 726 q 328 606 349 654 q 308 507 308 558 q 328 407 308 454 q 383 324 349 360 q 465 267 418 289 q 564 246 511 246 q 668 265 617 246 q 750 329 719 285 q 751 349 757 340 q 732 358 746 358 l 572 358 q 549 368 558 358 q 539 392 539 378 l 539 557 q 549 581 539 571 q 572 590 558 590 l 1050 590 q 1074 581 1064 590 q 1086 557 1085 572 q 1089 499 1089 533 q 1085 429 1089 465 q 1031 251 1075 333 q 916 110 986 169 q 756 16 846 50 q 564 -18 665 -18 z "},"h":{"ha":1111,"x_min":79,"x_max":981,"o":"m 981 983 l 981 33 q 971 10 981 19 q 947 0 961 0 l 739 0 q 715 10 724 0 q 706 33 706 19 l 706 331 q 696 354 706 344 q 672 364 686 364 l 386 364 q 362 354 371 364 q 353 331 353 344 l 353 33 q 343 10 353 19 q 319 0 333 0 l 113 0 q 88 10 97 0 q 79 33 79 19 l 79 983 q 88 1007 79 997 q 113 1017 97 1017 l 319 1017 q 343 1007 333 1017 q 353 983 353 997 l 353 654 q 362 631 353 640 q 386 621 371 621 l 672 621 q 696 631 686 621 q 706 654 706 640 l 706 983 q 715 1007 706 997 q 739 1017 724 1017 l 947 1017 q 971 1007 961 1017 q 981 983 981 997 z "},"i":{"ha":472,"x_min":86,"x_max":363,"o":"m 329 0 l 119 0 q 95 10 104 0 q 86 33 86 19 l 86 982 q 95 1006 86 996 q 119 1015 104 1015 l 329 1015 q 353 1006 343 1015 q 363 982 363 996 l 363 33 q 353 10 363 19 q 329 0 343 0 z "},"j":{"ha":846,"x_min":-12,"x_max":733,"o":"m 733 982 l 733 390 q 705 224 733 299 q 626 94 676 149 q 503 11 575 40 q 344 -18 432 -18 q 138 44 228 -18 q -6 215 47 106 q -7 241 -12 228 q 11 261 -1 254 l 168 342 q 194 344 181 349 q 214 328 207 339 q 268 268 235 294 q 344 242 301 242 q 404 258 382 242 q 438 297 426 274 q 454 345 450 319 q 458 390 458 371 l 458 982 q 468 1006 458 996 q 492 1015 478 1015 l 700 1015 q 724 1006 715 1015 q 733 982 733 996 z "},"k":{"ha":1021,"x_min":79,"x_max":1010,"o":"m 646 25 l 376 326 q 360 335 367 338 q 354 318 354 332 l 354 33 q 344 10 354 19 q 321 0 335 0 l 113 0 q 88 10 97 0 q 79 33 79 19 l 79 983 q 88 1007 79 997 q 113 1017 97 1017 l 321 1017 q 344 1007 335 1017 q 354 983 354 997 l 354 664 q 360 648 354 650 q 374 657 365 646 l 624 989 q 647 1008 632 1000 q 678 1015 663 1015 l 943 1015 q 963 1002 958 1015 q 958 978 967 989 l 593 521 q 585 495 585 510 q 596 471 586 481 q 696 364 643 419 q 801 252 749 308 q 903 141 853 196 q 1000 39 954 86 q 1007 14 1010 28 q 989 0 1004 0 l 701 0 q 670 7 686 0 q 646 25 654 14 z "},"l":{"ha":854,"x_min":74,"x_max":833,"o":"m 833 222 l 833 33 q 824 10 833 19 q 800 0 814 0 l 107 0 q 83 10 92 0 q 74 33 74 19 l 74 983 q 83 1007 74 997 q 107 1017 92 1017 l 315 1017 q 339 1007 329 1017 q 349 983 349 997 l 349 289 q 358 265 349 275 q 382 256 367 256 l 800 256 q 824 246 814 256 q 833 222 833 236 z "},"m":{"ha":1354,"x_min":79,"x_max":1210,"o":"m 1210 982 l 1210 33 q 1200 10 1210 19 q 1176 0 1190 0 l 967 0 q 943 10 953 0 q 933 33 933 19 l 933 481 q 921 496 933 494 q 900 486 908 497 l 667 110 q 644 99 660 99 q 621 110 629 99 l 388 486 q 368 496 381 497 q 356 481 356 494 l 356 33 q 346 10 356 19 q 322 0 336 0 l 113 0 q 89 10 99 0 q 79 33 79 19 l 79 982 q 89 1006 79 996 q 113 1015 99 1015 l 307 1015 q 336 1007 321 1015 q 358 988 351 999 l 625 596 q 644 585 633 585 q 663 596 656 585 l 929 988 q 953 1007 938 999 q 982 1015 968 1015 l 1176 1015 q 1200 1006 1190 1015 q 1210 982 1210 996 z "},"n":{"ha":1164,"x_min":76,"x_max":1031,"o":"m 1031 983 l 1031 33 q 1021 10 1031 19 q 997 0 1011 0 l 792 0 q 763 8 778 0 q 739 28 747 17 l 376 538 q 359 547 368 549 q 350 531 350 544 l 350 33 q 340 10 350 19 q 317 0 331 0 l 110 0 q 86 10 96 0 q 76 33 76 19 l 76 983 q 86 1007 76 997 q 110 1017 96 1017 l 318 1017 q 347 1009 332 1017 q 371 990 363 1001 l 732 481 q 749 471 740 469 q 758 486 758 472 l 758 983 q 768 1007 758 997 q 792 1017 778 1017 l 997 1017 q 1021 1007 1011 1017 q 1031 983 1031 997 z "},"o":{"ha":1150,"x_min":31,"x_max":1082,"o":"m 31 508 q 72 713 31 617 q 185 880 114 808 q 351 993 256 951 q 556 1035 447 1035 q 760 993 664 1035 q 927 880 856 951 q 1040 713 999 808 q 1082 508 1082 617 q 1040 304 1082 400 q 927 137 999 208 q 760 24 856 65 q 556 -18 664 -18 q 351 24 447 -18 q 185 137 256 65 q 72 304 114 208 q 31 508 31 400 m 306 508 q 325 408 306 456 q 378 325 344 361 q 458 267 413 289 q 556 246 504 246 q 653 267 607 246 q 733 325 699 289 q 788 408 768 361 q 807 508 807 456 q 788 608 807 560 q 733 691 768 656 q 653 748 699 726 q 556 769 607 769 q 458 748 504 769 q 378 691 413 726 q 325 608 344 656 q 306 508 306 560 z "},"p":{"ha":942,"x_min":74,"x_max":908,"o":"m 504 274 l 383 274 q 360 264 369 274 q 350 240 350 254 l 350 33 q 340 10 350 19 q 317 0 331 0 l 107 0 q 83 10 93 0 q 74 33 74 19 l 74 983 q 83 1007 74 997 q 107 1017 93 1017 l 532 1017 q 678 988 610 1017 q 798 907 747 958 q 878 788 849 856 q 908 642 908 719 q 883 497 908 564 q 808 380 858 429 q 681 302 757 331 q 504 274 606 274 m 514 761 l 383 761 q 360 751 369 761 q 350 728 350 742 l 350 564 q 360 540 350 550 q 383 531 369 531 l 532 531 q 609 565 585 531 q 633 642 633 599 q 626 685 633 664 q 603 724 618 707 q 565 751 588 740 q 514 761 543 761 z "},"q":{"ha":1149,"x_min":33,"x_max":1092,"o":"m 1092 228 l 1092 32 q 1082 8 1092 18 q 1058 -1 1072 -1 l 579 -1 q 336 40 439 -1 q 166 151 233 81 q 66 315 99 221 q 33 515 33 408 q 74 717 33 622 q 184 881 114 811 q 348 992 254 951 q 549 1033 442 1033 q 750 992 656 1033 q 915 881 844 951 q 1025 717 985 811 q 1065 515 1065 622 q 1042 388 1065 449 q 982 286 1018 328 q 993 261 964 261 l 1058 261 q 1082 251 1072 261 q 1092 228 1092 242 m 549 269 q 642 290 599 269 q 719 343 686 310 q 772 421 753 376 q 790 515 790 465 q 772 610 790 565 q 719 690 753 656 q 642 743 686 724 q 549 763 599 763 q 455 743 499 763 q 378 690 411 724 q 326 610 344 656 q 307 515 307 565 q 326 421 307 465 q 378 343 344 376 q 455 290 411 310 q 549 269 499 269 z "},"r":{"ha":1000,"x_min":76,"x_max":976,"o":"m 317 0 l 110 0 q 86 10 96 0 q 76 33 76 19 l 76 983 q 86 1007 76 997 q 110 1017 96 1017 l 542 1017 q 690 990 622 1017 q 806 914 758 963 q 881 799 854 865 q 908 651 908 732 q 898 563 908 607 q 868 481 888 519 q 822 410 849 442 q 763 358 796 379 q 748 338 751 350 q 753 315 744 326 q 864 172 806 246 q 968 38 922 99 q 972 13 976 26 q 954 0 968 0 l 696 0 q 666 8 682 0 q 642 26 650 15 q 553 144 597 85 q 467 265 510 204 q 443 284 458 276 q 414 292 428 292 l 383 292 q 360 282 369 292 q 350 258 350 272 l 350 33 q 340 10 350 19 q 317 0 331 0 m 383 547 l 531 547 q 565 553 547 547 q 599 573 583 560 q 624 606 614 586 q 633 651 633 625 q 628 684 633 665 q 612 720 624 703 q 580 749 600 738 q 531 761 560 761 l 383 761 q 360 751 369 761 q 350 728 350 742 l 350 581 q 360 557 350 567 q 383 547 369 547 z "},"s":{"ha":944,"x_min":28,"x_max":876,"o":"m 190 349 q 339 272 265 300 q 476 244 413 244 q 569 262 538 244 q 601 314 601 279 q 588 342 601 332 q 551 360 574 353 q 497 371 528 367 q 435 382 467 375 q 363 395 404 388 q 279 417 322 403 q 194 454 236 432 q 118 511 151 476 q 65 594 85 546 q 44 707 44 642 q 82 865 44 803 q 177 965 119 928 q 306 1016 235 1001 q 443 1031 376 1031 q 652 997 560 1031 q 829 897 744 963 q 842 874 840 888 q 835 849 843 860 l 726 694 q 704 681 718 683 q 679 686 690 678 q 547 749 608 731 q 435 768 486 768 q 399 767 419 768 q 361 762 379 767 q 331 746 343 757 q 319 715 319 735 q 349 681 319 696 q 415 654 378 665 q 488 637 453 643 q 532 629 522 631 q 642 601 582 619 q 753 545 701 582 q 841 449 806 508 q 876 301 876 390 q 847 158 876 218 q 766 58 818 97 q 641 1 714 19 q 479 -18 568 -18 q 344 -6 407 -18 q 228 26 282 6 q 127 76 174 47 q 42 136 81 104 q 29 159 31 144 q 36 185 28 174 l 143 339 q 165 353 151 350 q 190 349 179 356 z "},"t":{"ha":864,"x_min":32,"x_max":832,"o":"m 799 761 l 604 761 q 581 751 590 761 q 571 728 571 742 l 571 33 q 562 10 571 19 q 538 0 553 0 l 329 0 q 306 10 315 0 q 296 33 296 19 l 296 728 q 287 751 296 742 q 263 761 278 761 l 65 761 q 42 771 51 761 q 32 794 32 781 l 32 983 q 42 1007 32 997 q 65 1017 51 1017 l 799 1017 q 823 1007 814 1017 q 832 983 832 997 l 832 794 q 823 771 832 781 q 799 761 814 761 z "},"u":{"ha":1094,"x_min":75,"x_max":963,"o":"m 75 982 q 85 1006 75 996 q 108 1015 94 1015 l 318 1015 q 342 1006 332 1015 q 351 982 351 996 l 351 419 q 369 330 351 365 q 412 274 386 294 q 467 246 438 254 q 519 238 496 238 q 572 246 543 238 q 626 274 601 254 q 669 330 651 294 q 686 419 686 365 l 686 982 q 696 1006 686 996 q 719 1015 706 1015 l 929 1015 q 953 1006 943 1015 q 963 982 963 996 l 963 419 q 931 240 963 321 q 842 103 900 160 q 701 15 783 46 q 519 -17 619 -17 q 338 15 419 -17 q 197 103 256 46 q 107 240 139 160 q 75 419 75 321 l 75 982 z "},"v":{"ha":1153,"x_min":-12,"x_max":1122,"o":"m 414 31 l -6 976 q -6 1004 -12 992 q 18 1017 0 1017 l 244 1017 q 272 1008 258 1017 q 292 986 285 999 l 536 428 q 554 415 543 415 q 572 428 565 415 l 815 986 q 835 1008 822 999 q 863 1017 849 1017 l 1093 1017 q 1115 1005 1108 1017 q 1117 982 1122 993 l 693 31 q 673 9 686 18 q 646 0 660 0 l 461 0 q 434 9 447 0 q 414 31 421 18 z "},"w":{"ha":1586,"x_min":-6,"x_max":1546,"o":"m 1 976 q 1 1005 -6 993 q 22 1017 7 1017 l 249 1017 q 275 1008 263 1017 q 292 986 288 999 l 450 524 q 465 510 454 510 q 479 524 475 510 l 632 985 q 649 1008 636 999 q 676 1017 661 1017 l 861 1017 q 889 1008 876 1017 q 906 985 901 999 l 1058 521 q 1073 507 1063 507 q 1089 521 1083 507 l 1249 986 q 1267 1008 1254 999 q 1294 1017 1279 1017 l 1519 1017 q 1540 1005 1535 1017 q 1542 981 1546 993 l 1206 32 q 1188 9 1200 18 q 1160 0 1175 0 l 981 0 q 953 9 965 0 q 936 32 940 18 l 783 494 q 769 508 779 508 q 754 494 758 508 l 601 32 q 585 9 597 18 q 557 0 572 0 l 378 0 q 350 10 363 0 q 335 32 338 21 l 1 976 z "},"x":{"ha":1047,"x_min":-29,"x_max":1039,"o":"m 328 529 l -21 976 q -25 1001 -29 988 q -7 1015 -21 1015 l 260 1015 q 289 1007 274 1015 q 313 988 304 999 l 486 733 q 506 722 494 722 q 525 733 517 722 q 613 862 569 796 q 699 989 657 928 q 722 1008 707 1000 q 751 1015 738 1015 l 1017 1015 q 1036 1001 1033 1015 q 1031 976 1039 988 l 685 529 q 676 503 676 518 q 685 476 676 488 l 1024 40 q 1027 15 1032 29 q 1008 0 1022 0 l 744 0 q 715 8 731 0 q 692 28 700 17 l 525 271 q 506 282 517 282 q 486 271 494 282 l 319 28 q 296 8 311 17 q 267 0 281 0 l 3 0 q -15 15 -11 0 q -11 40 -19 29 l 328 476 q 336 503 336 488 q 328 529 336 518 z "},"y":{"ha":985,"x_min":-36,"x_max":983,"o":"m 972 976 l 625 414 q 613 383 618 401 q 607 351 607 365 l 607 33 q 597 10 607 19 q 574 0 588 0 l 364 0 q 340 10 350 0 q 331 33 331 19 l 331 350 q 326 383 331 364 q 314 413 321 401 q 144 693 231 556 q -29 976 57 831 q -32 1002 -36 989 q -14 1015 -28 1015 l 233 1015 q 262 1007 247 1015 q 283 986 276 999 l 454 689 q 471 678 461 678 q 488 689 481 678 l 657 986 q 678 1007 664 999 q 707 1015 693 1015 l 957 1015 q 977 1006 971 1015 q 972 976 983 996 z "},"z":{"ha":985,"x_min":54,"x_max":907,"o":"m 874 0 l 88 0 q 64 10 74 0 q 54 33 54 19 l 54 189 q 61 219 54 203 q 76 247 68 236 l 501 724 q 507 747 510 735 q 489 760 504 760 l 88 760 q 64 769 74 760 q 54 793 54 779 l 54 983 q 64 1007 54 997 q 88 1017 74 1017 l 874 1017 q 898 1007 889 1017 q 907 983 907 997 l 907 826 q 901 796 907 813 q 886 768 894 779 l 461 290 q 456 267 453 279 q 472 256 458 256 l 874 256 q 898 246 889 256 q 907 222 907 236 l 907 33 q 898 10 907 19 q 874 0 889 0 z "},"À":{"ha":1090,"x_min":-33,"x_max":1074,"o":"m 632 1063 l 456 1063 q 424 1069 442 1063 q 396 1083 407 1075 l 196 1232 q 200 1265 172 1251 l 400 1351 q 428 1353 413 1357 q 451 1338 443 1349 l 644 1089 q 649 1070 653 1078 q 632 1063 646 1063 m 375 985 q 394 1006 381 997 q 422 1015 407 1015 l 617 1015 q 644 1006 631 1015 q 663 985 657 997 l 1068 40 q 1066 14 1074 28 q 1036 0 1058 0 l 799 0 q 770 9 783 0 q 750 31 757 18 l 713 114 q 692 135 706 126 q 665 144 679 144 l 372 144 q 344 135 357 144 q 325 114 331 126 l 286 31 q 267 9 281 18 q 240 0 254 0 l 1 0 q -13 3 -6 0 q -26 11 -21 6 q -32 25 -31 17 q -28 44 -33 33 l 375 985 m 457 381 l 581 381 q 601 390 594 381 q 600 411 607 399 q 567 492 586 446 q 531 579 547 539 q 518 592 525 592 q 506 579 511 592 l 436 411 q 436 390 431 399 q 457 381 442 381 z "},"Á":{"ha":1090,"x_min":-33,"x_max":1074,"o":"m 647 1351 l 847 1265 q 851 1232 875 1251 l 653 1083 q 624 1069 642 1075 q 593 1063 607 1063 l 417 1063 q 399 1070 403 1063 q 404 1089 394 1078 l 596 1338 q 619 1353 604 1349 q 647 1351 635 1357 m 375 985 q 394 1006 381 997 q 422 1015 407 1015 l 617 1015 q 644 1006 631 1015 q 663 985 657 997 l 1068 40 q 1066 14 1074 28 q 1036 0 1058 0 l 799 0 q 770 9 783 0 q 750 31 757 18 l 713 114 q 692 135 706 126 q 665 144 679 144 l 372 144 q 344 135 357 144 q 325 114 331 126 l 286 31 q 267 9 281 18 q 240 0 254 0 l 1 0 q -13 3 -6 0 q -26 11 -21 6 q -32 25 -31 17 q -28 44 -33 33 l 375 985 m 457 381 l 581 381 q 601 390 594 381 q 600 411 607 399 q 567 492 586 446 q 531 579 547 539 q 518 592 525 592 q 506 579 511 592 l 436 411 q 436 390 431 399 q 457 381 442 381 z "},"Â":{"ha":1090,"x_min":-33,"x_max":1074,"o":"m 450 1351 l 578 1351 q 608 1344 592 1351 q 632 1325 624 1336 l 825 1086 q 830 1067 833 1075 q 813 1060 826 1060 l 614 1060 q 584 1067 600 1060 q 560 1086 568 1075 l 535 1115 q 514 1126 526 1126 q 493 1114 501 1125 l 471 1085 q 447 1066 463 1074 q 418 1058 432 1058 l 218 1058 q 201 1066 204 1058 q 206 1085 197 1074 l 396 1325 q 420 1344 404 1336 q 450 1351 436 1351 m 375 985 q 394 1006 381 997 q 422 1015 407 1015 l 617 1015 q 644 1006 631 1015 q 663 985 657 997 l 1068 40 q 1066 14 1074 28 q 1036 0 1058 0 l 799 0 q 770 9 783 0 q 750 31 757 18 l 713 114 q 692 135 706 126 q 665 144 679 144 l 372 144 q 344 135 357 144 q 325 114 331 126 l 286 31 q 267 9 281 18 q 240 0 254 0 l 1 0 q -13 3 -6 0 q -26 11 -21 6 q -32 25 -31 17 q -28 44 -33 33 l 375 985 m 457 381 l 581 381 q 601 390 594 381 q 600 411 607 399 q 567 492 586 446 q 531 579 547 539 q 518 592 525 592 q 506 579 511 592 l 436 411 q 436 390 431 399 q 457 381 442 381 z "},"Ã":{"ha":1090,"x_min":-33,"x_max":1074,"o":"m 365 1067 l 243 1100 q 222 1115 229 1103 q 219 1140 215 1128 q 244 1208 229 1174 q 282 1272 260 1243 q 335 1320 304 1301 q 407 1340 365 1339 q 490 1322 456 1342 q 551 1284 524 1301 q 601 1265 578 1267 q 650 1299 624 1263 q 672 1315 658 1310 q 699 1315 686 1319 l 813 1274 q 833 1256 826 1268 q 835 1229 839 1243 q 803 1160 822 1193 q 760 1103 785 1128 q 703 1063 735 1078 q 632 1051 671 1049 q 564 1074 593 1054 q 510 1110 535 1094 q 463 1126 485 1126 q 415 1088 440 1125 q 393 1070 407 1076 q 365 1067 379 1064 m 375 985 q 394 1006 381 997 q 422 1015 407 1015 l 617 1015 q 644 1006 631 1015 q 663 985 657 997 l 1068 40 q 1066 14 1074 28 q 1036 0 1058 0 l 799 0 q 770 9 783 0 q 750 31 757 18 l 713 114 q 692 135 706 126 q 665 144 679 144 l 372 144 q 344 135 357 144 q 325 114 331 126 l 286 31 q 267 9 281 18 q 240 0 254 0 l 1 0 q -13 3 -6 0 q -26 11 -21 6 q -32 25 -31 17 q -28 44 -33 33 l 375 985 m 457 381 l 581 381 q 601 390 594 381 q 600 411 607 399 q 567 492 586 446 q 531 579 547 539 q 518 592 525 592 q 506 579 511 592 l 436 411 q 436 390 431 399 q 457 381 442 381 z "},"Ä":{"ha":1090,"x_min":-33,"x_max":1074,"o":"m 222 1208 q 233 1261 222 1236 q 262 1304 243 1286 q 306 1333 281 1322 q 360 1343 331 1343 q 456 1304 418 1343 q 493 1208 493 1265 q 456 1112 493 1150 q 360 1074 418 1074 q 306 1084 331 1074 q 262 1113 281 1094 q 233 1155 243 1131 q 222 1208 222 1179 m 533 1208 q 544 1261 533 1236 q 572 1304 554 1286 q 615 1333 590 1322 q 669 1343 640 1343 q 765 1304 726 1343 q 804 1208 804 1265 q 765 1112 804 1150 q 669 1074 726 1074 q 572 1112 611 1074 q 533 1208 533 1150 m 375 985 q 394 1006 381 997 q 422 1015 407 1015 l 617 1015 q 644 1006 631 1015 q 663 985 657 997 l 1068 40 q 1066 14 1074 28 q 1036 0 1058 0 l 799 0 q 770 9 783 0 q 750 31 757 18 l 713 114 q 692 135 706 126 q 665 144 679 144 l 372 144 q 344 135 357 144 q 325 114 331 126 l 286 31 q 267 9 281 18 q 240 0 254 0 l 1 0 q -13 3 -6 0 q -26 11 -21 6 q -32 25 -31 17 q -28 44 -33 33 l 375 985 m 457 381 l 581 381 q 601 390 594 381 q 600 411 607 399 q 567 492 586 446 q 531 579 547 539 q 518 592 525 592 q 506 579 511 592 l 436 411 q 436 390 431 399 q 457 381 442 381 z "},"Å":{"ha":1090,"x_min":-33,"x_max":1074,"o":"m 1068 40 q 1066 14 1074 28 q 1036 0 1058 0 l 799 0 q 770 9 783 0 q 750 31 757 18 l 713 114 q 692 135 706 126 q 665 144 679 144 l 372 144 q 344 135 357 144 q 325 114 331 126 l 286 31 q 267 9 281 18 q 240 0 254 0 l 1 0 q -13 3 -6 0 q -26 11 -21 6 q -32 25 -31 17 q -28 44 -33 33 l 371 976 q 343 1029 353 1000 q 333 1090 333 1058 q 348 1162 333 1128 q 388 1221 363 1196 q 446 1260 413 1246 q 518 1275 479 1275 q 590 1260 556 1275 q 649 1221 624 1246 q 688 1162 674 1196 q 703 1090 703 1128 q 665 979 703 1028 l 1068 40 m 457 381 l 581 381 q 601 390 594 381 q 600 411 607 399 q 567 492 586 446 q 531 579 547 539 q 518 592 525 592 q 506 579 511 592 l 436 411 q 436 390 431 399 q 457 381 442 381 m 458 1089 q 476 1047 458 1064 q 518 1029 493 1029 q 560 1047 543 1029 q 578 1089 578 1064 q 560 1131 578 1114 q 518 1149 543 1149 q 476 1131 493 1149 q 458 1089 458 1114 z "},"Ç":{"ha":1086,"x_min":28,"x_max":1064,"o":"m 419 -294 l 444 -240 q 463 -223 450 -228 q 489 -221 475 -218 q 520 -228 503 -225 q 560 -232 538 -232 q 569 -232 561 -232 q 585 -228 576 -232 q 600 -218 593 -225 q 607 -196 607 -211 q 590 -172 607 -178 q 561 -165 572 -165 q 533 -169 546 -167 q 511 -175 521 -172 q 482 -176 497 -179 q 457 -162 467 -174 l 457 -161 q 444 -135 447 -151 q 446 -106 442 -119 l 476 -32 q 473 -17 479 -22 q 457 -8 467 -11 q 286 57 365 10 q 150 172 207 104 q 60 326 93 240 q 28 507 28 411 q 69 711 28 615 q 184 878 111 807 q 354 990 257 949 q 563 1032 451 1032 q 728 1011 654 1032 q 861 953 801 990 q 969 862 921 915 q 1057 744 1017 808 q 1060 721 1064 733 q 1043 703 1056 708 l 846 625 q 818 625 832 619 q 797 642 804 631 q 700 740 757 706 q 563 774 643 774 q 463 751 510 774 q 382 692 417 729 q 328 607 347 656 q 308 507 308 558 q 328 406 308 454 q 382 322 347 358 q 463 264 417 286 q 563 242 510 242 q 701 278 639 242 q 799 374 763 315 q 819 390 806 385 q 846 390 832 396 l 1043 313 q 1060 295 1056 307 q 1057 271 1064 283 q 882 76 985 153 q 629 -14 779 0 l 626 -15 q 615 -32 611 -18 q 643 -46 619 -46 q 693 -61 665 -46 q 742 -107 721 -76 q 761 -158 754 -126 q 765 -218 768 -189 q 738 -301 763 -267 q 674 -354 714 -335 q 611 -372 642 -369 q 569 -375 581 -375 q 489 -363 524 -374 q 433 -342 454 -353 q 417 -321 421 -335 q 419 -294 413 -307 z "},"Š":{"ha":944,"x_min":28,"x_max":876,"o":"m 190 349 q 339 272 265 300 q 476 244 413 244 q 569 262 538 244 q 601 314 601 279 q 588 342 601 332 q 551 360 574 353 q 497 371 528 367 q 435 382 467 375 q 363 395 404 388 q 279 417 322 403 q 194 454 236 432 q 118 511 151 476 q 65 594 85 546 q 44 707 44 642 q 82 865 44 803 q 177 965 119 928 q 306 1016 235 1001 q 443 1031 376 1031 q 652 997 560 1031 q 829 897 744 963 q 842 874 840 888 q 835 849 843 860 l 726 694 q 704 681 718 683 q 679 686 690 678 q 547 749 608 731 q 435 768 486 768 q 399 767 419 768 q 361 762 379 767 q 331 746 343 757 q 319 715 319 735 q 349 681 319 696 q 415 654 378 665 q 488 637 453 643 q 532 629 522 631 q 642 601 582 619 q 753 545 701 582 q 841 449 806 508 q 876 301 876 390 q 847 158 876 218 q 766 58 818 97 q 641 1 714 19 q 479 -18 568 -18 q 344 -6 407 -18 q 228 26 282 6 q 127 76 174 47 q 42 136 81 104 q 29 159 31 144 q 36 185 28 174 l 143 339 q 165 353 151 350 q 190 349 179 356 m 507 1058 l 379 1058 q 349 1066 365 1058 q 325 1085 333 1074 l 132 1326 q 127 1344 124 1338 q 144 1351 131 1351 l 343 1351 q 373 1344 357 1351 q 399 1326 389 1338 l 422 1299 q 443 1288 431 1288 q 464 1299 456 1288 l 485 1326 q 509 1344 493 1338 q 539 1351 525 1351 l 739 1351 q 756 1344 753 1351 q 751 1326 760 1338 l 561 1085 q 537 1066 553 1074 q 507 1058 521 1058 z "},"Ž":{"ha":985,"x_min":54,"x_max":907,"o":"m 535 1058 l 407 1058 q 377 1066 393 1058 q 353 1085 361 1074 l 160 1326 q 155 1344 151 1338 q 172 1351 158 1351 l 371 1351 q 401 1344 385 1351 q 426 1326 417 1338 l 450 1299 q 471 1288 458 1288 q 492 1299 483 1288 l 513 1326 q 537 1344 521 1338 q 567 1351 553 1351 l 767 1351 q 784 1344 781 1351 q 779 1326 788 1338 l 589 1085 q 565 1066 581 1074 q 535 1058 549 1058 m 874 0 l 88 0 q 64 10 74 0 q 54 33 54 19 l 54 189 q 61 219 54 203 q 76 247 68 236 l 501 724 q 507 747 510 735 q 489 760 504 760 l 88 760 q 64 769 74 760 q 54 793 54 779 l 54 983 q 64 1007 54 997 q 88 1017 74 1017 l 874 1017 q 898 1007 889 1017 q 907 983 907 997 l 907 826 q 901 796 907 813 q 886 768 894 779 l 461 290 q 456 267 453 279 q 472 256 458 256 l 874 256 q 898 246 889 256 q 907 222 907 236 l 907 33 q 898 10 907 19 q 874 0 889 0 z "},"Ÿ":{"ha":985,"x_min":-36,"x_max":983,"o":"m 183 1208 q 194 1261 183 1236 q 223 1304 204 1286 q 267 1333 242 1322 q 321 1343 292 1343 q 417 1304 379 1343 q 454 1208 454 1265 q 417 1112 454 1150 q 321 1074 379 1074 q 267 1084 292 1074 q 223 1113 242 1094 q 194 1155 204 1131 q 183 1208 183 1179 m 494 1208 q 505 1261 494 1236 q 533 1304 515 1286 q 576 1333 551 1322 q 631 1343 601 1343 q 726 1304 688 1343 q 765 1208 765 1265 q 726 1112 765 1150 q 631 1074 688 1074 q 533 1112 572 1074 q 494 1208 494 1150 m 972 976 l 625 414 q 613 383 618 401 q 607 351 607 365 l 607 33 q 597 10 607 19 q 574 0 588 0 l 364 0 q 340 10 350 0 q 331 33 331 19 l 331 350 q 326 383 331 364 q 314 413 321 401 q 144 693 231 556 q -29 976 57 831 q -32 1002 -36 989 q -14 1015 -28 1015 l 233 1015 q 262 1007 247 1015 q 283 986 276 999 l 454 689 q 471 678 461 678 q 488 689 481 678 l 657 986 q 678 1007 664 999 q 707 1015 693 1015 l 957 1015 q 977 1006 971 1015 q 972 976 983 996 z "},"È":{"ha":949,"x_min":74,"x_max":847,"o":"m 349 728 l 349 669 q 358 646 349 656 q 382 636 368 636 l 758 636 q 782 626 772 636 q 792 603 792 617 l 792 411 q 782 388 792 397 q 758 378 772 378 l 382 378 q 358 368 368 378 q 349 344 349 358 l 349 292 q 358 268 349 278 q 382 258 368 258 l 814 258 q 838 249 828 258 q 847 225 847 239 l 847 33 q 838 10 847 19 q 814 0 828 0 l 107 0 q 83 10 93 0 q 74 33 74 19 l 74 983 q 83 1007 74 997 q 107 1017 93 1017 l 814 1017 q 838 1007 828 1017 q 847 983 847 997 l 847 794 q 838 771 847 781 q 814 761 828 761 l 382 761 q 358 751 368 761 q 349 728 349 742 m 617 1063 l 440 1063 q 409 1069 426 1063 q 381 1083 392 1075 l 181 1232 q 185 1265 157 1251 l 385 1351 q 413 1353 397 1357 q 436 1338 428 1349 l 629 1089 q 634 1070 638 1078 q 617 1063 631 1063 z "},"É":{"ha":949,"x_min":74,"x_max":847,"o":"m 349 728 l 349 669 q 358 646 349 656 q 382 636 368 636 l 758 636 q 782 626 772 636 q 792 603 792 617 l 792 411 q 782 388 792 397 q 758 378 772 378 l 382 378 q 358 368 368 378 q 349 344 349 358 l 349 292 q 358 268 349 278 q 382 258 368 258 l 814 258 q 838 249 828 258 q 847 225 847 239 l 847 33 q 838 10 847 19 q 814 0 828 0 l 107 0 q 83 10 93 0 q 74 33 74 19 l 74 983 q 83 1007 74 997 q 107 1017 93 1017 l 814 1017 q 838 1007 828 1017 q 847 983 847 997 l 847 794 q 838 771 847 781 q 814 761 828 761 l 382 761 q 358 751 368 761 q 349 728 349 742 m 515 1351 l 715 1265 q 719 1232 743 1251 l 521 1083 q 492 1069 510 1075 q 461 1063 475 1063 l 285 1063 q 267 1070 271 1063 q 272 1089 263 1078 l 464 1338 q 488 1353 472 1349 q 515 1351 503 1357 z "},"Ê":{"ha":949,"x_min":74,"x_max":847,"o":"m 349 728 l 349 669 q 358 646 349 656 q 382 636 368 636 l 758 636 q 782 626 772 636 q 792 603 792 617 l 792 411 q 782 388 792 397 q 758 378 772 378 l 382 378 q 358 368 368 378 q 349 344 349 358 l 349 292 q 358 268 349 278 q 382 258 368 258 l 814 258 q 838 249 828 258 q 847 225 847 239 l 847 33 q 838 10 847 19 q 814 0 828 0 l 107 0 q 83 10 93 0 q 74 33 74 19 l 74 983 q 83 1007 74 997 q 107 1017 93 1017 l 814 1017 q 838 1007 828 1017 q 847 983 847 997 l 847 794 q 838 771 847 781 q 814 761 828 761 l 382 761 q 358 751 368 761 q 349 728 349 742 m 388 1351 l 515 1351 q 545 1344 529 1351 q 569 1325 561 1336 l 763 1086 q 767 1067 771 1075 q 750 1060 764 1060 l 551 1060 q 522 1067 538 1060 q 497 1086 506 1075 l 472 1115 q 451 1126 464 1126 q 431 1114 439 1125 l 408 1085 q 385 1066 400 1074 q 356 1058 369 1058 l 156 1058 q 138 1066 142 1058 q 143 1085 135 1074 l 333 1325 q 358 1344 342 1336 q 388 1351 374 1351 z "},"Ë":{"ha":949,"x_min":74,"x_max":847,"o":"m 349 728 l 349 669 q 358 646 349 656 q 382 636 368 636 l 758 636 q 782 626 772 636 q 792 603 792 617 l 792 411 q 782 388 792 397 q 758 378 772 378 l 382 378 q 358 368 368 378 q 349 344 349 358 l 349 292 q 358 268 349 278 q 382 258 368 258 l 814 258 q 838 249 828 258 q 847 225 847 239 l 847 33 q 838 10 847 19 q 814 0 828 0 l 107 0 q 83 10 93 0 q 74 33 74 19 l 74 983 q 83 1007 74 997 q 107 1017 93 1017 l 814 1017 q 838 1007 828 1017 q 847 983 847 997 l 847 794 q 838 771 847 781 q 814 761 828 761 l 382 761 q 358 751 368 761 q 349 728 349 742 m 160 1208 q 170 1261 160 1236 q 199 1304 181 1286 q 243 1333 218 1322 q 297 1343 268 1343 q 393 1304 356 1343 q 431 1208 431 1265 q 393 1112 431 1150 q 297 1074 356 1074 q 243 1084 268 1074 q 199 1113 218 1094 q 170 1155 181 1131 q 160 1208 160 1179 m 471 1208 q 481 1261 471 1236 q 510 1304 492 1286 q 553 1333 528 1322 q 607 1343 578 1343 q 703 1304 664 1343 q 742 1208 742 1265 q 703 1112 742 1150 q 607 1074 664 1074 q 510 1112 549 1074 q 471 1208 471 1150 z "},"Ì":{"ha":472,"x_min":-135,"x_max":363,"o":"m 329 0 l 119 0 q 95 10 104 0 q 86 33 86 19 l 86 982 q 95 1006 86 996 q 119 1015 104 1015 l 329 1015 q 353 1006 343 1015 q 363 982 363 996 l 363 33 q 353 10 363 19 q 329 0 343 0 m 325 1063 l 149 1063 q 117 1069 135 1063 q 89 1083 100 1075 l -111 1232 q -107 1265 -135 1251 l 93 1351 q 121 1353 106 1357 q 144 1338 136 1349 l 338 1089 q 342 1070 346 1078 q 325 1063 339 1063 z "},"Í":{"ha":472,"x_min":86,"x_max":572,"o":"m 329 0 l 119 0 q 95 10 104 0 q 86 33 86 19 l 86 982 q 95 1006 86 996 q 119 1015 104 1015 l 329 1015 q 353 1006 343 1015 q 363 982 363 996 l 363 33 q 353 10 363 19 q 329 0 343 0 m 344 1351 l 544 1265 q 549 1232 572 1251 l 350 1083 q 322 1069 339 1075 q 290 1063 304 1063 l 114 1063 q 96 1070 100 1063 q 101 1089 92 1078 l 293 1338 q 317 1353 301 1349 q 344 1351 332 1357 z "},"Î":{"ha":472,"x_min":-94,"x_max":542,"o":"m 329 0 l 119 0 q 95 10 104 0 q 86 33 86 19 l 86 982 q 95 1006 86 996 q 119 1015 104 1015 l 329 1015 q 353 1006 343 1015 q 363 982 363 996 l 363 33 q 353 10 363 19 q 329 0 343 0 m 158 1351 l 286 1351 q 316 1344 300 1351 q 340 1325 332 1336 l 533 1086 q 538 1067 542 1075 q 521 1060 535 1060 l 322 1060 q 292 1067 308 1060 q 268 1086 276 1075 l 243 1115 q 222 1126 235 1126 q 201 1114 210 1125 l 179 1085 q 156 1066 171 1074 q 126 1058 140 1058 l -74 1058 q -91 1066 -87 1058 q -86 1085 -94 1074 l 104 1325 q 128 1344 113 1336 q 158 1351 144 1351 z "},"Ï":{"ha":472,"x_min":-68,"x_max":514,"o":"m 329 0 l 119 0 q 95 10 104 0 q 86 33 86 19 l 86 982 q 95 1006 86 996 q 119 1015 104 1015 l 329 1015 q 353 1006 343 1015 q 363 982 363 996 l 363 33 q 353 10 363 19 q 329 0 343 0 m -68 1208 q -58 1261 -68 1236 q -28 1304 -47 1286 q 15 1333 -10 1322 q 69 1343 40 1343 q 165 1304 128 1343 q 203 1208 203 1265 q 165 1112 203 1150 q 69 1074 128 1074 q 15 1084 40 1074 q -28 1113 -10 1094 q -58 1155 -47 1131 q -68 1208 -68 1179 m 243 1208 q 253 1261 243 1236 q 282 1304 264 1286 q 325 1333 300 1322 q 379 1343 350 1343 q 475 1304 436 1343 q 514 1208 514 1265 q 475 1112 514 1150 q 379 1074 436 1074 q 282 1112 321 1074 q 243 1208 243 1150 z "},"Ñ":{"ha":1164,"x_min":76,"x_max":1031,"o":"m 381 1067 l 258 1100 q 238 1115 244 1103 q 235 1140 231 1128 q 260 1208 244 1174 q 297 1272 275 1243 q 350 1320 319 1301 q 422 1340 381 1339 q 505 1322 471 1342 q 566 1284 539 1301 q 616 1265 593 1267 q 665 1299 639 1263 q 688 1315 674 1310 q 714 1315 701 1319 l 828 1274 q 848 1256 842 1268 q 850 1229 854 1243 q 819 1160 838 1193 q 775 1103 800 1128 q 718 1063 750 1078 q 647 1051 686 1049 q 579 1074 608 1054 q 525 1110 550 1094 q 478 1126 500 1126 q 431 1088 456 1125 q 408 1070 422 1076 q 381 1067 394 1064 m 1031 983 l 1031 33 q 1021 10 1031 19 q 997 0 1011 0 l 792 0 q 763 8 778 0 q 739 28 747 17 l 376 538 q 359 547 368 549 q 350 531 350 544 l 350 33 q 340 10 350 19 q 317 0 331 0 l 110 0 q 86 10 96 0 q 76 33 76 19 l 76 983 q 86 1007 76 997 q 110 1017 96 1017 l 318 1017 q 347 1009 332 1017 q 371 990 363 1001 l 732 481 q 749 471 740 469 q 758 486 758 472 l 758 983 q 768 1007 758 997 q 792 1017 778 1017 l 997 1017 q 1021 1007 1011 1017 q 1031 983 1031 997 z "},"Ò":{"ha":1150,"x_min":31,"x_max":1082,"o":"m 31 508 q 72 713 31 617 q 185 880 114 808 q 351 993 256 951 q 556 1035 447 1035 q 760 993 664 1035 q 927 880 856 951 q 1040 713 999 808 q 1082 508 1082 617 q 1040 304 1082 400 q 927 137 999 208 q 760 24 856 65 q 556 -18 664 -18 q 351 24 447 -18 q 185 137 256 65 q 72 304 114 208 q 31 508 31 400 m 306 508 q 325 408 306 456 q 378 325 344 361 q 458 267 413 289 q 556 246 504 246 q 653 267 607 246 q 733 325 699 289 q 788 408 768 361 q 807 508 807 456 q 788 608 807 560 q 733 691 768 656 q 653 748 699 726 q 556 769 607 769 q 458 748 504 769 q 378 691 413 726 q 325 608 344 656 q 306 508 306 560 m 711 1063 l 535 1063 q 503 1069 521 1063 q 475 1083 486 1075 l 275 1232 q 279 1265 251 1251 l 479 1351 q 507 1353 492 1357 q 531 1338 522 1349 l 724 1089 q 728 1070 732 1078 q 711 1063 725 1063 z "},"Ó":{"ha":1150,"x_min":31,"x_max":1082,"o":"m 31 508 q 72 713 31 617 q 185 880 114 808 q 351 993 256 951 q 556 1035 447 1035 q 760 993 664 1035 q 927 880 856 951 q 1040 713 999 808 q 1082 508 1082 617 q 1040 304 1082 400 q 927 137 999 208 q 760 24 856 65 q 556 -18 664 -18 q 351 24 447 -18 q 185 137 256 65 q 72 304 114 208 q 31 508 31 400 m 306 508 q 325 408 306 456 q 378 325 344 361 q 458 267 413 289 q 556 246 504 246 q 653 267 607 246 q 733 325 699 289 q 788 408 768 361 q 807 508 807 456 q 788 608 807 560 q 733 691 768 656 q 653 748 699 726 q 556 769 607 769 q 458 748 504 769 q 378 691 413 726 q 325 608 344 656 q 306 508 306 560 m 628 1351 l 828 1265 q 832 1232 856 1251 l 633 1083 q 605 1069 622 1075 q 574 1063 588 1063 l 397 1063 q 379 1070 383 1063 q 385 1089 375 1078 l 576 1338 q 600 1353 585 1349 q 628 1351 615 1357 z "},"Ô":{"ha":1150,"x_min":31,"x_max":1082,"o":"m 31 508 q 72 713 31 617 q 185 880 114 808 q 351 993 256 951 q 556 1035 447 1035 q 760 993 664 1035 q 927 880 856 951 q 1040 713 999 808 q 1082 508 1082 617 q 1040 304 1082 400 q 927 137 999 208 q 760 24 856 65 q 556 -18 664 -18 q 351 24 447 -18 q 185 137 256 65 q 72 304 114 208 q 31 508 31 400 m 306 508 q 325 408 306 456 q 378 325 344 361 q 458 267 413 289 q 556 246 504 246 q 653 267 607 246 q 733 325 699 289 q 788 408 768 361 q 807 508 807 456 q 788 608 807 560 q 733 691 768 656 q 653 748 699 726 q 556 769 607 769 q 458 748 504 769 q 378 691 413 726 q 325 608 344 656 q 306 508 306 560 m 489 1351 l 617 1351 q 647 1344 631 1351 q 671 1325 663 1336 l 864 1086 q 869 1067 872 1075 q 851 1060 865 1060 l 653 1060 q 623 1067 639 1060 q 599 1086 607 1075 l 574 1115 q 553 1126 565 1126 q 532 1114 540 1125 l 510 1085 q 486 1066 501 1074 q 457 1058 471 1058 l 257 1058 q 240 1066 243 1058 q 244 1085 236 1074 l 435 1325 q 459 1344 443 1336 q 489 1351 475 1351 z "},"Õ":{"ha":1150,"x_min":31,"x_max":1082,"o":"m 31 508 q 72 713 31 617 q 185 880 114 808 q 351 993 256 951 q 556 1035 447 1035 q 760 993 664 1035 q 927 880 856 951 q 1040 713 999 808 q 1082 508 1082 617 q 1040 304 1082 400 q 927 137 999 208 q 760 24 856 65 q 556 -18 664 -18 q 351 24 447 -18 q 185 137 256 65 q 72 304 114 208 q 31 508 31 400 m 306 508 q 325 408 306 456 q 378 325 344 361 q 458 267 413 289 q 556 246 504 246 q 653 267 607 246 q 733 325 699 289 q 788 408 768 361 q 807 508 807 456 q 788 608 807 560 q 733 691 768 656 q 653 748 699 726 q 556 769 607 769 q 458 748 504 769 q 378 691 413 726 q 325 608 344 656 q 306 508 306 560 m 381 1067 l 258 1100 q 238 1115 244 1103 q 235 1140 231 1128 q 260 1208 244 1174 q 297 1272 275 1243 q 350 1320 319 1301 q 422 1340 381 1339 q 505 1322 471 1342 q 566 1284 539 1301 q 616 1265 593 1267 q 665 1299 639 1263 q 688 1315 674 1310 q 714 1315 701 1319 l 828 1274 q 848 1256 842 1268 q 850 1229 854 1243 q 819 1160 838 1193 q 775 1103 800 1128 q 718 1063 750 1078 q 647 1051 686 1049 q 579 1074 608 1054 q 525 1110 550 1094 q 478 1126 500 1126 q 431 1088 456 1125 q 408 1070 422 1076 q 381 1067 394 1064 z "},"Ö":{"ha":1150,"x_min":31,"x_max":1082,"o":"m 31 508 q 72 713 31 617 q 185 880 114 808 q 351 993 256 951 q 556 1035 447 1035 q 760 993 664 1035 q 927 880 856 951 q 1040 713 999 808 q 1082 508 1082 617 q 1040 304 1082 400 q 927 137 999 208 q 760 24 856 65 q 556 -18 664 -18 q 351 24 447 -18 q 185 137 256 65 q 72 304 114 208 q 31 508 31 400 m 306 508 q 325 408 306 456 q 378 325 344 361 q 458 267 413 289 q 556 246 504 246 q 653 267 607 246 q 733 325 699 289 q 788 408 768 361 q 807 508 807 456 q 788 608 807 560 q 733 691 768 656 q 653 748 699 726 q 556 769 607 769 q 458 748 504 769 q 378 691 413 726 q 325 608 344 656 q 306 508 306 560 m 264 1208 q 274 1261 264 1236 q 303 1304 285 1286 q 347 1333 322 1322 q 401 1343 372 1343 q 497 1304 460 1343 q 535 1208 535 1265 q 497 1112 535 1150 q 401 1074 460 1074 q 347 1084 372 1074 q 303 1113 322 1094 q 274 1155 285 1131 q 264 1208 264 1179 m 575 1208 q 585 1261 575 1236 q 614 1304 596 1286 q 657 1333 632 1322 q 711 1343 682 1343 q 807 1304 768 1343 q 846 1208 846 1265 q 807 1112 846 1150 q 711 1074 768 1074 q 614 1112 653 1074 q 575 1208 575 1150 z "},"Ù":{"ha":1094,"x_min":75,"x_max":963,"o":"m 75 982 q 85 1006 75 996 q 108 1015 94 1015 l 318 1015 q 342 1006 332 1015 q 351 982 351 996 l 351 419 q 369 330 351 365 q 412 274 386 294 q 467 246 438 254 q 519 238 496 238 q 572 246 543 238 q 626 274 601 254 q 669 330 651 294 q 686 419 686 365 l 686 982 q 696 1006 686 996 q 719 1015 706 1015 l 929 1015 q 953 1006 943 1015 q 963 982 963 996 l 963 419 q 931 240 963 321 q 842 103 900 160 q 701 15 783 46 q 519 -17 619 -17 q 338 15 419 -17 q 197 103 256 46 q 107 240 139 160 q 75 419 75 321 l 75 982 m 681 1063 l 504 1063 q 473 1069 490 1063 q 444 1083 456 1075 l 244 1232 q 249 1265 221 1251 l 449 1351 q 476 1353 461 1357 q 500 1338 492 1349 l 693 1089 q 698 1070 701 1078 q 681 1063 694 1063 z "},"Ú":{"ha":1094,"x_min":75,"x_max":963,"o":"m 75 982 q 85 1006 75 996 q 108 1015 94 1015 l 318 1015 q 342 1006 332 1015 q 351 982 351 996 l 351 419 q 369 330 351 365 q 412 274 386 294 q 467 246 438 254 q 519 238 496 238 q 572 246 543 238 q 626 274 601 254 q 669 330 651 294 q 686 419 686 365 l 686 982 q 696 1006 686 996 q 719 1015 706 1015 l 929 1015 q 953 1006 943 1015 q 963 982 963 996 l 963 419 q 931 240 963 321 q 842 103 900 160 q 701 15 783 46 q 519 -17 619 -17 q 338 15 419 -17 q 197 103 256 46 q 107 240 139 160 q 75 419 75 321 l 75 982 m 578 1351 l 778 1265 q 782 1232 806 1251 l 583 1083 q 555 1069 572 1075 q 524 1063 538 1063 l 347 1063 q 329 1070 333 1063 q 335 1089 325 1078 l 526 1338 q 550 1353 535 1349 q 578 1351 565 1357 z "},"Û":{"ha":1094,"x_min":75,"x_max":963,"o":"m 75 982 q 85 1006 75 996 q 108 1015 94 1015 l 318 1015 q 342 1006 332 1015 q 351 982 351 996 l 351 419 q 369 330 351 365 q 412 274 386 294 q 467 246 438 254 q 519 238 496 238 q 572 246 543 238 q 626 274 601 254 q 669 330 651 294 q 686 419 686 365 l 686 982 q 696 1006 686 996 q 719 1015 706 1015 l 929 1015 q 953 1006 943 1015 q 963 982 963 996 l 963 419 q 931 240 963 321 q 842 103 900 160 q 701 15 783 46 q 519 -17 619 -17 q 338 15 419 -17 q 197 103 256 46 q 107 240 139 160 q 75 419 75 321 l 75 982 m 453 1351 l 581 1351 q 610 1344 594 1351 q 635 1325 626 1336 l 828 1086 q 833 1067 836 1075 q 815 1060 829 1060 l 617 1060 q 587 1067 603 1060 q 563 1086 571 1075 l 538 1115 q 517 1126 529 1126 q 496 1114 504 1125 l 474 1085 q 450 1066 465 1074 q 421 1058 435 1058 l 221 1058 q 203 1066 207 1058 q 208 1085 200 1074 l 399 1325 q 423 1344 407 1336 q 453 1351 439 1351 z "},"Ü":{"ha":1094,"x_min":75,"x_max":963,"o":"m 75 982 q 85 1006 75 996 q 108 1015 94 1015 l 318 1015 q 342 1006 332 1015 q 351 982 351 996 l 351 419 q 369 330 351 365 q 412 274 386 294 q 467 246 438 254 q 519 238 496 238 q 572 246 543 238 q 626 274 601 254 q 669 330 651 294 q 686 419 686 365 l 686 982 q 696 1006 686 996 q 719 1015 706 1015 l 929 1015 q 953 1006 943 1015 q 963 982 963 996 l 963 419 q 931 240 963 321 q 842 103 900 160 q 701 15 783 46 q 519 -17 619 -17 q 338 15 419 -17 q 197 103 256 46 q 107 240 139 160 q 75 419 75 321 l 75 982 m 226 1208 q 237 1261 226 1236 q 266 1304 247 1286 q 310 1333 285 1322 q 364 1343 335 1343 q 460 1304 422 1343 q 497 1208 497 1265 q 460 1112 497 1150 q 364 1074 422 1074 q 310 1084 335 1074 q 266 1113 285 1094 q 237 1155 247 1131 q 226 1208 226 1179 m 538 1208 q 548 1261 538 1236 q 576 1304 558 1286 q 619 1333 594 1322 q 674 1343 644 1343 q 769 1304 731 1343 q 808 1208 808 1265 q 769 1112 808 1150 q 674 1074 731 1074 q 576 1112 615 1074 q 538 1208 538 1150 z "},"Ý":{"ha":985,"x_min":-36,"x_max":983,"o":"m 536 1351 l 736 1265 q 740 1232 764 1251 l 542 1083 q 513 1069 531 1075 q 482 1063 496 1063 l 306 1063 q 288 1070 292 1063 q 293 1089 283 1078 l 485 1338 q 508 1353 493 1349 q 536 1351 524 1357 m 972 976 l 625 414 q 613 383 618 401 q 607 351 607 365 l 607 33 q 597 10 607 19 q 574 0 588 0 l 364 0 q 340 10 350 0 q 331 33 331 19 l 331 350 q 326 383 331 364 q 314 413 321 401 q 144 693 231 556 q -29 976 57 831 q -32 1002 -36 989 q -14 1015 -28 1015 l 233 1015 q 262 1007 247 1015 q 283 986 276 999 l 454 689 q 471 678 461 678 q 488 689 481 678 l 657 986 q 678 1007 664 999 q 707 1015 693 1015 l 957 1015 q 977 1006 971 1015 q 972 976 983 996 z "},"ø":{"ha":1175,"x_min":33,"x_max":1085,"o":"m 196 -26 l 75 78 q 63 99 64 86 q 72 124 63 113 l 113 172 q 123 199 122 183 q 115 225 124 214 q 55 358 76 288 q 33 508 33 429 q 75 713 33 617 q 188 880 117 808 q 354 993 258 951 q 558 1035 450 1035 q 785 983 678 1035 q 812 980 797 978 q 836 993 826 982 l 874 1036 q 897 1048 883 1047 q 921 1039 910 1049 l 1040 933 q 1052 910 1051 924 q 1043 886 1053 897 l 1006 843 q 995 817 996 832 q 1001 790 994 803 q 1063 657 1042 728 q 1085 508 1085 586 q 1043 304 1085 400 q 930 137 1001 208 q 763 24 858 65 q 558 -18 667 -18 q 442 -5 499 -18 q 335 32 386 8 q 308 35 322 38 q 283 21 293 32 l 243 -24 q 220 -35 233 -35 q 196 -26 207 -36 m 315 446 q 328 430 318 432 q 349 439 339 428 l 610 733 q 617 754 619 744 q 600 767 614 764 q 579 769 589 769 q 558 769 569 769 q 461 748 507 769 q 381 691 415 726 q 328 608 347 656 q 308 508 308 560 q 315 446 308 481 m 803 568 q 790 584 800 582 q 771 575 781 586 l 511 282 q 504 262 501 271 q 521 250 507 253 q 558 246 539 246 q 656 267 610 246 q 736 325 701 289 q 790 408 771 361 q 810 508 810 456 q 803 568 810 536 z "},"ž":{"ha":985,"x_min":54,"x_max":907,"o":"m 535 1058 l 407 1058 q 377 1066 393 1058 q 353 1085 361 1074 l 160 1326 q 155 1344 151 1338 q 172 1351 158 1351 l 371 1351 q 401 1344 385 1351 q 426 1326 417 1338 l 450 1299 q 471 1288 458 1288 q 492 1299 483 1288 l 513 1326 q 537 1344 521 1338 q 567 1351 553 1351 l 767 1351 q 784 1344 781 1351 q 779 1326 788 1338 l 589 1085 q 565 1066 581 1074 q 535 1058 549 1058 m 874 0 l 88 0 q 64 10 74 0 q 54 33 54 19 l 54 189 q 61 219 54 203 q 76 247 68 236 l 501 724 q 507 747 510 735 q 489 760 504 760 l 88 760 q 64 769 74 760 q 54 793 54 779 l 54 983 q 64 1007 54 997 q 88 1017 74 1017 l 874 1017 q 898 1007 889 1017 q 907 983 907 997 l 907 826 q 901 796 907 813 q 886 768 894 779 l 461 290 q 456 267 453 279 q 472 256 458 256 l 874 256 q 898 246 889 256 q 907 222 907 236 l 907 33 q 898 10 907 19 q 874 0 889 0 z "},"à":{"ha":1090,"x_min":-33,"x_max":1074,"o":"m 632 1063 l 456 1063 q 424 1069 442 1063 q 396 1083 407 1075 l 196 1232 q 200 1265 172 1251 l 400 1351 q 428 1353 413 1357 q 451 1338 443 1349 l 644 1089 q 649 1070 653 1078 q 632 1063 646 1063 m 375 985 q 394 1006 381 997 q 422 1015 407 1015 l 617 1015 q 644 1006 631 1015 q 663 985 657 997 l 1068 40 q 1066 14 1074 28 q 1036 0 1058 0 l 799 0 q 770 9 783 0 q 750 31 757 18 l 713 114 q 692 135 706 126 q 665 144 679 144 l 372 144 q 344 135 357 144 q 325 114 331 126 l 286 31 q 267 9 281 18 q 240 0 254 0 l 1 0 q -13 3 -6 0 q -26 11 -21 6 q -32 25 -31 17 q -28 44 -33 33 l 375 985 m 457 381 l 581 381 q 601 390 594 381 q 600 411 607 399 q 567 492 586 446 q 531 579 547 539 q 518 592 525 592 q 506 579 511 592 l 436 411 q 436 390 431 399 q 457 381 442 381 z "},"á":{"ha":1090,"x_min":-33,"x_max":1074,"o":"m 647 1351 l 847 1265 q 851 1232 875 1251 l 653 1083 q 624 1069 642 1075 q 593 1063 607 1063 l 417 1063 q 399 1070 403 1063 q 404 1089 394 1078 l 596 1338 q 619 1353 604 1349 q 647 1351 635 1357 m 375 985 q 394 1006 381 997 q 422 1015 407 1015 l 617 1015 q 644 1006 631 1015 q 663 985 657 997 l 1068 40 q 1066 14 1074 28 q 1036 0 1058 0 l 799 0 q 770 9 783 0 q 750 31 757 18 l 713 114 q 692 135 706 126 q 665 144 679 144 l 372 144 q 344 135 357 144 q 325 114 331 126 l 286 31 q 267 9 281 18 q 240 0 254 0 l 1 0 q -13 3 -6 0 q -26 11 -21 6 q -32 25 -31 17 q -28 44 -33 33 l 375 985 m 457 381 l 581 381 q 601 390 594 381 q 600 411 607 399 q 567 492 586 446 q 531 579 547 539 q 518 592 525 592 q 506 579 511 592 l 436 411 q 436 390 431 399 q 457 381 442 381 z "},"â":{"ha":1090,"x_min":-33,"x_max":1074,"o":"m 450 1351 l 578 1351 q 608 1344 592 1351 q 632 1325 624 1336 l 825 1086 q 830 1067 833 1075 q 813 1060 826 1060 l 614 1060 q 584 1067 600 1060 q 560 1086 568 1075 l 535 1115 q 514 1126 526 1126 q 493 1114 501 1125 l 471 1085 q 447 1066 463 1074 q 418 1058 432 1058 l 218 1058 q 201 1066 204 1058 q 206 1085 197 1074 l 396 1325 q 420 1344 404 1336 q 450 1351 436 1351 m 375 985 q 394 1006 381 997 q 422 1015 407 1015 l 617 1015 q 644 1006 631 1015 q 663 985 657 997 l 1068 40 q 1066 14 1074 28 q 1036 0 1058 0 l 799 0 q 770 9 783 0 q 750 31 757 18 l 713 114 q 692 135 706 126 q 665 144 679 144 l 372 144 q 344 135 357 144 q 325 114 331 126 l 286 31 q 267 9 281 18 q 240 0 254 0 l 1 0 q -13 3 -6 0 q -26 11 -21 6 q -32 25 -31 17 q -28 44 -33 33 l 375 985 m 457 381 l 581 381 q 601 390 594 381 q 600 411 607 399 q 567 492 586 446 q 531 579 547 539 q 518 592 525 592 q 506 579 511 592 l 436 411 q 436 390 431 399 q 457 381 442 381 z "},"ã":{"ha":1090,"x_min":-33,"x_max":1074,"o":"m 365 1067 l 243 1100 q 222 1115 229 1103 q 219 1140 215 1128 q 244 1208 229 1174 q 282 1272 260 1243 q 335 1320 304 1301 q 407 1340 365 1339 q 490 1322 456 1342 q 551 1284 524 1301 q 601 1265 578 1267 q 650 1299 624 1263 q 672 1315 658 1310 q 699 1315 686 1319 l 813 1274 q 833 1256 826 1268 q 835 1229 839 1243 q 803 1160 822 1193 q 760 1103 785 1128 q 703 1063 735 1078 q 632 1051 671 1049 q 564 1074 593 1054 q 510 1110 535 1094 q 463 1126 485 1126 q 415 1088 440 1125 q 393 1070 407 1076 q 365 1067 379 1064 m 375 985 q 394 1006 381 997 q 422 1015 407 1015 l 617 1015 q 644 1006 631 1015 q 663 985 657 997 l 1068 40 q 1066 14 1074 28 q 1036 0 1058 0 l 799 0 q 770 9 783 0 q 750 31 757 18 l 713 114 q 692 135 706 126 q 665 144 679 144 l 372 144 q 344 135 357 144 q 325 114 331 126 l 286 31 q 267 9 281 18 q 240 0 254 0 l 1 0 q -13 3 -6 0 q -26 11 -21 6 q -32 25 -31 17 q -28 44 -33 33 l 375 985 m 457 381 l 581 381 q 601 390 594 381 q 600 411 607 399 q 567 492 586 446 q 531 579 547 539 q 518 592 525 592 q 506 579 511 592 l 436 411 q 436 390 431 399 q 457 381 442 381 z "},"ä":{"ha":1090,"x_min":-33,"x_max":1074,"o":"m 222 1208 q 233 1261 222 1236 q 262 1304 243 1286 q 306 1333 281 1322 q 360 1343 331 1343 q 456 1304 418 1343 q 493 1208 493 1265 q 456 1112 493 1150 q 360 1074 418 1074 q 306 1084 331 1074 q 262 1113 281 1094 q 233 1155 243 1131 q 222 1208 222 1179 m 533 1208 q 544 1261 533 1236 q 572 1304 554 1286 q 615 1333 590 1322 q 669 1343 640 1343 q 765 1304 726 1343 q 804 1208 804 1265 q 765 1112 804 1150 q 669 1074 726 1074 q 572 1112 611 1074 q 533 1208 533 1150 m 375 985 q 394 1006 381 997 q 422 1015 407 1015 l 617 1015 q 644 1006 631 1015 q 663 985 657 997 l 1068 40 q 1066 14 1074 28 q 1036 0 1058 0 l 799 0 q 770 9 783 0 q 750 31 757 18 l 713 114 q 692 135 706 126 q 665 144 679 144 l 372 144 q 344 135 357 144 q 325 114 331 126 l 286 31 q 267 9 281 18 q 240 0 254 0 l 1 0 q -13 3 -6 0 q -26 11 -21 6 q -32 25 -31 17 q -28 44 -33 33 l 375 985 m 457 381 l 581 381 q 601 390 594 381 q 600 411 607 399 q 567 492 586 446 q 531 579 547 539 q 518 592 525 592 q 506 579 511 592 l 436 411 q 436 390 431 399 q 457 381 442 381 z "},"å":{"ha":1090,"x_min":-33,"x_max":1074,"o":"m 1068 40 q 1066 14 1074 28 q 1036 0 1058 0 l 799 0 q 770 9 783 0 q 750 31 757 18 l 713 114 q 692 135 706 126 q 665 144 679 144 l 372 144 q 344 135 357 144 q 325 114 331 126 l 286 31 q 267 9 281 18 q 240 0 254 0 l 1 0 q -13 3 -6 0 q -26 11 -21 6 q -32 25 -31 17 q -28 44 -33 33 l 371 976 q 343 1029 353 1000 q 333 1090 333 1058 q 348 1162 333 1128 q 388 1221 363 1196 q 446 1260 413 1246 q 518 1275 479 1275 q 590 1260 556 1275 q 649 1221 624 1246 q 688 1162 674 1196 q 703 1090 703 1128 q 665 979 703 1028 l 1068 40 m 457 381 l 581 381 q 601 390 594 381 q 600 411 607 399 q 567 492 586 446 q 531 579 547 539 q 518 592 525 592 q 506 579 511 592 l 436 411 q 436 390 431 399 q 457 381 442 381 m 458 1089 q 476 1047 458 1064 q 518 1029 493 1029 q 560 1047 543 1029 q 578 1089 578 1064 q 560 1131 578 1114 q 518 1149 543 1149 q 476 1131 493 1149 q 458 1089 458 1114 z "},"è":{"ha":949,"x_min":74,"x_max":847,"o":"m 349 728 l 349 669 q 358 646 349 656 q 382 636 368 636 l 758 636 q 782 626 772 636 q 792 603 792 617 l 792 411 q 782 388 792 397 q 758 378 772 378 l 382 378 q 358 368 368 378 q 349 344 349 358 l 349 292 q 358 268 349 278 q 382 258 368 258 l 814 258 q 838 249 828 258 q 847 225 847 239 l 847 33 q 838 10 847 19 q 814 0 828 0 l 107 0 q 83 10 93 0 q 74 33 74 19 l 74 983 q 83 1007 74 997 q 107 1017 93 1017 l 814 1017 q 838 1007 828 1017 q 847 983 847 997 l 847 794 q 838 771 847 781 q 814 761 828 761 l 382 761 q 358 751 368 761 q 349 728 349 742 m 617 1063 l 440 1063 q 409 1069 426 1063 q 381 1083 392 1075 l 181 1232 q 185 1265 157 1251 l 385 1351 q 413 1353 397 1357 q 436 1338 428 1349 l 629 1089 q 634 1070 638 1078 q 617 1063 631 1063 z "},"é":{"ha":949,"x_min":74,"x_max":847,"o":"m 349 728 l 349 669 q 358 646 349 656 q 382 636 368 636 l 758 636 q 782 626 772 636 q 792 603 792 617 l 792 411 q 782 388 792 397 q 758 378 772 378 l 382 378 q 358 368 368 378 q 349 344 349 358 l 349 292 q 358 268 349 278 q 382 258 368 258 l 814 258 q 838 249 828 258 q 847 225 847 239 l 847 33 q 838 10 847 19 q 814 0 828 0 l 107 0 q 83 10 93 0 q 74 33 74 19 l 74 983 q 83 1007 74 997 q 107 1017 93 1017 l 814 1017 q 838 1007 828 1017 q 847 983 847 997 l 847 794 q 838 771 847 781 q 814 761 828 761 l 382 761 q 358 751 368 761 q 349 728 349 742 m 515 1351 l 715 1265 q 719 1232 743 1251 l 521 1083 q 492 1069 510 1075 q 461 1063 475 1063 l 285 1063 q 267 1070 271 1063 q 272 1089 263 1078 l 464 1338 q 488 1353 472 1349 q 515 1351 503 1357 z "},"ê":{"ha":949,"x_min":74,"x_max":847,"o":"m 349 728 l 349 669 q 358 646 349 656 q 382 636 368 636 l 758 636 q 782 626 772 636 q 792 603 792 617 l 792 411 q 782 388 792 397 q 758 378 772 378 l 382 378 q 358 368 368 378 q 349 344 349 358 l 349 292 q 358 268 349 278 q 382 258 368 258 l 814 258 q 838 249 828 258 q 847 225 847 239 l 847 33 q 838 10 847 19 q 814 0 828 0 l 107 0 q 83 10 93 0 q 74 33 74 19 l 74 983 q 83 1007 74 997 q 107 1017 93 1017 l 814 1017 q 838 1007 828 1017 q 847 983 847 997 l 847 794 q 838 771 847 781 q 814 761 828 761 l 382 761 q 358 751 368 761 q 349 728 349 742 m 388 1351 l 515 1351 q 545 1344 529 1351 q 569 1325 561 1336 l 763 1086 q 767 1067 771 1075 q 750 1060 764 1060 l 551 1060 q 522 1067 538 1060 q 497 1086 506 1075 l 472 1115 q 451 1126 464 1126 q 431 1114 439 1125 l 408 1085 q 385 1066 400 1074 q 356 1058 369 1058 l 156 1058 q 138 1066 142 1058 q 143 1085 135 1074 l 333 1325 q 358 1344 342 1336 q 388 1351 374 1351 z "},"ë":{"ha":949,"x_min":74,"x_max":847,"o":"m 349 728 l 349 669 q 358 646 349 656 q 382 636 368 636 l 758 636 q 782 626 772 636 q 792 603 792 617 l 792 411 q 782 388 792 397 q 758 378 772 378 l 382 378 q 358 368 368 378 q 349 344 349 358 l 349 292 q 358 268 349 278 q 382 258 368 258 l 814 258 q 838 249 828 258 q 847 225 847 239 l 847 33 q 838 10 847 19 q 814 0 828 0 l 107 0 q 83 10 93 0 q 74 33 74 19 l 74 983 q 83 1007 74 997 q 107 1017 93 1017 l 814 1017 q 838 1007 828 1017 q 847 983 847 997 l 847 794 q 838 771 847 781 q 814 761 828 761 l 382 761 q 358 751 368 761 q 349 728 349 742 m 160 1208 q 170 1261 160 1236 q 199 1304 181 1286 q 243 1333 218 1322 q 297 1343 268 1343 q 393 1304 356 1343 q 431 1208 431 1265 q 393 1112 431 1150 q 297 1074 356 1074 q 243 1084 268 1074 q 199 1113 218 1094 q 170 1155 181 1131 q 160 1208 160 1179 m 471 1208 q 481 1261 471 1236 q 510 1304 492 1286 q 553 1333 528 1322 q 607 1343 578 1343 q 703 1304 664 1343 q 742 1208 742 1265 q 703 1112 742 1150 q 607 1074 664 1074 q 510 1112 549 1074 q 471 1208 471 1150 z "},"ì":{"ha":472,"x_min":-135,"x_max":363,"o":"m 329 0 l 119 0 q 95 10 104 0 q 86 33 86 19 l 86 982 q 95 1006 86 996 q 119 1015 104 1015 l 329 1015 q 353 1006 343 1015 q 363 982 363 996 l 363 33 q 353 10 363 19 q 329 0 343 0 m 325 1063 l 149 1063 q 117 1069 135 1063 q 89 1083 100 1075 l -111 1232 q -107 1265 -135 1251 l 93 1351 q 121 1353 106 1357 q 144 1338 136 1349 l 338 1089 q 342 1070 346 1078 q 325 1063 339 1063 z "},"í":{"ha":472,"x_min":86,"x_max":572,"o":"m 329 0 l 119 0 q 95 10 104 0 q 86 33 86 19 l 86 982 q 95 1006 86 996 q 119 1015 104 1015 l 329 1015 q 353 1006 343 1015 q 363 982 363 996 l 363 33 q 353 10 363 19 q 329 0 343 0 m 344 1351 l 544 1265 q 549 1232 572 1251 l 350 1083 q 322 1069 339 1075 q 290 1063 304 1063 l 114 1063 q 96 1070 100 1063 q 101 1089 92 1078 l 293 1338 q 317 1353 301 1349 q 344 1351 332 1357 z "},"î":{"ha":472,"x_min":-94,"x_max":542,"o":"m 329 0 l 119 0 q 95 10 104 0 q 86 33 86 19 l 86 982 q 95 1006 86 996 q 119 1015 104 1015 l 329 1015 q 353 1006 343 1015 q 363 982 363 996 l 363 33 q 353 10 363 19 q 329 0 343 0 m 158 1351 l 286 1351 q 316 1344 300 1351 q 340 1325 332 1336 l 533 1086 q 538 1067 542 1075 q 521 1060 535 1060 l 322 1060 q 292 1067 308 1060 q 268 1086 276 1075 l 243 1115 q 222 1126 235 1126 q 201 1114 210 1125 l 179 1085 q 156 1066 171 1074 q 126 1058 140 1058 l -74 1058 q -91 1066 -87 1058 q -86 1085 -94 1074 l 104 1325 q 128 1344 113 1336 q 158 1351 144 1351 z "},"ï":{"ha":472,"x_min":-68,"x_max":514,"o":"m 329 0 l 119 0 q 95 10 104 0 q 86 33 86 19 l 86 982 q 95 1006 86 996 q 119 1015 104 1015 l 329 1015 q 353 1006 343 1015 q 363 982 363 996 l 363 33 q 353 10 363 19 q 329 0 343 0 m -68 1208 q -58 1261 -68 1236 q -28 1304 -47 1286 q 15 1333 -10 1322 q 69 1343 40 1343 q 165 1304 128 1343 q 203 1208 203 1265 q 165 1112 203 1150 q 69 1074 128 1074 q 15 1084 40 1074 q -28 1113 -10 1094 q -58 1155 -47 1131 q -68 1208 -68 1179 m 243 1208 q 253 1261 243 1236 q 282 1304 264 1286 q 325 1333 300 1322 q 379 1343 350 1343 q 475 1304 436 1343 q 514 1208 514 1265 q 475 1112 514 1150 q 379 1074 436 1074 q 282 1112 321 1074 q 243 1208 243 1150 z "},"ñ":{"ha":1164,"x_min":76,"x_max":1031,"o":"m 381 1067 l 258 1100 q 238 1115 244 1103 q 235 1140 231 1128 q 260 1208 244 1174 q 297 1272 275 1243 q 350 1320 319 1301 q 422 1340 381 1339 q 505 1322 471 1342 q 566 1284 539 1301 q 616 1265 593 1267 q 665 1299 639 1263 q 688 1315 674 1310 q 714 1315 701 1319 l 828 1274 q 848 1256 842 1268 q 850 1229 854 1243 q 819 1160 838 1193 q 775 1103 800 1128 q 718 1063 750 1078 q 647 1051 686 1049 q 579 1074 608 1054 q 525 1110 550 1094 q 478 1126 500 1126 q 431 1088 456 1125 q 408 1070 422 1076 q 381 1067 394 1064 m 1031 983 l 1031 33 q 1021 10 1031 19 q 997 0 1011 0 l 792 0 q 763 8 778 0 q 739 28 747 17 l 376 538 q 359 547 368 549 q 350 531 350 544 l 350 33 q 340 10 350 19 q 317 0 331 0 l 110 0 q 86 10 96 0 q 76 33 76 19 l 76 983 q 86 1007 76 997 q 110 1017 96 1017 l 318 1017 q 347 1009 332 1017 q 371 990 363 1001 l 732 481 q 749 471 740 469 q 758 486 758 472 l 758 983 q 768 1007 758 997 q 792 1017 778 1017 l 997 1017 q 1021 1007 1011 1017 q 1031 983 1031 997 z "},"ò":{"ha":1150,"x_min":31,"x_max":1082,"o":"m 31 508 q 72 713 31 617 q 185 880 114 808 q 351 993 256 951 q 556 1035 447 1035 q 760 993 664 1035 q 927 880 856 951 q 1040 713 999 808 q 1082 508 1082 617 q 1040 304 1082 400 q 927 137 999 208 q 760 24 856 65 q 556 -18 664 -18 q 351 24 447 -18 q 185 137 256 65 q 72 304 114 208 q 31 508 31 400 m 306 508 q 325 408 306 456 q 378 325 344 361 q 458 267 413 289 q 556 246 504 246 q 653 267 607 246 q 733 325 699 289 q 788 408 768 361 q 807 508 807 456 q 788 608 807 560 q 733 691 768 656 q 653 748 699 726 q 556 769 607 769 q 458 748 504 769 q 378 691 413 726 q 325 608 344 656 q 306 508 306 560 m 711 1063 l 535 1063 q 503 1069 521 1063 q 475 1083 486 1075 l 275 1232 q 279 1265 251 1251 l 479 1351 q 507 1353 492 1357 q 531 1338 522 1349 l 724 1089 q 728 1070 732 1078 q 711 1063 725 1063 z "},"ó":{"ha":1150,"x_min":31,"x_max":1082,"o":"m 31 508 q 72 713 31 617 q 185 880 114 808 q 351 993 256 951 q 556 1035 447 1035 q 760 993 664 1035 q 927 880 856 951 q 1040 713 999 808 q 1082 508 1082 617 q 1040 304 1082 400 q 927 137 999 208 q 760 24 856 65 q 556 -18 664 -18 q 351 24 447 -18 q 185 137 256 65 q 72 304 114 208 q 31 508 31 400 m 306 508 q 325 408 306 456 q 378 325 344 361 q 458 267 413 289 q 556 246 504 246 q 653 267 607 246 q 733 325 699 289 q 788 408 768 361 q 807 508 807 456 q 788 608 807 560 q 733 691 768 656 q 653 748 699 726 q 556 769 607 769 q 458 748 504 769 q 378 691 413 726 q 325 608 344 656 q 306 508 306 560 m 628 1351 l 828 1265 q 832 1232 856 1251 l 633 1083 q 605 1069 622 1075 q 574 1063 588 1063 l 397 1063 q 379 1070 383 1063 q 385 1089 375 1078 l 576 1338 q 600 1353 585 1349 q 628 1351 615 1357 z "},"ô":{"ha":1150,"x_min":31,"x_max":1082,"o":"m 31 508 q 72 713 31 617 q 185 880 114 808 q 351 993 256 951 q 556 1035 447 1035 q 760 993 664 1035 q 927 880 856 951 q 1040 713 999 808 q 1082 508 1082 617 q 1040 304 1082 400 q 927 137 999 208 q 760 24 856 65 q 556 -18 664 -18 q 351 24 447 -18 q 185 137 256 65 q 72 304 114 208 q 31 508 31 400 m 306 508 q 325 408 306 456 q 378 325 344 361 q 458 267 413 289 q 556 246 504 246 q 653 267 607 246 q 733 325 699 289 q 788 408 768 361 q 807 508 807 456 q 788 608 807 560 q 733 691 768 656 q 653 748 699 726 q 556 769 607 769 q 458 748 504 769 q 378 691 413 726 q 325 608 344 656 q 306 508 306 560 m 489 1351 l 617 1351 q 647 1344 631 1351 q 671 1325 663 1336 l 864 1086 q 869 1067 872 1075 q 851 1060 865 1060 l 653 1060 q 623 1067 639 1060 q 599 1086 607 1075 l 574 1115 q 553 1126 565 1126 q 532 1114 540 1125 l 510 1085 q 486 1066 501 1074 q 457 1058 471 1058 l 257 1058 q 240 1066 243 1058 q 244 1085 236 1074 l 435 1325 q 459 1344 443 1336 q 489 1351 475 1351 z "},"õ":{"ha":1150,"x_min":31,"x_max":1082,"o":"m 31 508 q 72 713 31 617 q 185 880 114 808 q 351 993 256 951 q 556 1035 447 1035 q 760 993 664 1035 q 927 880 856 951 q 1040 713 999 808 q 1082 508 1082 617 q 1040 304 1082 400 q 927 137 999 208 q 760 24 856 65 q 556 -18 664 -18 q 351 24 447 -18 q 185 137 256 65 q 72 304 114 208 q 31 508 31 400 m 306 508 q 325 408 306 456 q 378 325 344 361 q 458 267 413 289 q 556 246 504 246 q 653 267 607 246 q 733 325 699 289 q 788 408 768 361 q 807 508 807 456 q 788 608 807 560 q 733 691 768 656 q 653 748 699 726 q 556 769 607 769 q 458 748 504 769 q 378 691 413 726 q 325 608 344 656 q 306 508 306 560 m 381 1067 l 258 1100 q 238 1115 244 1103 q 235 1140 231 1128 q 260 1208 244 1174 q 297 1272 275 1243 q 350 1320 319 1301 q 422 1340 381 1339 q 505 1322 471 1342 q 566 1284 539 1301 q 616 1265 593 1267 q 665 1299 639 1263 q 688 1315 674 1310 q 714 1315 701 1319 l 828 1274 q 848 1256 842 1268 q 850 1229 854 1243 q 819 1160 838 1193 q 775 1103 800 1128 q 718 1063 750 1078 q 647 1051 686 1049 q 579 1074 608 1054 q 525 1110 550 1094 q 478 1126 500 1126 q 431 1088 456 1125 q 408 1070 422 1076 q 381 1067 394 1064 z "},"ö":{"ha":1150,"x_min":31,"x_max":1082,"o":"m 31 508 q 72 713 31 617 q 185 880 114 808 q 351 993 256 951 q 556 1035 447 1035 q 760 993 664 1035 q 927 880 856 951 q 1040 713 999 808 q 1082 508 1082 617 q 1040 304 1082 400 q 927 137 999 208 q 760 24 856 65 q 556 -18 664 -18 q 351 24 447 -18 q 185 137 256 65 q 72 304 114 208 q 31 508 31 400 m 306 508 q 325 408 306 456 q 378 325 344 361 q 458 267 413 289 q 556 246 504 246 q 653 267 607 246 q 733 325 699 289 q 788 408 768 361 q 807 508 807 456 q 788 608 807 560 q 733 691 768 656 q 653 748 699 726 q 556 769 607 769 q 458 748 504 769 q 378 691 413 726 q 325 608 344 656 q 306 508 306 560 m 264 1208 q 274 1261 264 1236 q 303 1304 285 1286 q 347 1333 322 1322 q 401 1343 372 1343 q 497 1304 460 1343 q 535 1208 535 1265 q 497 1112 535 1150 q 401 1074 460 1074 q 347 1084 372 1074 q 303 1113 322 1094 q 274 1155 285 1131 q 264 1208 264 1179 m 575 1208 q 585 1261 575 1236 q 614 1304 596 1286 q 657 1333 632 1322 q 711 1343 682 1343 q 807 1304 768 1343 q 846 1208 846 1265 q 807 1112 846 1150 q 711 1074 768 1074 q 614 1112 653 1074 q 575 1208 575 1150 z "},"ù":{"ha":1094,"x_min":75,"x_max":963,"o":"m 75 982 q 85 1006 75 996 q 108 1015 94 1015 l 318 1015 q 342 1006 332 1015 q 351 982 351 996 l 351 419 q 369 330 351 365 q 412 274 386 294 q 467 246 438 254 q 519 238 496 238 q 572 246 543 238 q 626 274 601 254 q 669 330 651 294 q 686 419 686 365 l 686 982 q 696 1006 686 996 q 719 1015 706 1015 l 929 1015 q 953 1006 943 1015 q 963 982 963 996 l 963 419 q 931 240 963 321 q 842 103 900 160 q 701 15 783 46 q 519 -17 619 -17 q 338 15 419 -17 q 197 103 256 46 q 107 240 139 160 q 75 419 75 321 l 75 982 m 681 1063 l 504 1063 q 473 1069 490 1063 q 444 1083 456 1075 l 244 1232 q 249 1265 221 1251 l 449 1351 q 476 1353 461 1357 q 500 1338 492 1349 l 693 1089 q 698 1070 701 1078 q 681 1063 694 1063 z "},"ú":{"ha":1094,"x_min":75,"x_max":963,"o":"m 75 982 q 85 1006 75 996 q 108 1015 94 1015 l 318 1015 q 342 1006 332 1015 q 351 982 351 996 l 351 419 q 369 330 351 365 q 412 274 386 294 q 467 246 438 254 q 519 238 496 238 q 572 246 543 238 q 626 274 601 254 q 669 330 651 294 q 686 419 686 365 l 686 982 q 696 1006 686 996 q 719 1015 706 1015 l 929 1015 q 953 1006 943 1015 q 963 982 963 996 l 963 419 q 931 240 963 321 q 842 103 900 160 q 701 15 783 46 q 519 -17 619 -17 q 338 15 419 -17 q 197 103 256 46 q 107 240 139 160 q 75 419 75 321 l 75 982 m 578 1351 l 778 1265 q 782 1232 806 1251 l 583 1083 q 555 1069 572 1075 q 524 1063 538 1063 l 347 1063 q 329 1070 333 1063 q 335 1089 325 1078 l 526 1338 q 550 1353 535 1349 q 578 1351 565 1357 z "},"û":{"ha":1094,"x_min":75,"x_max":963,"o":"m 75 982 q 85 1006 75 996 q 108 1015 94 1015 l 318 1015 q 342 1006 332 1015 q 351 982 351 996 l 351 419 q 369 330 351 365 q 412 274 386 294 q 467 246 438 254 q 519 238 496 238 q 572 246 543 238 q 626 274 601 254 q 669 330 651 294 q 686 419 686 365 l 686 982 q 696 1006 686 996 q 719 1015 706 1015 l 929 1015 q 953 1006 943 1015 q 963 982 963 996 l 963 419 q 931 240 963 321 q 842 103 900 160 q 701 15 783 46 q 519 -17 619 -17 q 338 15 419 -17 q 197 103 256 46 q 107 240 139 160 q 75 419 75 321 l 75 982 m 453 1351 l 581 1351 q 610 1344 594 1351 q 635 1325 626 1336 l 828 1086 q 833 1067 836 1075 q 815 1060 829 1060 l 617 1060 q 587 1067 603 1060 q 563 1086 571 1075 l 538 1115 q 517 1126 529 1126 q 496 1114 504 1125 l 474 1085 q 450 1066 465 1074 q 421 1058 435 1058 l 221 1058 q 203 1066 207 1058 q 208 1085 200 1074 l 399 1325 q 423 1344 407 1336 q 453 1351 439 1351 z "},"ü":{"ha":1094,"x_min":75,"x_max":963,"o":"m 75 982 q 85 1006 75 996 q 108 1015 94 1015 l 318 1015 q 342 1006 332 1015 q 351 982 351 996 l 351 419 q 369 330 351 365 q 412 274 386 294 q 467 246 438 254 q 519 238 496 238 q 572 246 543 238 q 626 274 601 254 q 669 330 651 294 q 686 419 686 365 l 686 982 q 696 1006 686 996 q 719 1015 706 1015 l 929 1015 q 953 1006 943 1015 q 963 982 963 996 l 963 419 q 931 240 963 321 q 842 103 900 160 q 701 15 783 46 q 519 -17 619 -17 q 338 15 419 -17 q 197 103 256 46 q 107 240 139 160 q 75 419 75 321 l 75 982 m 226 1208 q 237 1261 226 1236 q 266 1304 247 1286 q 310 1333 285 1322 q 364 1343 335 1343 q 460 1304 422 1343 q 497 1208 497 1265 q 460 1112 497 1150 q 364 1074 422 1074 q 310 1084 335 1074 q 266 1113 285 1094 q 237 1155 247 1131 q 226 1208 226 1179 m 538 1208 q 548 1261 538 1236 q 576 1304 558 1286 q 619 1333 594 1322 q 674 1343 644 1343 q 769 1304 731 1343 q 808 1208 808 1265 q 769 1112 808 1150 q 674 1074 731 1074 q 576 1112 615 1074 q 538 1208 538 1150 z "},"ý":{"ha":985,"x_min":-36,"x_max":983,"o":"m 536 1351 l 736 1265 q 740 1232 764 1251 l 542 1083 q 513 1069 531 1075 q 482 1063 496 1063 l 306 1063 q 288 1070 292 1063 q 293 1089 283 1078 l 485 1338 q 508 1353 493 1349 q 536 1351 524 1357 m 972 976 l 625 414 q 613 383 618 401 q 607 351 607 365 l 607 33 q 597 10 607 19 q 574 0 588 0 l 364 0 q 340 10 350 0 q 331 33 331 19 l 331 350 q 326 383 331 364 q 314 413 321 401 q 144 693 231 556 q -29 976 57 831 q -32 1002 -36 989 q -14 1015 -28 1015 l 233 1015 q 262 1007 247 1015 q 283 986 276 999 l 454 689 q 471 678 461 678 q 488 689 481 678 l 657 986 q 678 1007 664 999 q 707 1015 693 1015 l 957 1015 q 977 1006 971 1015 q 972 976 983 996 z "},"ÿ":{"ha":985,"x_min":-36,"x_max":983,"o":"m 183 1208 q 194 1261 183 1236 q 223 1304 204 1286 q 267 1333 242 1322 q 321 1343 292 1343 q 417 1304 379 1343 q 454 1208 454 1265 q 417 1112 454 1150 q 321 1074 379 1074 q 267 1084 292 1074 q 223 1113 242 1094 q 194 1155 204 1131 q 183 1208 183 1179 m 494 1208 q 505 1261 494 1236 q 533 1304 515 1286 q 576 1333 551 1322 q 631 1343 601 1343 q 726 1304 688 1343 q 765 1208 765 1265 q 726 1112 765 1150 q 631 1074 688 1074 q 533 1112 572 1074 q 494 1208 494 1150 m 972 976 l 625 414 q 613 383 618 401 q 607 351 607 365 l 607 33 q 597 10 607 19 q 574 0 588 0 l 364 0 q 340 10 350 0 q 331 33 331 19 l 331 350 q 326 383 331 364 q 314 413 321 401 q 144 693 231 556 q -29 976 57 831 q -32 1002 -36 989 q -14 1015 -28 1015 l 233 1015 q 262 1007 247 1015 q 283 986 276 999 l 454 689 q 471 678 461 678 q 488 689 481 678 l 657 986 q 678 1007 664 999 q 707 1015 693 1015 l 957 1015 q 977 1006 971 1015 q 972 976 983 996 z "},"ç":{"ha":1086,"x_min":28,"x_max":1064,"o":"m 419 -294 l 444 -240 q 463 -223 450 -228 q 489 -221 475 -218 q 520 -228 503 -225 q 560 -232 538 -232 q 569 -232 561 -232 q 585 -228 576 -232 q 600 -218 593 -225 q 607 -196 607 -211 q 590 -172 607 -178 q 561 -165 572 -165 q 533 -169 546 -167 q 511 -175 521 -172 q 482 -176 497 -179 q 457 -162 467 -174 l 457 -161 q 444 -135 447 -151 q 446 -106 442 -119 l 476 -32 q 473 -17 479 -22 q 457 -8 467 -11 q 286 57 365 10 q 150 172 207 104 q 60 326 93 240 q 28 507 28 411 q 69 711 28 615 q 184 878 111 807 q 354 990 257 949 q 563 1032 451 1032 q 728 1011 654 1032 q 861 953 801 990 q 969 862 921 915 q 1057 744 1017 808 q 1060 721 1064 733 q 1043 703 1056 708 l 846 625 q 818 625 832 619 q 797 642 804 631 q 700 740 757 706 q 563 774 643 774 q 463 751 510 774 q 382 692 417 729 q 328 607 347 656 q 308 507 308 558 q 328 406 308 454 q 382 322 347 358 q 463 264 417 286 q 563 242 510 242 q 701 278 639 242 q 799 374 763 315 q 819 390 806 385 q 846 390 832 396 l 1043 313 q 1060 295 1056 307 q 1057 271 1064 283 q 882 76 985 153 q 629 -14 779 0 l 626 -15 q 615 -32 611 -18 q 643 -46 619 -46 q 693 -61 665 -46 q 742 -107 721 -76 q 761 -158 754 -126 q 765 -218 768 -189 q 738 -301 763 -267 q 674 -354 714 -335 q 611 -372 642 -369 q 569 -375 581 -375 q 489 -363 524 -374 q 433 -342 454 -353 q 417 -321 421 -335 q 419 -294 413 -307 z "},"š":{"ha":944,"x_min":28,"x_max":876,"o":"m 190 349 q 339 272 265 300 q 476 244 413 244 q 569 262 538 244 q 601 314 601 279 q 588 342 601 332 q 551 360 574 353 q 497 371 528 367 q 435 382 467 375 q 363 395 404 388 q 279 417 322 403 q 194 454 236 432 q 118 511 151 476 q 65 594 85 546 q 44 707 44 642 q 82 865 44 803 q 177 965 119 928 q 306 1016 235 1001 q 443 1031 376 1031 q 652 997 560 1031 q 829 897 744 963 q 842 874 840 888 q 835 849 843 860 l 726 694 q 704 681 718 683 q 679 686 690 678 q 547 749 608 731 q 435 768 486 768 q 399 767 419 768 q 361 762 379 767 q 331 746 343 757 q 319 715 319 735 q 349 681 319 696 q 415 654 378 665 q 488 637 453 643 q 532 629 522 631 q 642 601 582 619 q 753 545 701 582 q 841 449 806 508 q 876 301 876 390 q 847 158 876 218 q 766 58 818 97 q 641 1 714 19 q 479 -18 568 -18 q 344 -6 407 -18 q 228 26 282 6 q 127 76 174 47 q 42 136 81 104 q 29 159 31 144 q 36 185 28 174 l 143 339 q 165 353 151 350 q 190 349 179 356 m 507 1058 l 379 1058 q 349 1066 365 1058 q 325 1085 333 1074 l 132 1326 q 127 1344 124 1338 q 144 1351 131 1351 l 343 1351 q 373 1344 357 1351 q 399 1326 389 1338 l 422 1299 q 443 1288 431 1288 q 464 1299 456 1288 l 485 1326 q 509 1344 493 1338 q 539 1351 525 1351 l 739 1351 q 756 1344 753 1351 q 751 1326 760 1338 l 561 1085 q 537 1066 553 1074 q 507 1058 521 1058 z "},"Þ":{"ha":988,"x_min":74,"x_max":908,"o":"m 532 133 l 383 133 q 360 124 369 133 q 350 100 350 115 l 350 33 q 340 10 350 19 q 317 0 331 0 l 107 0 q 83 10 93 0 q 74 33 74 19 l 74 983 q 83 1008 74 999 q 107 1017 93 1017 l 317 1017 q 340 1008 331 1017 q 350 983 350 999 l 350 918 q 360 894 350 904 q 383 885 369 885 l 532 885 q 678 855 610 885 q 798 774 747 825 q 878 655 849 724 q 908 508 908 586 q 878 363 908 431 q 798 243 849 294 q 678 163 747 192 q 532 133 610 133 m 532 628 l 383 628 q 360 619 369 628 q 350 594 350 610 l 350 422 q 360 399 350 408 q 383 389 369 389 l 532 389 q 572 399 553 389 q 603 427 590 410 q 625 466 617 444 q 633 508 633 488 q 625 552 633 531 q 603 590 617 574 q 572 617 590 607 q 532 628 553 628 z "},"þ":{"ha":988,"x_min":74,"x_max":908,"o":"m 532 133 l 383 133 q 360 124 369 133 q 350 100 350 115 l 350 33 q 340 10 350 19 q 317 0 331 0 l 107 0 q 83 10 93 0 q 74 33 74 19 l 74 983 q 83 1008 74 999 q 107 1017 93 1017 l 317 1017 q 340 1008 331 1017 q 350 983 350 999 l 350 918 q 360 894 350 904 q 383 885 369 885 l 532 885 q 678 855 610 885 q 798 774 747 825 q 878 655 849 724 q 908 508 908 586 q 878 363 908 431 q 798 243 849 294 q 678 163 747 192 q 532 133 610 133 m 532 628 l 383 628 q 360 619 369 628 q 350 594 350 610 l 350 422 q 360 399 350 408 q 383 389 369 389 l 532 389 q 572 399 553 389 q 603 427 590 410 q 625 466 617 444 q 633 508 633 488 q 625 552 633 531 q 603 590 617 574 q 572 617 590 607 q 532 628 553 628 z "},"Ð":{"ha":1133,"x_min":19,"x_max":1042,"o":"m 121 33 l 121 343 q 111 367 121 358 q 88 376 101 376 l 53 376 q 28 386 38 376 q 19 410 19 396 l 19 597 q 28 622 19 613 q 53 631 38 631 l 88 631 q 111 640 101 631 q 121 664 121 650 l 121 983 q 130 1008 121 999 q 154 1017 139 1017 l 532 1017 q 889 889 750 1017 q 1003 724 964 819 q 1042 508 1042 628 q 1008 309 1042 400 q 913 150 975 218 q 903 141 907 144 q 896 135 899 138 l 889 128 l 882 121 q 874 115 879 118 q 863 107 868 111 q 713 27 796 54 q 532 0 629 0 l 154 0 q 130 10 139 0 q 121 33 121 19 m 521 376 l 429 376 q 405 367 414 376 q 396 343 396 358 l 396 289 q 405 265 396 275 q 429 256 414 256 l 532 256 q 614 265 572 256 q 689 302 656 275 q 744 378 722 329 q 765 507 765 428 q 744 635 765 586 q 688 712 722 685 q 613 749 654 739 q 532 758 571 758 l 429 758 q 405 749 414 758 q 396 725 396 740 l 396 664 q 405 640 396 650 q 429 631 414 631 l 521 631 q 544 622 535 631 q 554 597 554 613 l 554 410 q 544 386 554 396 q 521 376 535 376 z "},"ð":{"ha":1133,"x_min":19,"x_max":1042,"o":"m 121 33 l 121 343 q 111 367 121 358 q 88 376 101 376 l 53 376 q 28 386 38 376 q 19 410 19 396 l 19 597 q 28 622 19 613 q 53 631 38 631 l 88 631 q 111 640 101 631 q 121 664 121 650 l 121 983 q 130 1008 121 999 q 154 1017 139 1017 l 532 1017 q 889 889 750 1017 q 1003 724 964 819 q 1042 508 1042 628 q 1008 309 1042 400 q 913 150 975 218 q 903 141 907 144 q 896 135 899 138 l 889 128 l 882 121 q 874 115 879 118 q 863 107 868 111 q 713 27 796 54 q 532 0 629 0 l 154 0 q 130 10 139 0 q 121 33 121 19 m 521 376 l 429 376 q 405 367 414 376 q 396 343 396 358 l 396 289 q 405 265 396 275 q 429 256 414 256 l 532 256 q 614 265 572 256 q 689 302 656 275 q 744 378 722 329 q 765 507 765 428 q 744 635 765 586 q 688 712 722 685 q 613 749 654 739 q 532 758 571 758 l 429 758 q 405 749 414 758 q 396 725 396 740 l 396 664 q 405 640 396 650 q 429 631 414 631 l 521 631 q 544 622 535 631 q 554 597 554 613 l 554 410 q 544 386 554 396 q 521 376 535 376 z "},"ı":{"ha":472,"x_min":86,"x_max":363,"o":"m 329 0 l 119 0 q 95 10 104 0 q 86 33 86 19 l 86 982 q 95 1006 86 996 q 119 1015 104 1015 l 329 1015 q 353 1006 343 1015 q 363 982 363 996 l 363 33 q 353 10 363 19 q 329 0 343 0 z "},"Ł":{"ha":915,"x_min":13,"x_max":885,"o":"m 125 581 l 125 983 q 135 1008 125 999 q 158 1017 144 1017 l 367 1017 q 391 1008 382 1017 q 400 983 400 999 l 400 736 q 409 717 400 722 q 429 719 418 713 l 640 839 q 667 840 656 849 q 679 817 679 832 l 679 606 q 671 578 679 592 q 650 557 663 564 l 429 432 q 409 411 418 425 q 400 382 400 397 l 400 289 q 410 265 400 275 q 433 256 419 256 l 851 256 q 876 247 867 256 q 885 222 885 238 l 885 33 q 876 10 885 19 q 851 0 867 0 l 158 0 q 135 10 144 0 q 125 33 125 19 l 125 228 q 117 248 125 243 q 96 246 108 253 q 72 233 81 238 q 50 221 63 228 q 22 223 32 213 q 13 247 13 233 l 13 450 q 22 479 13 465 q 42 500 31 493 l 96 532 q 117 553 108 539 q 125 581 125 567 z "},"ł":{"ha":915,"x_min":13,"x_max":885,"o":"m 125 581 l 125 983 q 135 1008 125 999 q 158 1017 144 1017 l 367 1017 q 391 1008 382 1017 q 400 983 400 999 l 400 736 q 409 717 400 722 q 429 719 418 713 l 640 839 q 667 840 656 849 q 679 817 679 832 l 679 606 q 671 578 679 592 q 650 557 663 564 l 429 432 q 409 411 418 425 q 400 382 400 397 l 400 289 q 410 265 400 275 q 433 256 419 256 l 851 256 q 876 247 867 256 q 885 222 885 238 l 885 33 q 876 10 885 19 q 851 0 867 0 l 158 0 q 135 10 144 0 q 125 33 125 19 l 125 228 q 117 248 125 243 q 96 246 108 253 q 72 233 81 238 q 50 221 63 228 q 22 223 32 213 q 13 247 13 233 l 13 450 q 22 479 13 465 q 42 500 31 493 l 96 532 q 117 553 108 539 q 125 581 125 567 z "},"U":{"ha":1094,"x_min":75,"x_max":963,"o":"m 75 982 q 85 1006 75 996 q 108 1015 94 1015 l 318 1015 q 342 1006 332 1015 q 351 982 351 996 l 351 419 q 369 330 351 365 q 412 274 386 294 q 467 246 438 254 q 519 238 496 238 q 572 246 543 238 q 626 274 601 254 q 669 330 651 294 q 686 419 686 365 l 686 982 q 696 1006 686 996 q 719 1015 706 1015 l 929 1015 q 953 1006 943 1015 q 963 982 963 996 l 963 419 q 931 240 963 321 q 842 103 900 160 q 701 15 783 46 q 519 -17 619 -17 q 338 15 419 -17 q 197 103 256 46 q 107 240 139 160 q 75 419 75 321 l 75 982 z "},"B":{"ha":974,"x_min":75,"x_max":899,"o":"m 771 524 q 815 493 793 511 q 856 449 838 475 q 887 388 875 422 q 899 308 899 353 q 870 159 899 218 q 793 65 842 100 q 681 15 744 29 q 549 0 618 0 l 108 0 q 85 10 94 0 q 75 33 75 19 l 75 983 q 85 1007 75 997 q 108 1017 94 1017 l 528 1017 q 656 1002 594 1017 q 763 954 717 988 q 838 867 810 921 q 867 736 867 814 q 835 628 867 674 q 768 556 804 582 q 771 524 743 538 m 383 631 l 513 631 q 557 652 540 631 q 574 700 574 674 q 553 743 574 725 q 515 761 533 761 l 383 761 q 360 751 369 761 q 350 728 350 742 l 350 664 q 360 640 350 650 q 383 631 369 631 m 529 401 l 383 401 q 360 392 369 401 q 350 368 350 382 l 350 289 q 360 265 350 275 q 383 256 369 256 l 539 256 q 586 276 564 256 q 608 325 608 297 q 587 376 608 350 q 529 401 565 401 z "},"C":{"ha":1086,"x_min":28,"x_max":1064,"o":"m 1057 271 q 968 152 1017 206 q 859 61 919 99 q 725 3 799 24 q 563 -18 651 -18 q 354 24 451 -18 q 184 136 257 65 q 69 303 111 207 q 28 507 28 399 q 69 711 28 615 q 184 878 111 807 q 354 990 257 949 q 563 1032 451 1032 q 728 1011 654 1032 q 861 953 801 990 q 969 862 921 915 q 1057 744 1017 808 q 1060 721 1064 733 q 1043 703 1056 708 l 846 625 q 818 625 832 619 q 797 642 804 631 q 700 740 757 706 q 563 774 643 774 q 463 751 510 774 q 382 692 417 729 q 328 607 347 656 q 308 507 308 558 q 328 406 308 454 q 382 322 347 358 q 463 264 417 286 q 563 242 510 242 q 701 278 639 242 q 799 374 763 315 q 819 390 806 385 q 846 390 832 396 l 1043 313 q 1060 295 1056 307 q 1057 271 1064 283 z "}}}
